<svg width="24" height="24" viewBox="0 0 24 24" fill="none" xmlns="http://www.w3.org/2000/svg">
<path fill-rule="evenodd" clip-rule="evenodd" d="M11.6375 3.06281C11.2855 3.18681 10.9945 3.60781 10.9945 3.99381C10.9945 4.07381 11.0235 4.22781 11.0595 4.33681C11.1185 4.51681 11.4065 4.81581 14.3485 7.76381L17.5735 10.9938H10.7115C3.00545 10.9938 3.61745 10.9688 3.29345 11.2928C3.20051 11.3844 3.1267 11.4935 3.07632 11.6138C3.02594 11.7342 3 11.8633 3 11.9938C3 12.1243 3.02594 12.2534 3.07632 12.3738C3.1267 12.4941 3.20051 12.6032 3.29345 12.6948C3.61745 13.0188 3.00545 12.9938 10.7115 12.9938H17.5735L14.3485 16.2238C11.4065 19.1718 11.1185 19.4708 11.0595 19.6508C10.9305 20.0408 11.0155 20.4168 11.2945 20.6958C11.4412 20.8435 11.6309 20.9409 11.8364 20.9741C12.0419 21.0073 12.2527 20.9747 12.4385 20.8808C12.5665 20.8188 13.7445 19.6648 16.7395 16.6648C20.6715 12.7278 20.8685 12.5238 20.9345 12.3198C21.0191 12.0662 21 11.7894 20.8815 11.5498C20.8195 11.4218 19.6655 10.2448 16.6655 7.24881C12.8795 3.46781 12.5185 3.11781 12.3375 3.05881C12.1107 2.97905 11.8633 2.98046 11.6375 3.06281" fill="black"/>
</svg>
