<svg width="24" height="24" viewBox="0 0 24 24" fill="none" xmlns="http://www.w3.org/2000/svg">
<path fill-rule="evenodd" clip-rule="evenodd" d="M18.041 5.076C17.893 5.12984 17.7597 5.21757 17.6517 5.33218C17.5437 5.44678 17.464 5.58508 17.419 5.736C17.298 6.152 17.402 6.433 17.857 6.919C19.721 8.913 20.426 11.719 19.739 14.407C19.419 15.661 18.819 16.747 17.847 17.833C17.547 18.167 17.471 18.279 17.417 18.465C17.3751 18.605 17.3654 18.7527 17.3888 18.8971C17.4121 19.0414 17.4678 19.1785 17.5517 19.2982C17.6356 19.4179 17.7455 19.517 17.8732 19.5882C18.0009 19.6593 18.1431 19.7006 18.289 19.709C18.657 19.739 18.882 19.632 19.238 19.257C20.3908 18.0399 21.2201 16.5533 21.6502 14.933C22.0803 13.3128 22.0974 11.6106 21.7 9.982C21.362 8.609 20.653 7.179 19.775 6.1C19.342 5.568 19.001 5.222 18.816 5.128C18.6975 5.06593 18.5674 5.02925 18.434 5.0203C18.3005 5.01135 18.1667 5.03032 18.041 5.076V5.076ZM10.769 5.123C10.695 5.145 9.672 5.935 8.439 6.922L6.24 8.68H4.51001L2.78 8.681L2.577 8.775C2.45223 8.83725 2.34001 8.922 2.24601 9.025C1.99301 9.329 1.99601 9.288 2.00901 12.465C2.02001 15.337 2.02001 15.34 2.10801 15.504C2.15601 15.594 2.26 15.724 2.339 15.794C2.622 16.042 2.601 16.04 4.50001 16.04H6.23L8.385 17.766C9.57 18.715 10.619 19.527 10.715 19.57C10.849 19.63 10.954 19.645 11.16 19.633C11.506 19.614 11.765 19.464 11.939 19.182L12.06 18.986L12.071 12.423C12.083 5.137 12.103 5.679 11.817 5.385C11.7371 5.303 11.6467 5.23203 11.548 5.174C11.396 5.095 10.953 5.066 10.769 5.123V5.123ZM10.12 12.36C10.12 14.67 10.107 16.56 10.09 16.56C10.074 16.56 9.399 16.031 8.591 15.385C7.783 14.738 7.049 14.18 6.96 14.145C6.822 14.089 6.59401 14.08 5.39901 14.08H4.00001V10.64H5.40701C6.43201 10.64 6.852 10.626 6.953 10.59C7.03 10.563 7.76 10.005 8.576 9.352C9.392 8.698 10.074 8.163 10.09 8.162C10.107 8.161 10.12 10.05 10.12 12.36V12.36ZM14.84 8.252C14.644 8.314 14.309 8.661 14.249 8.865C14.136 9.246 14.219 9.575 14.51 9.91C14.986 10.455 15.251 10.925 15.405 11.5C15.526 11.951 15.527 12.765 15.406 13.22C15.28 13.7 14.97 14.281 14.623 14.691C14.266 15.112 14.181 15.308 14.21 15.634C14.235 15.904 14.306 16.06 14.488 16.242C14.6359 16.384 14.8234 16.4777 15.0258 16.5106C15.2282 16.5435 15.4358 16.514 15.621 16.426C15.957 16.269 16.518 15.58 16.874 14.889C17.2838 14.109 17.4921 13.239 17.48 12.358C17.48 10.978 17.019 9.758 16.099 8.703C15.78 8.337 15.53 8.198 15.202 8.204C15.0799 8.2061 14.9584 8.22221 14.84 8.252" fill="black"/>
</svg>
