<svg width="24" height="24" viewBox="0 0 24 24" fill="none" xmlns="http://www.w3.org/2000/svg">
<path fill-rule="evenodd" clip-rule="evenodd" d="M17.66 3.022C17.616 3.032 17.481 3.06 17.36 3.083C16.819 3.188 16.361 3.426 15.877 3.854C15.692 4.018 12.758 6.939 9.357 10.346C4.698 15.013 3.157 16.579 3.107 16.7C3.071 16.788 2.806 17.805 2.517 18.96C1.942 21.265 1.946 21.237 2.148 21.608C2.281 21.852 2.525 22.028 2.814 22.089C3.021 22.133 3.089 22.118 5.164 21.603C6.339 21.312 7.363 21.045 7.44 21.011C7.592 20.943 20.004 8.576 20.377 8.12C21.669 6.542 21.189 4.238 19.38 3.341C19.1812 3.24203 18.9736 3.16168 18.76 3.101C18.495 3.038 17.805 2.989 17.66 3.022V3.022ZM18.5 5.11C18.688 5.208 18.921 5.443 19.025 5.64C19.137 5.851 19.129 6.404 19.012 6.62C18.961 6.714 16.373 9.331 12.693 13.008L6.46 19.236L5.421 19.496C4.849 19.638 4.378 19.751 4.373 19.747C4.369 19.742 4.482 19.271 4.624 18.699L4.884 17.66L11.112 11.427C14.537 8 17.394 5.166 17.46 5.131C17.665 5.022 17.771 5.002 18.06 5.015C18.245 5.023 18.394 5.056 18.5 5.11V5.11ZM11.708 20.178C11.5048 20.2425 11.3279 20.3708 11.2036 20.544C11.0792 20.7171 11.0141 20.9257 11.0178 21.1388C11.0215 21.3519 11.0939 21.5581 11.2242 21.7268C11.3545 21.8955 11.5357 22.0176 11.741 22.075C11.965 22.138 21.035 22.138 21.259 22.075C21.4701 22.0174 21.6562 21.8916 21.7881 21.7171C21.9201 21.5426 21.9906 21.3293 21.9885 21.1106C21.9865 20.8918 21.912 20.6798 21.7768 20.5079C21.6415 20.3359 21.4531 20.2136 21.241 20.16C21.152 20.135 19.386 20.121 16.48 20.122C12.698 20.123 11.832 20.133 11.708 20.178Z" fill="black"/>
</svg>
