<svg width="24" height="24" viewBox="0 0 24 24" fill="none" xmlns="http://www.w3.org/2000/svg">
<path fill-rule="evenodd" clip-rule="evenodd" d="M8.168 2.07601C8.04483 2.11496 7.93159 2.1802 7.8361 2.26722C7.74062 2.35424 7.66518 2.46096 7.615 2.58001C7.532 2.75701 7.521 2.83801 7.52 3.28601V3.79201L6.43 3.80901C5.414 3.82501 5.318 3.83301 5.019 3.92401C4.286 4.14901 3.652 4.67201 3.329 5.32001C2.993 5.99401 3.02 5.34001 3.02 12.9C3.02 19.17 3.025 19.637 3.09 19.88C3.21823 20.3554 3.46661 20.7898 3.81127 21.1415C4.15593 21.4932 4.58527 21.7502 5.058 21.888L5.38 21.98H12.1C19.658 21.98 19.005 22.007 19.68 21.671C20.1883 21.4036 20.6036 20.9883 20.871 20.48C21.207 19.805 21.18 20.458 21.18 12.9C21.18 5.34201 21.207 5.99501 20.871 5.32001C20.6049 4.81021 20.1894 4.39394 19.68 4.12701C19.111 3.84901 18.997 3.83001 17.77 3.81001L16.68 3.79201V3.28601C16.679 2.84001 16.668 2.75601 16.586 2.58001C16.5302 2.45614 16.4483 2.34577 16.346 2.25638C16.2436 2.16699 16.1232 2.1007 15.993 2.06201C15.734 1.98501 15.666 1.98501 15.407 2.06201C15.2768 2.1007 15.1564 2.16699 15.054 2.25638C14.9517 2.34577 14.8698 2.45614 14.814 2.58001C14.732 2.75601 14.721 2.84001 14.72 3.29001V3.80001H9.48V3.29001C9.479 2.84001 9.468 2.75601 9.386 2.58001C9.33016 2.45614 9.24829 2.34577 9.14596 2.25638C9.04363 2.16699 8.92325 2.1007 8.793 2.06201C8.529 1.98301 8.43 1.98501 8.168 2.07601V2.07601ZM7.52 6.31001C7.521 6.76001 7.532 6.84401 7.614 7.02001C7.733 7.27601 7.944 7.46001 8.207 7.53801C8.466 7.61501 8.534 7.61501 8.793 7.53801C8.92325 7.49931 9.04363 7.43302 9.14596 7.34363C9.24829 7.25425 9.33016 7.14387 9.386 7.02001C9.468 6.84401 9.479 6.76001 9.48 6.31001V5.80001H14.72V6.31001C14.721 6.76001 14.732 6.84401 14.814 7.02001C14.933 7.27601 15.144 7.46001 15.407 7.53801C15.666 7.61501 15.734 7.61501 15.993 7.53801C16.1232 7.49931 16.2436 7.43302 16.346 7.34363C16.4483 7.25425 16.5302 7.14387 16.586 7.02001C16.668 6.84401 16.679 6.76001 16.68 6.31001V5.80001H17.621C18.38 5.80001 18.591 5.81201 18.711 5.86201C18.803 5.89723 18.887 5.95062 18.958 6.019C19.0289 6.08738 19.0854 6.16934 19.124 6.26001C19.192 6.40601 19.198 6.54401 19.199 7.81001L19.2 9.20001H5V7.81901C5 6.33701 5.008 6.26701 5.212 6.04501C5.415 5.82401 5.538 5.80201 6.57 5.80101L7.52 5.80001V6.31001V6.31001ZM19.199 15.29C19.198 19.181 19.195 19.388 19.124 19.54C19.0854 19.6307 19.0289 19.7126 18.958 19.781C18.887 19.8494 18.803 19.9028 18.711 19.938C18.579 19.993 17.843 20 12.1 20C6.357 20 5.621 19.993 5.489 19.938C5.39697 19.9028 5.31297 19.8494 5.24202 19.781C5.17106 19.7126 5.1146 19.6307 5.076 19.54C5.005 19.388 5.002 19.181 5.001 15.29L5 11.2H19.2L19.199 15.29" fill="black"/>
</svg>
