<svg xmlns="http://www.w3.org/2000/svg" width="69.253" height="66.367" viewBox="0 0 69.253 66.367">
  <g id="capital_star" fill="#464655">
    <path d="M 54.35258483886719 64.55656433105469 C 54.25741577148438 64.55657196044922 54.16493606567383 64.52713775634766 54.07771682739258 64.46906280517578 L 35.45754623413086 52.07327651977539 C 35.21050643920898 51.9088249206543 34.92307662963867 51.82190322875977 34.62631607055664 51.82190322875977 C 34.32954788208008 51.82190322875977 34.0421142578125 51.9088249206543 33.79508590698242 52.07327651977539 L 15.17491626739502 64.46906280517578 C 15.08770561218262 64.52712249755859 14.99521636962891 64.55656433105469 14.90001583099365 64.55656433105469 C 14.74661636352539 64.55656433105469 14.59103584289551 64.47751617431641 14.49399566650391 64.35027313232422 C 14.42816638946533 64.26395416259766 14.3611364364624 64.11933135986328 14.41565608978271 63.92059326171875 L 20.36790657043457 42.22160339355469 C 20.52618598937988 41.64461517333984 20.32699584960938 41.02974319458008 19.86046600341797 40.65516662597656 L 2.380426168441772 26.62005424499512 C 2.130236148834229 26.41917419433594 2.193006038665771 26.15197563171387 2.218206167221069 26.07486534118652 C 2.243406057357788 25.99776458740234 2.350526094436646 25.74506568908691 2.671066045761108 25.73068428039551 L 24.98432540893555 24.72985458374023 C 25.5871467590332 24.70281410217285 26.11260604858398 24.31990432739258 26.3229866027832 23.75435447692871 L 34.15768432617188 2.693764925003052 C 34.27010726928711 2.391584873199463 34.54480743408203 2.368094921112061 34.62631607055664 2.368094921112061 C 34.70782470703125 2.368094921112061 34.98252487182617 2.391584873199463 35.09494781494141 2.693764925003052 L 42.92965698242188 23.75434494018555 C 43.14003753662109 24.31989479064941 43.66548538208008 24.70280456542969 44.26829528808594 24.72984504699707 L 66.58157348632812 25.73067474365234 C 66.90210723876953 25.74505424499512 67.00923919677734 25.99775505065918 67.03443908691406 26.07486534118652 C 67.05962371826172 26.15197563171387 67.12239837646484 26.41916465759277 66.87220764160156 26.62004470825195 L 49.39216613769531 40.65516662597656 C 48.92563629150391 41.02974319458008 48.72644424438477 41.64461517333984 48.88472747802734 42.22160339355469 L 54.83697509765625 63.92059326171875 C 54.89147567749023 64.11928558349609 54.82445526123047 64.26388549804688 54.75863647460938 64.35020446777344 C 54.66157531738281 64.47747802734375 54.50598526000977 64.55655670166016 54.35258483886719 64.55656433105469 Z" stroke="none"/>
    <path d="M 34.62631607055664 2.86810302734375 L 34.62631607055664 2.868095397949219 L 26.7916145324707 23.92868423461914 C 26.5110969543457 24.68275451660156 25.81049728393555 25.19329452514648 25.00673675537109 25.22935485839844 L 2.693466186523438 26.23017501831055 C 2.693466186523438 26.23017501831055 2.693466186523438 26.23017501831055 2.693466186523438 26.23017501831055 L 20.17351531982422 40.26528549194336 C 20.79555511474609 40.76474761962891 21.06112670898438 41.58456420898438 20.85009765625 42.35387420654297 L 14.89783477783203 64.05286407470703 C 14.89783477783203 64.05287170410156 14.89783477783203 64.05287933349609 14.89784622192383 64.05286407470703 L 33.51801681518555 51.65706634521484 C 33.84738540649414 51.43780517578125 34.23062515258789 51.32190704345703 34.62631607055664 51.32190704345703 C 35.02198791503906 51.32190704345703 35.40521621704102 51.43779373168945 35.73461532592773 51.65707397460938 L 54.35477447509766 64.0528564453125 C 54.35477828979492 64.0528564453125 54.35477447509766 64.05283355712891 54.35478591918945 64.05286407470703 L 48.40254592895508 42.35387420654297 C 48.19150543212891 41.58456420898438 48.45707702636719 40.76474761962891 49.07912445068359 40.26527404785156 L 66.55916595458984 26.23017501831055 L 44.24589538574219 25.22934341430664 C 43.44214630126953 25.19328689575195 42.74154663085938 24.68274688720703 42.46102523803711 23.92867660522461 L 34.62631607055664 2.86810302734375 C 34.62631607055664 2.86810302734375 34.62631607055664 2.86810302734375 34.62631607055664 2.86810302734375 M 34.62631607055664 1.868087768554688 C 35.01417541503906 1.868087768554688 35.40203094482422 2.085205078125 35.56356430053711 2.519432067871094 L 43.39827728271484 23.58001327514648 C 43.53824615478516 23.95627593994141 43.88965606689453 24.21235656738281 44.29070663452148 24.2303466796875 L 66.60397338867188 25.23117446899414 C 67.52516937255859 25.27249526977539 67.90427398681641 26.4326057434082 67.18524932861328 27.00992584228516 L 49.70520782470703 41.04503631591797 C 49.39438629150391 41.29460525512695 49.26146697998047 41.70492553710938 49.36691665649414 42.08933258056641 L 55.31916809082031 63.78832626342773 C 55.56383514404297 64.68027496337891 54.57053375244141 65.39781188964844 53.80063629150391 64.88527679443359 L 35.18046569824219 52.48948669433594 C 34.84481811523438 52.26604461669922 34.40780639648438 52.26604461669922 34.07216644287109 52.48948669433594 L 15.45199584960938 64.88527679443359 C 14.68209838867188 65.39781951904297 13.68879699707031 64.68027496337891 13.93346786499023 63.78832626342773 L 19.88571548461914 42.08933258056641 C 19.99116516113281 41.70492553710938 19.85824584960938 41.29460525512695 19.54742431640625 41.04503631591797 L 2.0673828125 27.00993347167969 C 1.348342895507812 26.4326057434082 1.727462768554688 25.27249526977539 2.648658752441406 25.23117446899414 L 24.9619255065918 24.23035430908203 C 25.36297607421875 24.21236419677734 25.71439743041992 23.95628356933594 25.85436630249023 23.58002471923828 L 33.68906784057617 2.519432067871094 C 33.85060119628906 2.085205078125 34.23845672607422 1.868087768554688 34.62631607055664 1.868087768554688 Z" stroke="none" fill="#f4f4f9"/>
  </g>
</svg>
