<svg width="24" height="24" viewBox="0 0 24 24" fill="none" xmlns="http://www.w3.org/2000/svg">
<path fill-rule="evenodd" clip-rule="evenodd" d="M10.6185 5.73013C9.13209 9.7325 9.18511 9.61502 8.81915 9.71448C8.73147 9.73839 6.97686 9.83092 4.92005 9.91999C2.8629 10.0094 1.12908 10.0863 1.0667 10.0912C0.969321 10.0988 1.38207 10.444 4.03356 12.5725C6.28409 14.3795 7.13038 15.0812 7.17682 15.1786C7.21148 15.2521 7.23989 15.3886 7.23989 15.4819C7.23989 15.5803 6.80947 17.2209 6.21894 19.3726C5.65718 21.419 5.20284 23.1082 5.20873 23.1262C5.21497 23.1442 6.69199 22.178 8.49096 20.9793L11.7621 18.8001H12.2386L15.5094 20.98C17.3084 22.1787 18.785 23.1449 18.7909 23.1272C18.7968 23.1092 18.3425 21.4197 17.7811 19.3726C17.193 17.2292 16.7601 15.5792 16.7601 15.4815C16.7601 15.3883 16.7885 15.2521 16.8235 15.1786C16.87 15.0805 17.7135 14.3812 19.9668 12.5725L23.0466 10.0998L22.4935 10.0721C22.1889 10.0569 20.4551 9.97994 18.6398 9.90127C16.8249 9.8226 15.2685 9.73839 15.1809 9.71483C14.8149 9.61502 14.8679 9.7325 13.3815 5.73013C12.6358 3.72254 12.0144 2.07986 12.0002 2.07986C11.9856 2.07986 11.3642 3.72254 10.6185 5.73013" fill="black"/>
</svg>
