<svg width="24" height="24" viewBox="0 0 24 24" fill="none" xmlns="http://www.w3.org/2000/svg">
<g clip-path="url(#clip0_3:21)">
<path fill-rule="evenodd" clip-rule="evenodd" d="M2.65083 0.0588002C1.96851 0.180939 1.33574 0.496833 0.828041 0.968779C0.320348 1.44073 -0.0408243 2.04879 -0.212368 2.7204L-0.302368 3.06V20.94L-0.212368 21.2796C-0.0499979 21.9081 0.277701 22.4816 0.736681 22.9406C1.19566 23.3995 1.76917 23.7272 2.39763 23.8896L2.73723 23.9796H20.6172L20.9568 23.8896C21.5853 23.7272 22.1588 23.3995 22.6178 22.9406C23.0768 22.4816 23.4045 21.9081 23.5668 21.2796L23.6568 20.94V3.06L23.5668 2.7204C23.226 1.4388 22.272 0.4776 20.9772 0.1104L20.6568 0.0204002L11.7972 0.0132002C4.65483 0.00840022 2.88123 0.0168002 2.65083 0.0588002ZM20.5596 2.5044C20.8163 2.61826 21.024 2.81994 21.1452 3.0732L21.2568 3.3V20.7L21.1728 20.8824C21.059 21.1391 20.8573 21.3467 20.604 21.468L20.3772 21.5796H2.97723L2.75043 21.468C2.49718 21.3467 2.29549 21.1391 2.18163 20.8824L2.09763 20.7L2.08563 12.12C2.07603 5.9976 2.08563 3.4812 2.11683 3.3348C2.15927 3.1362 2.25309 2.95221 2.38891 2.80122C2.52474 2.65024 2.69781 2.53754 2.89083 2.4744C3.08643 2.406 3.52443 2.4024 11.7372 2.4108L20.3772 2.4204L20.5596 2.5044ZM7.69083 7.272C7.01043 7.5144 6.70323 8.2416 6.99723 8.91C7.06323 9.0588 7.39443 9.414 8.52843 10.5492L9.97563 12L8.51163 13.47C6.87843 15.1104 6.89763 15.0852 6.89763 15.6204C6.89763 16.284 7.38843 16.7748 8.05683 16.7784C8.59083 16.7808 8.56563 16.8012 10.2072 15.1656L11.6772 13.7028L13.1472 15.1656C14.7876 16.7988 14.7624 16.7796 15.2976 16.7796C15.9612 16.7796 16.452 16.2888 16.4556 15.6204C16.458 15.0864 16.4784 15.1116 14.8428 13.47L13.38 12L14.8428 10.53C16.4784 8.8884 16.458 8.9136 16.4556 8.3796C16.452 7.7112 15.9612 7.2204 15.2976 7.2204C14.7624 7.2204 14.7876 7.2012 13.1472 8.8344L11.6772 10.2984L10.2264 8.8512C8.64723 7.2732 8.61003 7.2444 8.13963 7.2132C7.98754 7.20025 7.83445 7.2203 7.69083 7.272" fill="black"/>
</g>
<defs>
<clipPath id="clip0_3:21">
<rect width="24" height="24" fill="white"/>
</clipPath>
</defs>
</svg>
