<svg width="24" height="24" viewBox="0 0 24 24" fill="none" xmlns="http://www.w3.org/2000/svg">
<path fill-rule="evenodd" clip-rule="evenodd" d="M12.2427 2.20133C10.8943 2.31318 9.58286 2.69916 8.38883 3.3356C7.1948 3.97205 6.14328 4.84558 5.29868 5.90267C4.65157 6.7395 4.13421 7.66904 3.76402 8.66C2.95977 10.8801 2.98297 13.3157 3.82935 15.52L3.97202 15.9L3.07868 18.58C2.10135 21.5147 2.10535 21.4973 2.26002 21.96C2.36268 22.268 2.73202 22.6373 3.04002 22.74C3.50935 22.8973 3.49068 22.9013 6.43068 21.92L9.11202 21.0253L9.42535 21.1493C10.7103 21.6503 12.0865 21.8747 13.4641 21.8078C14.8416 21.741 16.1896 21.3844 17.42 20.7613C18.9429 20.0073 20.2372 18.8608 21.1694 17.44C21.9819 16.2231 22.5126 14.8401 22.7227 13.392C22.828 12.6907 22.8494 11.352 22.7667 10.76C22.448 8.50133 21.5094 6.58667 19.9614 5.03867C18.4054 3.48267 16.5027 2.548 14.26 2.23867C13.5896 2.17322 12.9151 2.16074 12.2427 2.20133V2.20133ZM14.4574 4.95467C17.3067 5.57333 19.4094 7.67467 20.0467 10.5427C20.1254 10.8907 20.136 11.06 20.1374 11.92C20.14 12.784 20.1294 12.952 20.0494 13.3453C19.424 16.4333 16.9147 18.764 13.832 19.1227C13.2507 19.1907 12.1694 19.152 11.632 19.044C11.0434 18.915 10.4697 18.7256 9.92002 18.4787C9.61602 18.3413 9.48402 18.304 9.26002 18.2907C8.98935 18.276 8.92668 18.2933 7.30268 18.8373C6.38002 19.1453 5.62002 19.3933 5.61335 19.3867C5.60668 19.38 5.85468 18.62 6.16268 17.6973C6.70802 16.0707 6.72402 16.012 6.70802 15.74C6.69468 15.5107 6.65602 15.3773 6.48802 15C6.04668 14.0067 5.88135 13.292 5.85068 12.256C5.82668 11.4307 5.87735 10.9293 6.06002 10.22C6.77602 7.432 9.06402 5.36267 11.94 4.90133C12.5 4.812 13.9374 4.84267 14.4574 4.95467" fill="black"/>
</svg>
