<svg id="comments" xmlns="http://www.w3.org/2000/svg" width="18" height="18" viewBox="0 0 18 18">
  <rect id="container" width="18" height="18" fill="#fff" opacity="0"/>
  <path id="Icon_feather-message-circle" data-name="Icon feather-message-circle" d="M18,10.875a6.285,6.285,0,0,1-.675,2.85,6.375,6.375,0,0,1-5.7,3.525,6.285,6.285,0,0,1-2.85-.675L4.5,18l1.425-4.275a6.285,6.285,0,0,1-.675-2.85,6.375,6.375,0,0,1,3.525-5.7,6.285,6.285,0,0,1,2.85-.675H12a6.36,6.36,0,0,1,6,6Z" transform="translate(-1.875 -1.875)" fill="none" stroke="#464655" stroke-linecap="round" stroke-linejoin="round" stroke-width="2"/>
</svg>
