<svg width="24" height="24" viewBox="0 0 24 24" fill="none" xmlns="http://www.w3.org/2000/svg">
<path fill-rule="evenodd" clip-rule="evenodd" d="M14.282 2.58C13.888 2.759 13.67 3.087 13.67 3.5C13.67 3.892 13.869 4.21 14.232 4.397C14.282 4.424 14.534 4.48 14.792 4.523C16.281 4.773 17.467 5.361 18.495 6.356C19.571 7.399 20.213 8.647 20.483 10.219C20.59 10.843 20.724 11.058 21.12 11.237C21.622 11.464 22.302 11.149 22.445 10.622C22.6 10.055 22.172 8.376 21.578 7.217C21.1729 6.42014 20.6429 5.69327 20.008 5.064C19.0106 4.03758 17.7693 3.28068 16.4 2.864C15.467 2.573 14.564 2.452 14.282 2.58V2.58ZM4.77501 3.402C4.22386 3.50272 3.716 3.76763 3.31801 4.162C2.64101 4.831 2.41501 5.644 2.57801 6.82C3.05801 10.279 4.47301 13.45 6.75401 16.18C7.16901 16.677 8.37301 17.872 8.88001 18.29C11.501 20.454 14.363 21.773 17.666 22.34C18.918 22.555 19.477 22.518 20.166 22.173C20.775 21.868 21.286 21.274 21.483 20.64C21.626 20.182 21.647 19.839 21.63 18.237C21.613 16.539 21.607 16.489 21.34 15.94C21.0196 15.3031 20.463 14.8165 19.789 14.584C19.5385 14.5176 19.2848 14.4636 19.029 14.422C18.4068 14.3195 17.7948 14.1626 17.2 13.953C16.702 13.782 16.698 13.782 16.12 13.781C15.591 13.781 15.514 13.79 15.247 13.888C14.802 14.049 14.546 14.221 14.08 14.668L13.656 15.075L13.158 14.712C12.6377 14.3477 12.152 13.9363 11.707 13.483C11.043 12.833 10.375 12.038 9.98201 11.43L9.91101 11.32L10.328 10.885C10.99 10.195 11.221 9.662 11.216 8.84C11.213 8.397 11.205 8.356 11.004 7.741C10.761 7.001 10.674 6.652 10.537 5.873C10.43 5.262 10.305 4.911 10.063 4.547C9.74701 4.072 9.17601 3.66 8.56701 3.469C8.31601 3.39 8.19801 3.385 6.64001 3.376C5.72701 3.371 4.88801 3.383 4.77501 3.402V3.402ZM8.13201 5.425C8.43901 5.58 8.50001 5.698 8.60301 6.332C8.69801 6.913 8.91801 7.791 9.10501 8.328C9.25401 8.758 9.27301 8.979 9.17501 9.172C9.14001 9.242 8.81801 9.597 8.46001 9.96C8.10201 10.323 7.78901 10.66 7.76401 10.709C7.6784 10.9111 7.65137 11.1332 7.68601 11.35C7.72701 11.572 8.11901 12.244 8.60101 12.92C9.77177 14.5544 11.2614 15.9348 12.98 16.978C13.222 17.123 13.492 17.261 13.58 17.285C13.774 17.338 14.069 17.308 14.248 17.217C14.321 17.181 14.686 16.849 15.06 16.48C15.937 15.615 15.923 15.62 16.7 15.882C17.296 16.084 18.131 16.292 18.704 16.381C18.944 16.419 19.187 16.473 19.244 16.503C19.401 16.583 19.593 16.822 19.62 16.969C19.633 17.041 19.639 17.758 19.632 18.563L19.62 20.026L19.522 20.169C19.313 20.474 19.093 20.535 18.486 20.456C14.487 19.939 10.621 17.784 8.06701 14.647C6.17301 12.321 4.92201 9.435 4.54301 6.517C4.45801 5.868 4.54101 5.617 4.89701 5.441C5.05201 5.364 5.13601 5.36 6.53201 5.36C7.81001 5.36 8.02101 5.369 8.13201 5.425V5.425ZM14.282 6.023C13.729 6.263 13.506 6.884 13.785 7.405C13.933 7.681 14.176 7.847 14.567 7.939C14.952 8.029 15.6 8.345 15.899 8.588C16.43 9.019 16.876 9.714 17.034 10.36C17.163 10.884 17.325 11.106 17.691 11.259C17.874 11.335 18.24 11.338 18.417 11.264C18.629 11.175 18.863 10.938 18.96 10.711C19.0277 10.5713 19.0514 10.4144 19.028 10.261C18.975 9.651 18.539 8.628 18.066 8C17.587 7.365 16.915 6.796 16.25 6.462C15.403 6.037 14.641 5.867 14.282 6.023" fill="black"/>
</svg>
