<svg width="24" height="24" viewBox="0 0 24 24" fill="none" xmlns="http://www.w3.org/2000/svg">
<path fill-rule="evenodd" clip-rule="evenodd" d="M11.7999 1.8429C11.6832 1.8918 11.5323 2.0262 11.4663 2.1399C11.4321 2.1993 11.4147 3.717 11.4 7.9668L11.3799 13.7136L9.2343 11.5791C8.0544 10.4049 7.0284 9.4074 6.9543 9.3624C6.687 9.1992 6.3285 9.2928 6.1599 9.5697C6.0699 9.7173 6.057 9.9738 6.1329 10.1103C6.1605 10.1601 7.4313 11.4513 8.9571 12.9795C11.9358 15.9639 11.8005 15.8451 12.15 15.7815C12.2826 15.7575 12.6141 15.441 14.9946 13.0671C16.4766 11.5893 17.7411 10.2999 17.8044 10.2021C17.9439 9.9876 17.9565 9.7605 17.8401 9.5697C17.6823 9.3108 17.3379 9.2046 17.088 9.3375C17.0286 9.369 15.999 10.377 14.7999 11.5776L12.6201 13.7604L12.6 7.983C12.5802 2.226 12.5796 2.2056 12.4974 2.0955C12.3162 1.8525 12.027 1.7478 11.7999 1.8429ZM2.178 14.6541C2.0163 14.7273 1.8489 14.9313 1.8192 15.0912C1.806 15.162 1.8021 16.2819 1.8099 17.58C1.8264 20.2182 1.8135 20.0889 2.1255 20.7195C2.3718 21.2178 2.8089 21.6459 3.3228 21.8916C3.5301 21.9909 3.7989 22.0965 3.9201 22.1262C4.2462 22.206 19.7538 22.206 20.0799 22.1262C20.2011 22.0965 20.4699 21.9909 20.6772 21.8916C20.991 21.7416 21.1098 21.6558 21.3828 21.3828C21.6558 21.1098 21.7416 20.991 21.8916 20.6772C22.188 20.058 22.1799 20.1492 22.1799 17.433C22.1799 15.0441 22.1787 15.0042 22.0974 14.8953C21.9498 14.6976 21.8097 14.6199 21.6 14.6199C21.3903 14.6199 21.2502 14.6973 21.1026 14.8953C21.0219 15.0033 21.0195 15.06 21 17.4339L20.9799 19.8618L20.8503 20.1252C20.6852 20.4512 20.4176 20.7138 20.0886 20.8728L19.86 20.9799H4.14L3.9114 20.8728C3.58241 20.7138 3.31478 20.4512 3.1497 20.1252L3.0201 19.8618L3 17.4339C2.9805 15.06 2.9781 15.0033 2.8974 14.8953C2.7078 14.6415 2.4195 14.5449 2.178 14.6541" fill="black"/>
</svg>
