<svg width="24" height="24" viewBox="0 0 24 24" fill="none" xmlns="http://www.w3.org/2000/svg">
<path fill-rule="evenodd" clip-rule="evenodd" d="M2.97771 5.88172C1.956 6.20572 1.49314 7.41258 2.028 8.36058C2.15485 8.58515 11.2971 17.748 11.5697 17.9263C12.1011 18.2691 12.8006 18.2863 13.3594 17.9726C13.584 17.8457 22.7486 8.70515 22.9251 8.42915C23.1071 8.14247 23.2009 7.80865 23.1948 7.46914C23.1887 7.12963 23.083 6.79939 22.8909 6.51943C22.6421 6.17464 22.2749 5.93377 21.8595 5.84298C21.4442 5.7522 21.0099 5.81787 20.64 6.02743C20.5269 6.09086 18.9789 7.60972 16.4794 10.104L12.4989 14.0794L8.55943 10.1383C6.39257 7.97143 4.53428 6.14229 4.42971 6.07372C4.01485 5.80629 3.45257 5.73086 2.97771 5.88172Z" fill="black"/>
</svg>
