<svg width="24" height="24" viewBox="0 0 24 24" fill="none" xmlns="http://www.w3.org/2000/svg">
<path fill-rule="evenodd" clip-rule="evenodd" d="M4.37899 4.04301C3.84881 4.12903 3.35408 4.36419 2.95263 4.72102C2.55118 5.07784 2.2596 5.54158 2.11199 6.05801L2.01999 6.38001V18.02L2.11199 18.342C2.24501 18.8046 2.49335 19.2259 2.83373 19.5663C3.17411 19.9066 3.59537 20.155 4.05799 20.288L4.37999 20.38H19.62L19.942 20.288C20.4046 20.155 20.8259 19.9066 21.1662 19.5663C21.5066 19.2259 21.755 18.8046 21.888 18.342L21.98 18.02V6.38001L21.888 6.05801C21.675 5.31601 21.139 4.65801 20.48 4.32901C19.801 3.99101 20.596 4.02101 12.12 4.01501C7.97299 4.01101 4.48899 4.02401 4.37899 4.04301V4.04301ZM19.631 6.12901C19.964 6.35001 20.269 6.10201 15.936 9.13401L12 11.888L8.20999 9.23601C6.12499 7.77701 4.35299 6.53601 4.27099 6.47701L4.12099 6.36901L4.19999 6.26901C4.27145 6.19316 4.35574 6.13053 4.44899 6.08401L4.61999 6.00001L12.043 6.01001L19.466 6.02001L19.631 6.12901ZM7.83699 11.399C9.82599 12.791 11.527 13.963 11.617 14.004C11.817 14.095 12.145 14.101 12.354 14.018C12.439 13.984 14.19 12.779 16.244 11.341L19.98 8.72601L19.99 13.253L20 17.78L19.908 17.96C19.8421 18.0775 19.7522 18.1797 19.644 18.26L19.473 18.38L12.043 18.39L4.61399 18.401L4.43699 18.307C4.32145 18.2396 4.22049 18.1498 4.13999 18.043L4.01999 17.873L4.00899 13.293L3.99899 8.71401L4.10899 8.79101L7.83699 11.399" fill="black"/>
</svg>
