<svg width="24" height="24" viewBox="0 0 24 24" fill="none" xmlns="http://www.w3.org/2000/svg">
<g clip-path="url(#clip0_3:32)">
<path fill-rule="evenodd" clip-rule="evenodd" d="M14.8478 0.0787002C14.4339 0.224482 14.0918 0.719437 14.0918 1.17324C14.0918 1.45775 14.2317 1.78576 14.4433 1.99738C14.7937 2.34773 14.8031 2.34891 17.2861 2.34891H19.4752L13.9202 7.9098C8.81895 13.0169 8.35926 13.4895 8.2899 13.7023C8.13941 14.1608 8.23817 14.6028 8.565 14.9297C8.89184 15.2565 9.33389 15.3553 9.7924 15.2048C10.0052 15.1354 10.4778 14.6757 15.5849 9.57454L21.1458 4.01952V6.20861C21.1458 8.69161 21.147 8.70102 21.4973 9.05137C21.6049 9.16064 21.7332 9.24741 21.8747 9.30664C22.0162 9.36587 22.1681 9.39637 22.3214 9.39637C22.4748 9.39637 22.6267 9.36587 22.7682 9.30664C22.9097 9.24741 23.0379 9.16064 23.1456 9.05137C23.5124 8.68573 23.4971 8.86679 23.4971 4.70023C23.4971 0.533682 23.5124 0.714734 23.1456 0.349103C22.7788 -0.0177042 22.9645 -0.00242059 18.7745 0.00110641C15.5332 0.0046334 15.0288 0.0140387 14.8478 0.0787002ZM3.06407 3.55396C2.5844 3.64802 2.43744 3.68799 2.18233 3.79145C1.15597 4.20881 0.355344 5.14228 0.0731851 6.25211C-0.024395 6.63773 -0.024395 20.3977 0.0731851 20.7833C0.234777 21.4198 0.565171 22.0009 1.02951 22.4652C1.49384 22.9295 2.0749 23.2599 2.71137 23.4215C3.09817 23.5203 16.8581 23.5191 17.2426 23.4215C18.5335 23.09 19.4517 22.1929 19.869 20.8539C19.9325 20.6505 19.9443 20.0873 19.9584 16.6979C19.976 12.2692 19.9913 12.4784 19.6198 12.1069C19.5122 11.9974 19.3839 11.9104 19.2423 11.8509C19.1008 11.7915 18.9488 11.7608 18.7953 11.7607C18.6418 11.7606 18.4898 11.7911 18.3481 11.8503C18.2065 11.9095 18.0781 11.9964 17.9703 12.1057C17.6035 12.4714 17.6188 12.2903 17.6188 16.4569C17.6188 20.6234 17.6341 20.4424 17.2673 20.808C16.8899 21.1854 17.4342 21.1595 9.97698 21.1595C2.51974 21.1595 3.06407 21.1854 2.68669 20.808C2.3093 20.4306 2.33516 20.9749 2.33516 13.5177C2.33516 6.06048 2.3093 6.60481 2.68669 6.22742C3.05232 5.86061 2.87127 5.8759 7.03782 5.8759C11.2044 5.8759 11.0233 5.89118 11.3889 5.52437C11.4982 5.41673 11.585 5.28844 11.6442 5.14695C11.7034 5.00547 11.734 4.85362 11.734 4.70023C11.734 4.54685 11.7034 4.395 11.6442 4.25351C11.585 4.11203 11.4982 3.98373 11.3889 3.87609C11.0221 3.50811 11.2173 3.52339 6.94729 3.53045C4.86284 3.5328 3.1158 3.54338 3.06407 3.55396" fill="black"/>
</g>
<defs>
<clipPath id="clip0_3:32">
<rect width="24" height="24" fill="white"/>
</clipPath>
</defs>
</svg>
