<svg width="24" height="24" viewBox="0 0 24 24" fill="none" xmlns="http://www.w3.org/2000/svg">
<g clip-path="url(#clip0_3:4)">
<path d="M24 12.0734C23.9997 9.76621 23.3424 7.50736 22.1058 5.56432C20.8692 3.62128 19.1051 2.07542 17.0225 1.10975C14.9398 0.144082 12.6257 -0.200953 10.3542 0.115492C8.08263 0.431937 5.94878 1.39661 4.20524 2.89531C2.4617 4.394 1.18149 6.36396 0.516158 8.57196C-0.149172 10.78 -0.171753 13.1335 0.451088 15.354C1.07393 17.5745 2.31611 19.569 4.03057 21.1013C5.74503 22.6336 7.85996 23.6395 10.125 24V15.5637H7.078V12.0734H10.125V9.41326C10.125 6.38685 11.917 4.71568 14.658 4.71568C15.5578 4.72817 16.4556 4.80685 17.344 4.95112V7.9232H15.831C15.5731 7.88864 15.3108 7.9129 15.0635 7.99419C14.8162 8.07547 14.5903 8.2117 14.4024 8.39278C14.2146 8.57386 14.0696 8.79515 13.9783 9.04025C13.887 9.28534 13.8517 9.54797 13.875 9.80867V12.0734H17.2L16.668 15.5637H13.868V24C16.692 23.5522 19.2644 22.1048 21.1219 19.9183C22.9795 17.7317 24.0001 14.9498 24 12.0734V12.0734Z" fill="black"/>
</g>
<defs>
<clipPath id="clip0_3:4">
<rect width="24" height="24" fill="white"/>
</clipPath>
</defs>
</svg>
