<svg xmlns="http://www.w3.org/2000/svg" width="26" height="26" viewBox="0 0 26 26">
  <g id="f_instagram" transform="translate(-2 -2)">
    <path id="Path_3" data-name="Path 3" d="M9,3H21a6,6,0,0,1,6,6V21a6,6,0,0,1-6,6H9a6,6,0,0,1-6-6V9A6,6,0,0,1,9,3Z" fill="none" stroke="#464655" stroke-linecap="round" stroke-linejoin="round" stroke-width="2"/>
    <path id="Path_4" data-name="Path 4" d="M21.613,16.031a4.8,4.8,0,1,1-4.044-4.044,4.8,4.8,0,0,1,4.044,4.044Z" transform="translate(-1.813 -1.787)" fill="none" stroke="#464655" stroke-linecap="round" stroke-linejoin="round" stroke-width="2"/>
    <path id="Path_5" data-name="Path 5" d="M26.25,9.75h0" transform="translate(-4.65 -1.35)" fill="none" stroke="#464655" stroke-linecap="round" stroke-linejoin="round" stroke-width="2"/>
  </g>
</svg>
