<svg width="24" height="24" viewBox="0 0 24 24" fill="none" xmlns="http://www.w3.org/2000/svg">
<g clip-path="url(#clip0_3:33)">
<path fill-rule="evenodd" clip-rule="evenodd" d="M5.79969 0.0429735C4.70119 0.159251 3.6507 0.554653 2.74817 1.19157C1.84563 1.82848 1.12106 2.68572 0.643385 3.68174C0.314198 4.35931 0.110002 5.09072 0.0406155 5.84082C-0.0147691 6.3762 -0.012923 17.6221 0.0424616 18.1667C0.150862 19.2718 0.542785 20.3302 1.18028 21.2393C1.81777 22.1485 2.67923 22.8777 3.68123 23.3562C4.36129 23.685 5.09469 23.8894 5.84677 23.9599C6.34892 24.0125 17.6492 24.0125 18.1597 23.9599C20.4351 23.7236 22.3948 22.351 23.3548 20.3193C23.6963 19.5965 23.8745 18.9559 23.9594 18.1537C24.0148 17.6276 24.0129 6.37897 23.9575 5.83436C23.8492 4.72912 23.4573 3.67058 22.8198 2.76124C22.1823 1.8519 21.3208 1.12258 20.3188 0.643897C19.6412 0.31471 18.9098 0.110514 18.1597 0.0411273C17.7028 -0.00594961 6.24646 -0.00410346 5.79969 0.0429735V0.0429735ZM18.24 1.89836C19.2107 2.048 20.1084 2.5031 20.8029 3.19759C21.4974 3.89208 21.9525 4.78982 22.1022 5.76051C22.188 6.32636 22.188 17.6747 22.1022 18.2405C21.8012 20.2196 20.2209 21.8045 18.2502 22.1008C17.6732 22.1885 6.33138 22.1894 5.76 22.1027C4.90313 21.9677 4.10101 21.5961 3.44406 21.0296C2.78711 20.4632 2.30145 19.7245 2.04185 18.8968C1.83785 18.2359 1.84062 18.3301 1.84062 12.0005C1.84062 5.67097 1.83785 5.76513 2.04185 5.1042C2.30098 4.27996 2.78392 3.54388 3.43684 2.978C4.08976 2.41212 4.88699 2.03867 5.73969 1.89928C6.24369 1.81897 17.7157 1.81897 18.24 1.89836V1.89836ZM17.6926 5.09774C17.1415 5.35436 17.0123 6.07713 17.4351 6.53405C17.8588 6.99282 18.6397 6.8719 18.9028 6.3079C18.9882 6.13858 19.018 5.94663 18.988 5.75939C18.9579 5.57214 18.8696 5.39915 18.7355 5.26505C18.6014 5.13096 18.4284 5.04259 18.2411 5.01255C18.0539 4.98251 17.8619 5.01232 17.6926 5.09774V5.09774ZM11.4 6.64297C10.2593 6.78791 9.1952 7.29475 8.36383 8.08906C7.53246 8.88338 6.97767 9.92333 6.78092 11.0562C6.70154 11.5177 6.70246 12.4085 6.78185 12.8654C6.97629 13.9559 7.5027 14.9597 8.28914 15.7397C9.07558 16.5197 10.0837 17.0378 11.1757 17.2233C11.7609 17.3221 12.7505 17.2861 13.3117 17.1448C15.0923 16.6962 16.4742 15.4473 17.0788 13.7405C17.3068 13.0953 17.3732 12.6984 17.3742 11.9608C17.3751 11.0073 17.2283 10.3777 16.812 9.54236C16.5637 9.03382 16.2278 8.57295 15.8197 8.18082C15.0852 7.43012 14.1402 6.91995 13.1095 6.71774C12.6388 6.62174 11.8468 6.58667 11.4 6.64297V6.64297ZM13.02 8.57959C15.0203 9.16851 16.0809 11.3488 15.3018 13.2688C15.0818 13.7973 14.7386 14.2655 14.3009 14.6345C13.8632 15.0035 13.3436 15.2625 12.7855 15.3901C12.3942 15.4759 11.6991 15.4741 11.3114 15.3854C10.6643 15.2445 10.0699 14.9244 9.59624 14.4616C9.12253 13.9988 8.7886 13.4121 8.63262 12.7685C8.51538 12.2904 8.51631 11.5547 8.63538 11.1005C8.8022 10.4647 9.14097 9.8871 9.6145 9.43116C10.088 8.97522 10.678 8.65855 11.3197 8.5159C11.8108 8.4079 12.5271 8.43467 13.02 8.57959" fill="black"/>
</g>
<defs>
<clipPath id="clip0_3:33">
<rect width="24" height="24" fill="white"/>
</clipPath>
</defs>
</svg>
