<svg width="24" height="24" viewBox="0 0 24 24" fill="none" xmlns="http://www.w3.org/2000/svg">
<g clip-path="url(#clip0_3:6)">
<path d="M6.86099 20.569C6.86099 21.2476 6.65977 21.9109 6.28277 22.4752C5.90576 23.0394 5.36991 23.4792 4.74298 23.7388C4.11605 23.9985 3.42619 24.0665 2.76064 23.9341C2.09509 23.8017 1.48375 23.4749 1.00391 22.9951C0.524077 22.5153 0.197306 21.9039 0.0649202 21.2384C-0.0674657 20.5728 0.000479519 19.883 0.260164 19.256C0.519848 18.6291 0.959608 18.0932 1.52383 17.7162C2.08806 17.3392 2.75141 17.138 3.42999 17.138C4.33995 17.138 5.21264 17.4995 5.85608 18.1429C6.49951 18.7864 6.86099 19.6591 6.86099 20.569V20.569ZM16.271 23.1C16.051 19.0948 14.361 15.3115 11.5247 12.475C8.68835 9.63855 4.90521 7.94827 0.899994 7.72801C0.783852 7.72203 0.667709 7.73978 0.558654 7.78018C0.4496 7.82057 0.34992 7.88277 0.265699 7.96297C0.181477 8.04316 0.114481 8.13968 0.0687984 8.24663C0.0231157 8.35358 -0.000295152 8.46871 -5.53566e-06 8.58501V11.16C-0.000503826 11.3779 0.0818881 11.5877 0.230455 11.7471C0.379022 11.9064 0.582638 12.0033 0.799994 12.018C3.70286 12.21 6.43712 13.45 8.49406 15.5073C10.551 17.5646 11.7905 20.2991 11.982 23.202C11.9967 23.4194 12.0936 23.623 12.2529 23.7715C12.4123 23.9201 12.6221 24.0025 12.84 24.002H15.415C15.5315 24.0023 15.6468 23.9788 15.7539 23.933C15.861 23.8872 15.9576 23.8201 16.0378 23.7356C16.118 23.6512 16.1802 23.5513 16.2204 23.442C16.2607 23.3327 16.2783 23.2163 16.272 23.1H16.271ZM24 23.116C23.7764 17.0567 21.2691 11.3062 16.9815 7.01876C12.6939 2.73134 6.94333 0.224354 0.883994 0.00100745C0.769165 -0.00275084 0.654753 0.0166455 0.547579 0.0580405C0.440404 0.0994355 0.342659 0.161982 0.260168 0.241953C0.177678 0.321924 0.112131 0.417682 0.067432 0.523522C0.0227335 0.629362 -0.000201241 0.743116 -5.53566e-06 0.858008V3.43301C0.000615544 3.65514 0.0871611 3.86841 0.241505 4.02816C0.395849 4.18791 0.606018 4.28174 0.827994 4.29001C5.76996 4.49545 10.4542 6.55074 13.9517 10.0483C17.4493 13.5458 19.5046 18.23 19.71 23.172C19.7183 23.394 19.8121 23.6042 19.9718 23.7585C20.1316 23.9128 20.3449 23.9994 20.567 24H23.142C23.257 24.0003 23.3708 23.9775 23.4768 23.9329C23.5827 23.8882 23.6786 23.8227 23.7587 23.7402C23.8388 23.6577 23.9014 23.5599 23.9429 23.4527C23.9843 23.3454 24.0038 23.2309 24 23.116Z" fill="black"/>
</g>
<defs>
<clipPath id="clip0_3:6">
<rect width="24" height="24" fill="white"/>
</clipPath>
</defs>
</svg>
