<svg xmlns="http://www.w3.org/2000/svg" width="24" height="24" viewBox="0 0 24 24">
  <path id="f_rss" d="M6.861,22.819a3.431,3.431,0,1,1-3.431-3.431,3.431,3.431,0,0,1,3.431,3.431Zm9.41,2.531A16.29,16.29,0,0,0,.9,9.978a.856.856,0,0,0-.9.857V13.41a.858.858,0,0,0,.8.858A12,12,0,0,1,11.982,25.452a.858.858,0,0,0,.858.8h2.575A.856.856,0,0,0,16.272,25.35ZM24,25.366A24.017,24.017,0,0,0,.884,2.251.856.856,0,0,0,0,3.108V5.683a.86.86,0,0,0,.828.857A19.718,19.718,0,0,1,19.71,25.422a.86.86,0,0,0,.857.828h2.575A.856.856,0,0,0,24,25.366Z" transform="translate(0 -2.25)" fill="#464655"/>
</svg>
