<svg width="24" height="24" viewBox="0 0 24 24" fill="none" xmlns="http://www.w3.org/2000/svg">
<path d="M21.5347 6.85816C21.5495 7.07165 21.5495 7.28421 21.5495 7.4977C21.5623 9.33922 21.2091 11.1649 20.5103 12.8688C19.8115 14.5726 18.7811 16.1206 17.4789 17.4227C16.1767 18.7249 14.6287 19.7554 12.9249 20.4542C11.2211 21.153 9.39535 21.5062 7.55384 21.4934C4.87555 21.4998 2.25244 20.7323 0 19.2833C0.394506 19.3269 0.791223 19.3473 1.18812 19.3445C3.40223 19.3496 5.55349 18.6087 7.29486 17.2412C6.26814 17.2235 5.27259 16.8855 4.44732 16.2744C3.62206 15.6633 3.00831 14.8097 2.69183 13.8328C2.99889 13.8814 3.30917 13.9068 3.62005 13.9089C4.05853 13.9082 4.49517 13.8521 4.91955 13.7418C3.80588 13.5165 2.80454 12.9126 2.08559 12.0328C1.36665 11.1529 0.974431 10.0513 0.975557 8.91509V8.85383C1.65841 9.23497 2.42181 9.44904 3.20328 9.47852C2.15749 8.78372 1.41648 7.7158 1.13165 6.49298C0.846814 5.27015 1.03966 3.98472 1.67079 2.89931C2.90679 4.42048 4.44881 5.66478 6.19678 6.55148C7.94475 7.43818 9.85962 7.94746 11.8171 8.04628C11.7383 7.67579 11.6975 7.2982 11.6955 6.91942C11.6945 5.93193 11.9906 4.96697 12.5454 4.15006C13.1001 3.33315 13.8879 2.7021 14.8063 2.33902C15.7246 1.97594 16.7309 1.89762 17.6944 2.11426C18.6578 2.3309 19.5337 2.83246 20.2082 3.5537C21.3097 3.34145 22.366 2.93943 23.3298 2.36558C22.9629 3.50221 22.1939 4.46592 21.1671 5.07598C22.1441 4.96493 23.0989 4.70838 24 4.31484C23.3271 5.29521 22.4936 6.15505 21.5347 6.85816V6.85816Z" fill="black"/>
</svg>
