<svg xmlns="http://www.w3.org/2000/svg" width="25.856" height="21" viewBox="0 0 25.856 21">
  <path id="f_twitter" d="M23.2,8.614c.016.23.016.459.016.689A14.974,14.974,0,0,1,8.138,24.381,14.975,14.975,0,0,1,0,22a10.963,10.963,0,0,0,1.28.066A10.613,10.613,0,0,0,7.859,19.8,5.309,5.309,0,0,1,2.9,16.128a6.683,6.683,0,0,0,1,.082A5.6,5.6,0,0,0,5.3,16.03a5.3,5.3,0,0,1-4.249-5.2v-.066a5.337,5.337,0,0,0,2.4.673A5.307,5.307,0,0,1,1.8,4.349,15.063,15.063,0,0,0,12.731,9.894,5.982,5.982,0,0,1,12.6,8.68a5.3,5.3,0,0,1,9.171-3.626,10.433,10.433,0,0,0,3.363-1.28,5.285,5.285,0,0,1-2.33,2.92,10.623,10.623,0,0,0,3.052-.82A11.391,11.391,0,0,1,23.2,8.614Z" transform="translate(0 -3.381)" fill="#464655"/>
</svg>
