<svg width="24" height="24" viewBox="0 0 24 24" fill="none" xmlns="http://www.w3.org/2000/svg">
<g clip-path="url(#clip0_3:8)">
<path d="M23.4984 6.64026C23.3627 6.12963 23.0953 5.66359 22.7229 5.28882C22.3505 4.91406 21.8861 4.64371 21.3763 4.50485C19.5046 4 12.0001 4 12.0001 4C12.0001 4 4.49485 4 2.62311 4.50485C2.11334 4.64371 1.64899 4.91406 1.27656 5.28882C0.904141 5.66359 0.636712 6.12963 0.501056 6.64026C0.155162 8.55874 -0.0126624 10.5051 -0.000277025 12.4545C-0.0126624 14.4038 0.155162 16.3502 0.501056 18.2687C0.637708 18.7751 0.906039 19.2364 1.27877 19.6055C1.6515 19.9747 2.11533 20.2386 2.62311 20.3703C4.49485 20.8752 12.0001 20.8752 12.0001 20.8752C12.0001 20.8752 19.5053 20.8752 21.377 20.3703C21.8848 20.2386 22.3487 19.9747 22.7214 19.6055C23.0941 19.2364 23.3624 18.7751 23.4991 18.2687C23.845 16.3502 24.0128 14.4038 24.0004 12.4545C24.0128 10.5051 23.845 8.55874 23.4991 6.64026H23.4984ZM9.54544 16.0236V8.88606L15.8181 12.4545L9.54544 16.0236Z" fill="black"/>
</g>
<defs>
<clipPath id="clip0_3:8">
<rect width="24" height="24" fill="white"/>
</clipPath>
</defs>
</svg>
