<svg width="24" height="24" viewBox="0 0 24 24" fill="none" xmlns="http://www.w3.org/2000/svg">
<path fill-rule="evenodd" clip-rule="evenodd" d="M7.63999 2.045C6.17699 2.165 4.76199 2.669 4.25099 3.253C3.98099 3.561 3.99799 2.907 4.00999 12.541L4.01999 21.26L4.14399 21.48C4.28299 21.728 4.57299 21.935 4.84299 21.981C5.23199 22.046 5.65599 21.837 5.85599 21.48L5.97999 21.26L5.99999 18.24L6.01999 15.22L6.39999 15.094C7.02299 14.888 7.54099 14.82 8.47999 14.82C9.18699 14.82 9.35599 14.833 9.70499 14.911C10.263 15.036 10.783 15.21 11.86 15.632C13.646 16.331 14.392 16.526 15.505 16.583C17.711 16.696 20.065 15.926 20.336 15.003C20.393 14.809 20.4 14.202 20.4 9.3C20.4 3.243 20.413 3.554 20.149 3.253C20.053 3.14997 19.9372 3.06744 19.8085 3.01038C19.6797 2.95332 19.5408 2.92292 19.4 2.921C19.165 2.921 18.975 2.998 18.56 3.262C18.026 3.602 17.128 3.778 15.92 3.779C15.209 3.78 15.046 3.768 14.69 3.688C14.145 3.566 13.603 3.384 12.52 2.959C10.308 2.092 9.32399 1.908 7.63999 2.045V2.045ZM9.79999 4.133C10.366 4.268 10.773 4.406 11.86 4.831C13.877 5.621 14.533 5.775 15.88 5.775C16.828 5.775 17.626 5.683 18.31 5.495L18.4 5.471L18.39 9.825L18.38 14.18L18.06 14.292C17.479 14.496 16.885 14.576 15.94 14.578C15.205 14.58 15.049 14.568 14.69 14.488C14.145 14.366 13.603 14.184 12.52 13.759C10.941 13.14 10.185 12.929 9.21399 12.837C8.32999 12.752 6.93699 12.871 6.08999 13.105L5.99999 13.129L6.00999 8.775L6.01999 4.42L6.39999 4.294C6.72699 4.186 7.25599 4.081 7.75999 4.024C7.83699 4.015 8.23299 4.014 8.63999 4.021C9.26099 4.031 9.44699 4.049 9.79999 4.133" fill="black"/>
</svg>
