<svg width="24" height="24" viewBox="0 0 24 24" fill="none" xmlns="http://www.w3.org/2000/svg">
<path fill-rule="evenodd" clip-rule="evenodd" d="M8.98 4.046C8.065 4.163 7.047 4.684 6.443 5.344C5.95561 5.8787 5.60254 6.52177 5.413 7.22C5.317 7.578 5.306 7.689 5.307 8.28C5.307 8.861 5.32 8.986 5.411 9.328C5.67055 10.2862 6.24373 11.1298 7.039 11.724C7.351 11.957 8.08 12.301 8.48 12.404C8.897 12.511 9.811 12.553 10.225 12.484C11.69 12.239 12.964 11.22 13.497 9.867C13.732 9.271 13.774 9.035 13.775 8.28C13.776 7.644 13.766 7.544 13.668 7.183C13.3994 6.1808 12.776 5.31025 11.9137 4.73323C11.0514 4.15621 10.0089 3.91199 8.98 4.046V4.046ZM14.95 4.177C14.7682 4.23211 14.6095 4.3452 14.498 4.499C14.3621 4.66584 14.286 4.87339 14.2818 5.08853C14.2777 5.30368 14.3457 5.51402 14.475 5.686C14.614 5.881 14.768 5.98 15.118 6.099C15.516 6.235 15.731 6.367 16.047 6.67C16.332 6.945 16.543 7.294 16.657 7.68C16.744 7.972 16.744 8.589 16.658 8.88C16.5511 9.25165 16.3535 9.5909 16.0829 9.86722C15.8123 10.1435 15.4773 10.3483 15.108 10.463C14.832 10.553 14.748 10.603 14.578 10.776C14.081 11.283 14.23 12.062 14.88 12.357C15.132 12.471 15.386 12.461 15.803 12.321C17.239 11.84 18.264 10.704 18.629 9.191C18.727 8.782 18.727 7.775 18.628 7.364C18.266 5.864 17.23 4.717 15.804 4.239C15.419 4.11 15.185 4.093 14.95 4.177V4.177ZM10.094 6.063C10.5807 6.1851 11.0133 6.4649 11.3243 6.85872C11.6353 7.25254 11.8071 7.73824 11.813 8.24C11.8183 8.5704 11.7516 8.898 11.6174 9.19997C11.4832 9.50193 11.2847 9.771 11.0359 9.98843C10.787 10.2059 10.4938 10.3664 10.1765 10.4589C9.8593 10.5514 9.5257 10.5736 9.199 10.524C8.337 10.393 7.56 9.693 7.343 8.854C7.26284 8.47425 7.26216 8.08202 7.341 7.702C7.545 6.921 8.219 6.249 8.986 6.063C9.303 5.986 9.796 5.987 10.094 6.063V6.063ZM5.4 13.918C4.66483 14.0735 3.98358 14.4199 3.42481 14.9223C2.86604 15.4247 2.44946 16.0654 2.217 16.78C2.048 17.31 2 17.763 2 18.843C2 20.002 2.028 20.15 2.295 20.417C2.778 20.9 3.589 20.774 3.886 20.17C3.976 19.987 3.981 19.935 4.002 18.78C4.023 17.601 4.025 17.575 4.13 17.311C4.25449 16.9823 4.4512 16.6858 4.70563 16.4433C4.96006 16.2008 5.26571 16.0185 5.6 15.91L5.86 15.82L9.406 15.809C13.335 15.796 13.27 15.792 13.819 16.053C14.314 16.289 14.752 16.77 14.966 17.314C15.049 17.524 15.057 17.625 15.079 18.74C15.1 19.839 15.109 19.955 15.185 20.12C15.361 20.504 15.673 20.701 16.1 20.698C16.51 20.696 16.791 20.526 16.985 20.16C17.054 20.031 17.06 19.914 17.058 18.72C17.056 17.443 17.055 17.413 16.951 17.032C16.51 15.407 15.226 14.211 13.59 13.9C13.319 13.849 12.707 13.84 9.506 13.843C6.023 13.845 5.714 13.851 5.4 13.918V13.918ZM18.351 13.959C18.2313 13.9904 18.117 14.0396 18.012 14.105C17.509 14.416 17.411 15.131 17.811 15.587C17.951 15.745 18.111 15.833 18.487 15.957C19.005 16.127 19.499 16.565 19.765 17.09C19.968 17.492 19.999 17.718 19.999 18.824C20 19.914 20.025 20.088 20.218 20.341C20.276 20.416 20.408 20.528 20.511 20.589C20.672 20.684 20.744 20.7 21 20.7C21.256 20.7 21.328 20.684 21.489 20.589C21.5989 20.522 21.6978 20.4384 21.782 20.341C21.974 20.089 22 19.912 21.999 18.864C21.997 17.446 21.916 16.981 21.54 16.22C21.048 15.225 20.202 14.46 19.198 14.105C18.77 13.953 18.566 13.918 18.351 13.959" fill="black"/>
</svg>
