<svg id="forum" xmlns="http://www.w3.org/2000/svg" width="24" height="24" viewBox="0 0 24 24">
  <rect id="container" width="24" height="24" fill="#fff" opacity="0"/>
  <g id="Icon_feather-users" data-name="Icon feather-users" transform="translate(1.5 0.5)">
    <path id="Path_17" data-name="Path 17" d="M14.591,27.409V25.773A3.273,3.273,0,0,0,11.318,22.5H4.773A3.273,3.273,0,0,0,1.5,25.773v1.636" transform="translate(0 -8.182)" fill="none" stroke="#464655" stroke-linecap="round" stroke-linejoin="round" stroke-width="2"/>
    <path id="Path_18" data-name="Path 18" d="M14.045,7.773A3.273,3.273,0,1,1,10.773,4.5,3.273,3.273,0,0,1,14.045,7.773Z" transform="translate(-2.727)" fill="none" stroke="#464655" stroke-linecap="round" stroke-linejoin="round" stroke-width="2"/>
    <path id="Path_19" data-name="Path 19" d="M32.455,27.5V25.861A3.273,3.273,0,0,0,30,22.7" transform="translate(-12.955 -8.27)" fill="none" stroke="#464655" stroke-linecap="round" stroke-linejoin="round" stroke-width="2"/>
    <path id="Path_20" data-name="Path 20" d="M24,4.7a3.273,3.273,0,0,1,0,6.341" transform="translate(-10.227 -0.089)" fill="none" stroke="#464655" stroke-linecap="round" stroke-linejoin="round" stroke-width="2"/>
  </g>
</svg>
