<svg width="24" height="24" viewBox="0 0 24 24" fill="none" xmlns="http://www.w3.org/2000/svg">
<path fill-rule="evenodd" clip-rule="evenodd" d="M11.152 2.043C7.93698 2.309 5.00798 4.166 3.36098 6.984C2.72398 8.073 2.29698 9.315 2.09398 10.668C2.00098 11.286 2.00098 12.707 2.09398 13.32C2.44098 15.604 3.38398 17.508 4.93798 19.062C8.83798 22.962 15.158 22.962 19.063 19.062C22.954 15.177 22.961 8.864 19.08 4.957C18.0511 3.92228 16.8083 3.12526 15.4387 2.62186C14.0692 2.11847 12.606 1.92089 11.152 2.043V2.043ZM9.61498 4.51C9.25998 5.111 9.12698 5.355 8.88198 5.86C8.18498 7.294 7.66898 9.056 7.51198 10.536L7.46298 11H4.05198L4.08698 10.77C4.10598 10.643 4.17698 10.315 4.24398 10.04C4.87298 7.487 6.78498 5.375 9.27998 4.475C9.51098 4.392 9.70598 4.323 9.71398 4.322C9.68749 4.38788 9.65432 4.45088 9.61498 4.51V4.51ZM14.867 4.526C16.0667 4.98829 17.1375 5.73244 17.9891 6.69562C18.8407 7.65879 19.4481 8.81273 19.76 10.06C19.825 10.324 19.894 10.643 19.913 10.77L19.948 11H16.532L16.505 10.687C16.47 10.262 16.304 9.328 16.155 8.72C15.836 7.412 15.188 5.833 14.52 4.74C14.4521 4.62999 14.3864 4.51864 14.323 4.406C14.276 4.318 14.279 4.314 14.367 4.341C14.418 4.356 14.643 4.44 14.867 4.526V4.526ZM12.265 4.911C13.468 6.623 14.286 8.735 14.512 10.71L14.546 11H9.45398L9.48798 10.71C9.65898 9.214 10.22 7.491 10.986 6.109C11.292 5.557 11.943 4.564 12 4.562C12.011 4.562 12.13 4.719 12.265 4.911V4.911ZM7.51198 13.464C7.71698 15.399 8.49298 17.659 9.52698 19.333C9.63298 19.505 9.71998 19.653 9.71998 19.662C9.71998 19.704 8.84698 19.367 8.47398 19.18C6.60498 18.244 5.23998 16.74 4.50098 14.802C4.32183 14.2897 4.1834 13.7641 4.08698 13.23L4.05198 13H7.46298L7.51198 13.464V13.464ZM14.512 13.29C14.29 15.235 13.486 17.33 12.324 18.998L12.032 19.418C11.997 19.469 11.971 19.437 11.545 18.8C10.445 17.154 9.70198 15.166 9.48798 13.29L9.45398 13H14.546L14.512 13.29V13.29ZM19.913 13.23C19.8171 13.7563 19.6811 14.2745 19.506 14.78C18.782 16.715 17.316 18.329 15.481 19.208C15.131 19.376 14.32 19.693 14.297 19.671C14.29 19.664 14.402 19.46 14.544 19.219C15.2764 17.9637 15.8253 16.6099 16.174 15.199C16.305 14.665 16.472 13.717 16.505 13.313L16.532 13H19.948L19.913 13.23Z" fill="black"/>
</svg>
