<svg width="24" height="24" viewBox="0 0 24 24" fill="none" xmlns="http://www.w3.org/2000/svg">
<path fill-rule="evenodd" clip-rule="evenodd" d="M11.366 1.984C9.45899 2.214 7.58399 3.157 6.29699 4.531C4.96499 5.954 4.19699 7.704 4.03299 9.691C3.81899 12.278 4.93799 15.041 7.31399 17.796C8.36099 19.01 9.70299 20.252 11.147 21.345C11.874 21.895 12.034 21.979 12.36 21.979C12.694 21.98 12.81 21.92 13.58 21.34C16.132 19.421 18.18 17.185 19.416 14.97C20.769 12.544 21.071 10.038 20.296 7.68C19.584 5.516 18.09 3.794 16.06 2.798C14.564 2.064 12.977 1.788 11.366 1.984ZM13.646 4.037C14.8645 4.29242 15.9821 4.89724 16.8624 5.77755C17.7428 6.65786 18.3476 7.77554 18.603 8.99401C18.725 9.56001 18.753 10.671 18.661 11.26C18.408 12.876 17.551 14.541 16.045 16.34C15.649 16.813 14.455 18.026 13.9 18.517C13.406 18.956 12.411 19.76 12.364 19.76C12.31 19.76 11.239 18.887 10.72 18.419C8.16899 16.122 6.59199 13.774 6.11399 11.56C6.03599 11.198 6.02299 11.023 6.02299 10.3C6.02299 9.374 6.07899 8.998 6.32499 8.26C7.04599 6.096 8.93499 4.442 11.16 4.026C11.692 3.927 11.697 3.926 12.5 3.94C13.081 3.95 13.351 3.973 13.646 4.037ZM11.708 6.979C11.1721 7.08491 10.669 7.31668 10.2403 7.6552C9.8115 7.99371 9.46935 8.42928 9.24199 8.926C8.99199 9.462 8.94299 9.696 8.94299 10.36C8.94299 10.99 8.98099 11.188 9.19799 11.716C9.44999 12.327 10.011 12.973 10.586 13.315C11.722 13.989 13.214 13.957 14.269 13.233C15.805 12.181 16.255 10.173 15.313 8.584C15.1768 8.37292 15.0211 8.17506 14.848 7.993C14.4196 7.5303 13.8691 7.19818 13.26 7.035C12.889 6.929 12.088 6.9 11.708 6.979ZM12.848 8.992C13.0739 9.07177 13.2764 9.20624 13.4376 9.38341C13.5989 9.56058 13.7137 9.77493 13.7718 10.0073C13.8299 10.2397 13.8296 10.4828 13.7708 10.715C13.7121 10.9472 13.5967 11.1613 13.435 11.338C12.854 11.973 11.864 11.979 11.299 11.351C11.004 11.022 10.94 10.846 10.94 10.36C10.941 9.98 10.951 9.92 11.05 9.731C11.249 9.354 11.52 9.116 11.914 8.976C12.123 8.901 12.622 8.909 12.848 8.992Z" fill="black"/>
</svg>
