<svg width="24" height="24" viewBox="0 0 24 24" fill="none" xmlns="http://www.w3.org/2000/svg">
<path fill-rule="evenodd" clip-rule="evenodd" d="M8.384 3.06C8.31429 3.08523 8.24728 3.11739 8.184 3.156C8.16 3.175 6.844 3.932 5.26 4.837C3.201 6.013 2.343 6.523 2.249 6.628C1.985 6.925 2 6.494 2 13.82C2 21.297 1.976 20.73 2.303 21.057C2.42293 21.1836 2.57538 21.2747 2.74366 21.3204C2.91193 21.366 3.08953 21.3645 3.257 21.316C3.343 21.292 4.608 20.59 6.067 19.756C7.526 18.922 8.737 18.24 8.759 18.24C8.781 18.24 10.208 18.944 11.93 19.805L15.06 21.369L15.321 21.351C15.579 21.332 15.603 21.319 18.581 19.619C20.622 18.453 21.627 17.857 21.728 17.753C22.018 17.454 22 17.94 22 10.543C22 6.319 21.985 3.849 21.96 3.759C21.817 3.243 21.263 2.905 20.775 3.036C20.685 3.06 19.426 3.758 17.976 4.586C16.526 5.414 15.311 6.1 15.276 6.109C15.241 6.118 13.819 5.429 12.116 4.578C9.225 3.132 9.004 3.029 8.78 3.015C8.64633 3.00405 8.5118 3.01933 8.384 3.06V3.06ZM14.28 13.32V18.76L12 17.62L9.72 16.48V5.6L12 6.74L14.28 7.88V13.32V13.32ZM7.67 16.543C7.635 16.575 4.432 18.41 4.03 18.628C4.013 18.637 4 16.215 4 13.245V7.846L5.85 6.788L7.7 5.731L7.71 11.114C7.718 15.388 7.71 16.506 7.67 16.543V16.543ZM19.97 16.525C19.946 16.548 16.64 18.448 16.35 18.605C16.283 18.641 16.28 18.379 16.29 13.237L16.3 7.832L18.14 6.78L19.98 5.728L19.99 11.112C19.996 14.073 19.987 16.509 19.97 16.525" fill="black"/>
</svg>
