<svg width="24" height="24" viewBox="0 0 24 24" fill="none" xmlns="http://www.w3.org/2000/svg">
<path fill-rule="evenodd" clip-rule="evenodd" d="M4.86 2.578C4.26528 2.71504 3.72576 3.02837 3.312 3.477C3.01887 3.78183 2.79779 4.14849 2.665 4.55L2.54 4.9L2.529 13.3C2.517 22.639 2.494 21.878 2.788 22.18C2.988 22.386 3.208 22.478 3.5 22.478C3.939 22.478 3.93 22.486 6.02 20.399L7.94 18.482L14.02 18.471L20.1 18.46L20.45 18.335C20.937 18.16 21.205 17.992 21.582 17.62C21.95 17.258 22.18 16.898 22.348 16.42L22.46 16.1V4.9L22.348 4.58C22.1938 4.12378 21.9309 3.71194 21.582 3.38C21.205 3.008 20.937 2.84 20.45 2.665L20.1 2.54L12.6 2.533C6.526 2.527 5.054 2.536 4.86 2.578V2.578ZM19.883 4.565C20.098 4.663 20.304 4.862 20.407 5.072L20.5 5.26V15.74L20.407 15.928C20.304 16.138 20.098 16.337 19.883 16.435C19.754 16.494 19.144 16.502 13.46 16.52C7.421 16.539 7.175 16.543 7.04 16.615C6.963 16.656 6.355 17.232 5.689 17.894L4.479 19.098L4.489 12.179L4.5 5.26L4.594 5.07C4.71 4.834 4.961 4.615 5.199 4.541C5.352 4.494 6.494 4.486 12.56 4.493C19.092 4.499 19.753 4.506 19.883 4.565" fill="black"/>
</svg>
