<svg width="24" height="24" viewBox="0 0 24 24" fill="none" xmlns="http://www.w3.org/2000/svg">
<path fill-rule="evenodd" clip-rule="evenodd" d="M11.18 2.09599C9.93901 2.33199 8.99501 2.83799 8.13901 3.72599C7.41301 4.47699 6.955 5.34999 6.713 6.43999C6.637 6.78299 6.62701 6.97999 6.61101 8.46499L6.593 10.111L5.92601 10.129C5.35101 10.145 5.218 10.162 4.949 10.25C4.56757 10.3742 4.21711 10.5786 3.92114 10.8493C3.62518 11.1201 3.39055 11.4511 3.23301 11.82C3.01401 12.339 3.02001 12.223 3.02001 16.06C3.02001 20.063 3.003 19.819 3.327 20.48C3.461 20.753 3.561 20.887 3.837 21.161C4.215 21.537 4.531 21.727 5.04 21.886L5.34001 21.98H18.86L19.16 21.886C19.6189 21.7582 20.0342 21.5075 20.361 21.161C20.63 20.892 20.738 20.748 20.871 20.48C21.197 19.825 21.18 20.066 21.18 16.06C21.18 12.135 21.191 12.318 20.921 11.74C20.635 11.125 20.203 10.681 19.62 10.401C19.005 10.106 19.312 10.12 13.66 10.12H8.59501L8.61 8.50999C8.627 6.69799 8.63 6.67399 8.938 6.01999C9.15732 5.55254 9.47693 5.13915 9.8741 4.80921C10.2713 4.47926 10.7363 4.24088 11.236 4.11099C11.674 3.99199 12.532 3.99399 12.978 4.11499C14.133 4.42699 15.086 5.33199 15.426 6.43899C15.654 7.18299 15.74 7.32699 16.049 7.48499C16.2268 7.57846 16.4293 7.61405 16.6284 7.5868C16.8274 7.55955 17.0129 7.47081 17.159 7.33299C17.534 6.99599 17.574 6.58199 17.308 5.79399C17.0586 5.02215 16.635 4.31801 16.07 3.73599C15.3472 2.96525 14.415 2.42236 13.388 2.17399C13.036 2.08499 12.875 2.06899 12.22 2.05699C11.698 2.04699 11.372 2.05899 11.18 2.09599V2.09599ZM18.74 12.166C18.89 12.25 19.051 12.421 19.135 12.588C19.193 12.703 19.2 13.06 19.199 16.048C19.198 19.202 19.194 19.389 19.124 19.54C19.0854 19.6307 19.0289 19.7126 18.958 19.781C18.887 19.8494 18.803 19.9028 18.711 19.938C18.579 19.993 17.843 20 12.1 20C6.35701 20 5.621 19.993 5.489 19.938C5.39697 19.9028 5.31298 19.8494 5.24202 19.781C5.17106 19.7126 5.1146 19.6307 5.07601 19.54C5.00601 19.389 5.002 19.202 5.001 16.048C5 12.829 5.00301 12.712 5.07801 12.565C5.17301 12.378 5.40401 12.169 5.55101 12.137C5.61101 12.124 5.678 12.107 5.7 12.1C5.722 12.093 8.63801 12.09 12.18 12.094C18.099 12.099 18.63 12.105 18.74 12.166" fill="black"/>
</svg>
