<svg xmlns="http://www.w3.org/2000/svg" width="45.613" height="62.125" viewBox="0 0 45.613 62.125">
  <g id="play_video" transform="translate(1.613 61.062) rotate(-90)" fill="#464655" stroke-linecap="round">
    <path d="M 3.941641807556152 42.50000381469727 C 2.616171836853027 42.50000381469727 1.420191884040833 41.76572418212891 0.8204419016838074 40.58370590209961 C 0.22068190574646 39.40168380737305 0.3343318998813629 38.00290679931641 1.117041945457458 36.93320465087891 L 27.17539215087891 1.320115327835083 C 27.84185218811035 0.4092953503131866 28.87138175964355 -0.1130946651101112 30.00000190734863 -0.1130946651101112 C 31.12861251831055 -0.1130946651101112 32.15814208984375 0.4092853367328644 32.82461166381836 1.320115327835083 L 58.88298034667969 36.93320465087891 C 59.66564178466797 38.00285720825195 59.77926254272461 39.40162658691406 59.17949295043945 40.58365631103516 C 58.5797119140625 41.76569366455078 57.38377380371094 42.49999618530273 56.05837249755859 42.49999618530273 L 3.941641807556152 42.50000381469727 Z" stroke="none"/>
    <path d="M 29.99999809265137 1.38690185546875 C 29.39271926879883 1.38690185546875 28.78544235229492 1.659896850585938 28.38594245910645 2.205886840820312 L 2.327571868896484 37.81897735595703 C 1.360771179199219 39.14027404785156 2.304412841796875 40.99999618530273 3.941631317138672 40.99999618530273 L 56.0583610534668 40.99999618530273 C 57.69559097290039 40.99999618530273 58.63923263549805 39.14027404785156 57.67242050170898 37.81897735595703 L 31.61406135559082 2.205886840820312 C 31.21455764770508 1.659896850585938 30.60727691650391 1.38690185546875 29.99999809265137 1.38690185546875 M 30.00000190734863 -1.613105773925781 C 31.58858108520508 -1.613105773925781 33.09705352783203 -0.8477058410644531 34.03514099121094 0.4343452453613281 L 60.09351348876953 36.04744720458984 C 61.21166229248047 37.57557678222656 61.3740234375 39.57383728027344 60.5172233581543 41.26242446899414 C 59.66043090820312 42.95102691650391 57.9518928527832 43.99999618530273 56.0583610534668 43.99999618530273 L 3.941631317138672 43.99999618530273 C 2.048110961914062 43.99999618530273 0.3395805358886719 42.95102691650391 -0.5172195434570312 41.26243591308594 C -1.374019622802734 39.57385635375977 -1.211669921875 37.57558441162109 -0.09352874755859375 36.04745483398438 L 25.96485137939453 0.434356689453125 C 26.90292358398438 -0.8476943969726562 28.41139221191406 -1.613105773925781 30.00000190734863 -1.613105773925781 Z" stroke="none" fill="#fff"/>
  </g>
</svg>
