<svg width="24" height="24" viewBox="0 0 24 24" fill="none" xmlns="http://www.w3.org/2000/svg">
<path fill-rule="evenodd" clip-rule="evenodd" d="M18.1445 1.03302C18.0966 1.04989 17.9525 1.13805 17.824 1.22928C17.2019 1.67164 4.29159 11.1263 4.21876 11.193C3.92092 11.4663 3.92859 12.0248 4.23333 12.2901C4.40161 12.4361 17.9471 22.3393 18.0644 22.4017C18.1476 22.4458 18.2296 22.46 18.4071 22.46C18.6091 22.46 18.6582 22.4493 18.7774 22.3791C18.9326 22.2879 19.0511 22.1476 19.1086 21.9866C19.1408 21.8957 19.1477 20.1348 19.1484 11.7507C19.1492 4.86088 19.14 1.58961 19.1197 1.51563C19.0384 1.22277 18.7264 0.995841 18.4109 1.00006C18.3124 1.00121 18.1928 1.01616 18.1445 1.03302" fill="black"/>
</svg>
