<svg width="24" height="24" viewBox="0 0 24 24" fill="none" xmlns="http://www.w3.org/2000/svg">
<path fill-rule="evenodd" clip-rule="evenodd" d="M14.59 2.705C13.8731 2.84901 13.199 3.15629 12.62 3.603C12.271 3.881 4.00501 12.175 3.79301 12.46C3.17541 13.2779 2.76475 14.2331 2.59601 15.244C2.52301 15.668 2.51401 15.842 2.53201 16.44C2.54701 16.917 2.58001 17.258 2.63401 17.511C3.16801 19.986 4.99701 21.812 7.50001 22.368C7.84301 22.444 8.01901 22.457 8.74001 22.457C9.45701 22.457 9.63901 22.444 9.98601 22.369C11.0501 22.1467 12.0385 21.6526 12.855 20.935C13.034 20.777 15.019 18.806 17.267 16.554C21.25 12.564 21.355 12.454 21.417 12.243C21.495 11.975 21.495 11.906 21.421 11.657C21.3596 11.4532 21.2334 11.2749 21.0617 11.1492C20.8899 11.0234 20.6819 10.957 20.469 10.96C20.342 10.96 20.171 10.988 20.089 11.022C19.984 11.065 18.68 12.34 15.7 15.314C12.454 18.553 11.387 19.594 11.149 19.755C9.438 20.914 7.20101 20.706 5.74601 19.253C5.00508 18.5211 4.56161 17.5405 4.50122 16.5008C4.44083 15.4611 4.7678 14.4358 5.41901 13.623C5.55901 13.445 7.50601 11.47 9.747 9.233C12.711 6.274 13.89 5.122 14.077 5.003C14.4608 4.75978 14.9056 4.63012 15.36 4.629C15.829 4.625 16.083 4.682 16.517 4.889C17.203 5.215 17.726 5.91 17.864 6.68C17.968 7.254 17.89 7.751 17.61 8.3C17.478 8.559 17.152 8.896 13.343 12.713C10.838 15.224 9.158 16.878 9.063 16.927C8.93972 16.9859 8.80274 17.0101 8.66675 16.997C8.53075 16.984 8.40087 16.9342 8.29101 16.853C8.20344 16.7809 8.12695 16.6963 8.06401 16.602C7.97601 16.452 7.962 16.108 8.039 15.958C8.066 15.904 9.813 14.132 11.92 12.02C14.027 9.908 15.771 8.142 15.794 8.095C15.8753 7.92556 15.9101 7.73754 15.8948 7.55022C15.8795 7.36291 15.8147 7.18302 15.707 7.029C15.434 6.667 14.862 6.527 14.486 6.73C14.306 6.827 7.13501 13.918 6.69001 14.439C5.93101 15.328 5.78901 16.476 6.30901 17.52C6.51901 17.944 7.06001 18.482 7.48101 18.687C7.92901 18.905 8.23201 18.976 8.72001 18.977C9.23401 18.979 9.46901 18.925 9.96001 18.692L10.34 18.512L14.611 14.246C17.614 11.247 18.943 9.894 19.084 9.689C19.357 9.295 19.622 8.723 19.75 8.251C19.846 7.894 19.856 7.795 19.856 7.12C19.856 6.441 19.847 6.347 19.748 5.98C19.619 5.503 19.281 4.801 19.005 4.438C18.3106 3.52287 17.2976 2.90216 16.167 2.699C15.6436 2.62749 15.1128 2.62951 14.59 2.705" fill="black"/>
</svg>
