<svg width="24" height="24" viewBox="0 0 24 24" fill="none" xmlns="http://www.w3.org/2000/svg">
<path fill-rule="evenodd" clip-rule="evenodd" d="M10.38 2.024C9.45499 2.12 8.90199 2.233 8.15899 2.48C6.76899 2.942 5.71999 3.594 4.65599 4.657C3.65199 5.661 3.00199 6.674 2.54099 7.958C2.17699 8.968 2.02399 9.871 2.02399 11C2.02399 12.111 2.15299 12.899 2.50299 13.922C2.95799 15.255 3.61899 16.304 4.65799 17.342C5.26199 17.947 5.73399 18.32 6.39999 18.721C9.45999 20.563 13.44 20.377 16.305 18.258L16.611 18.032L18.495 19.912C19.743 21.156 20.437 21.821 20.55 21.877C20.894 22.048 21.217 22.026 21.561 21.808C21.949 21.561 22.1 20.98 21.885 20.56C21.822 20.438 21.185 19.771 19.912 18.495L18.032 16.611L18.249 16.315C19.112 15.146 19.673 13.766 19.906 12.24C20.002 11.611 20.002 10.39 19.906 9.76C19.667 8.193 19.11 6.841 18.193 5.606C17.824 5.108 16.888 4.172 16.394 3.808C15.131 2.874 13.793 2.319 12.269 2.098C11.86 2.039 10.682 1.993 10.38 2.024V2.024ZM11.921 4.058C12.8456 4.18243 13.7363 4.48967 14.5409 4.96181C15.3456 5.43395 16.0483 6.06154 16.608 6.808C17.5117 8.01875 18 9.48915 18 11C18 12.5109 17.5117 13.9813 16.608 15.192C16.0481 15.9378 15.3456 16.5649 14.5413 17.037C13.7371 17.509 12.8471 17.8167 11.923 17.942C8.76299 18.363 5.68799 16.571 4.50899 13.62C4.19934 12.8756 4.03081 12.08 4.01199 11.274C3.90499 8.589 5.29399 6.149 7.67999 4.828C8.27099 4.501 9.23699 4.18 9.91999 4.083L10.32 4.026C10.577 3.988 11.543 4.007 11.921 4.058" fill="black"/>
</svg>
