<svg width="24" height="24" viewBox="0 0 24 24" fill="none" xmlns="http://www.w3.org/2000/svg">
<path fill-rule="evenodd" clip-rule="evenodd" d="M20.56 2.094C20.417 2.147 16.334 3.579 11.486 5.277C6.638 6.974 2.604 8.397 2.522 8.439C2.239 8.583 2 8.978 2 9.3C2 9.477 2.128 9.806 2.252 9.948C2.412 10.131 2.37 10.111 6.804 12.079L10.348 13.652L11.921 17.196C13.889 21.63 13.869 21.588 14.052 21.748C14.194 21.872 14.523 22 14.7 22C14.882 22 15.211 21.869 15.354 21.74C15.437 21.666 15.543 21.519 15.592 21.413C15.71 21.152 21.918 3.428 21.97 3.199C21.9989 3.07141 22.0012 2.93923 21.9768 2.81071C21.9524 2.68218 21.9017 2.56007 21.828 2.452C21.55 2.039 21.073 1.905 20.56 2.094V2.094ZM14.024 8.556L10.869 11.711L10.445 11.522L7.871 10.378C6.69 9.854 5.731 9.416 5.741 9.406C5.763 9.384 17.081 5.411 17.14 5.405C17.162 5.402 15.76 6.82 14.024 8.556V8.556ZM16.605 12.551C15.9424 14.4559 15.2724 16.3583 14.595 18.258C14.585 18.269 14.061 17.121 13.432 15.709L12.289 13.14L15.433 9.992C16.4778 8.93942 17.5288 7.89307 18.586 6.853C18.592 6.858 17.7 9.422 16.605 12.551" fill="black"/>
</svg>
