<svg width="24" height="24" viewBox="0 0 24 24" fill="none" xmlns="http://www.w3.org/2000/svg">
<path fill-rule="evenodd" clip-rule="evenodd" d="M11.4 2.042C10.3498 2.17487 9.36818 2.63558 8.5949 3.35858C7.82163 4.08158 7.29608 5.03004 7.09302 6.069C7.00002 6.539 7.00102 7.452 7.09402 7.931C7.29073 8.92866 7.78415 9.84365 8.50967 10.5561C9.23518 11.2686 10.159 11.7454 11.16 11.924C11.621 12.006 12.541 11.989 13 11.889C14.987 11.458 16.453 9.993 16.889 8C17.007 7.465 17.007 6.536 16.89 6C16.506 4.241 15.306 2.874 13.633 2.286C12.914 2.04928 12.1532 1.96615 11.4 2.042V2.042ZM12.86 4.12C13.3403 4.26551 13.7769 4.52812 14.1306 4.88421C14.4842 5.2403 14.7438 5.6787 14.886 6.16C14.965 6.412 14.98 6.546 14.98 7C14.98 7.454 14.965 7.588 14.886 7.84C14.571 8.85 13.853 9.568 12.839 9.886C12.587 9.965 12.455 9.98 12 9.98C11.546 9.98 11.412 9.965 11.16 9.886C9.89102 9.49 9.07202 8.442 9.01202 7.14C8.97102 6.243 9.25302 5.512 9.88302 4.883C10.2881 4.46669 10.8072 4.17933 11.375 4.057C11.739 3.974 12.501 4.006 12.86 4.12ZM7.40002 14.044C5.52402 14.266 3.92402 15.559 3.28602 17.369C3.04502 18.053 3.02102 18.271 3.02102 19.84L3.02002 21.26L3.14402 21.48C3.28302 21.728 3.57302 21.935 3.84302 21.981C4.23202 22.046 4.65602 21.837 4.85602 21.48L4.98002 21.26L5.00302 19.84C5.02402 18.5 5.03002 18.404 5.11702 18.14C5.44902 17.131 6.15902 16.426 7.16002 16.114L7.46002 16.02H16.54L16.84 16.114C17.841 16.426 18.551 17.131 18.883 18.14C18.97 18.404 18.976 18.5 18.997 19.84L19.02 21.26L19.144 21.48C19.344 21.837 19.768 22.046 20.157 21.981C20.427 21.935 20.717 21.728 20.856 21.48L20.98 21.26V19.84C20.98 18.604 20.97 18.373 20.904 18.06C20.483 16.048 19.04 14.579 17.02 14.108C16.667 14.026 16.576 14.024 12.18 14.016C9.71602 14.012 7.56502 14.025 7.40002 14.044" fill="black"/>
</svg>
