<svg width="24" height="24" viewBox="0 0 24 24" fill="none" xmlns="http://www.w3.org/2000/svg">
<path fill-rule="evenodd" clip-rule="evenodd" d="M4.34002 6.024L4.04002 6.084C3.85369 6.13082 3.67272 6.19684 3.50002 6.281C2.96208 6.52971 2.53028 6.96186 2.28202 7.5C2.00602 8.074 2.02002 7.796 2.02002 12.74C2.02002 16.852 2.02602 17.24 2.08902 17.468C2.1869 17.838 2.3637 18.1823 2.60726 18.4775C2.85082 18.7727 3.15538 19.0117 3.50002 19.178C4.06902 19.451 3.83602 19.44 9.15102 19.44C13.82 19.44 13.956 19.438 14.264 19.36C15.221 19.117 15.91 18.436 16.184 17.46C16.237 17.269 16.256 16.963 16.275 15.95L16.3 14.679L18.38 16.166C19.524 16.984 20.532 17.685 20.62 17.725C20.982 17.89 21.495 17.768 21.754 17.455C22.012 17.144 22.003 17.332 21.991 12.637L21.98 8.38L21.886 8.189C21.7842 7.99411 21.6209 7.83824 21.4215 7.7455C21.2221 7.65276 20.9977 7.62834 20.783 7.676C20.593 7.718 20.296 7.917 18.441 9.242C17.7314 9.75226 17.0187 10.2583 16.303 10.76C16.295 10.76 16.28 10.189 16.27 9.49C16.248 8.064 16.219 7.88 15.931 7.36C15.718 6.976 15.215 6.489 14.84 6.305C14.22 6.001 14.654 6.023 9.26002 6.015C6.59802 6.011 4.38402 6.016 4.34002 6.024V6.024ZM13.96 8.09C14.033 8.139 14.13 8.231 14.176 8.293C14.26 8.406 14.26 8.414 14.271 12.669C14.281 16.861 14.28 16.935 14.201 17.096C14.1455 17.1995 14.0681 17.2896 13.974 17.36L13.826 17.46H4.45402L4.29302 17.354C3.97902 17.145 4.00002 17.481 4.00002 12.71V8.452L4.09102 8.317C4.15388 8.23015 4.23017 8.15386 4.31702 8.091L4.45202 8H13.828L13.96 8.09V8.09ZM20 12.743V14.887L19.81 14.748C19.3168 14.3935 18.8228 14.0402 18.328 13.688C17.617 13.181 17.034 12.751 17.031 12.733C17.026 12.701 19.911 10.61 19.97 10.603C19.987 10.601 20 11.565 20 12.743" fill="black"/>
</svg>
