<svg width="24" height="24" viewBox="0 0 24 24" fill="none" xmlns="http://www.w3.org/2000/svg">
<path fill-rule="evenodd" clip-rule="evenodd" d="M11.04 3.72133C8.83732 3.988 6.81599 5.012 4.93466 6.81333C4.04371 7.6766 3.25375 8.63833 2.57999 9.68C2.09866 10.412 1.82132 10.9 1.73332 11.1693C1.63466 11.4707 1.67599 11.8587 1.84532 12.1893C2.41599 13.3147 3.51332 14.816 4.53866 15.8733C6.36666 17.7613 8.30932 18.876 10.48 19.2827C11.0547 19.3907 12.356 19.4333 12.9453 19.364C15.2933 19.088 17.4293 17.956 19.3813 15.9547C20.4056 14.9091 21.2891 13.7343 22.0093 12.46C22.26 12.0093 22.32 11.832 22.32 11.532C22.32 11.1547 22.1373 10.7747 21.4493 9.72C19.5173 6.76266 17.0067 4.732 14.376 4.00266C13.5947 3.78666 13.064 3.71333 12.16 3.69866C11.7865 3.6887 11.4128 3.69626 11.04 3.72133V3.72133ZM13.04 6.41733C14.5627 6.68666 15.968 7.48666 17.364 8.87866C18.052 9.564 18.5627 10.1827 19.1147 10.996L19.4787 11.532L19.3933 11.676C19.232 11.9467 18.6667 12.74 18.364 13.12C18.1973 13.3293 17.8013 13.7667 17.4827 14.0907C16.5893 15.0067 15.8013 15.5987 14.86 16.0613C14.2693 16.352 13.808 16.5147 13.2 16.6453C12.5947 16.7747 11.408 16.776 10.8107 16.6467C9.34666 16.3307 8.03732 15.5827 6.74532 14.3213C5.91199 13.508 5.13066 12.54 4.60799 11.676L4.52132 11.532L4.88532 10.996C5.43999 10.1787 5.94932 9.56266 6.63599 8.87866C8.13999 7.38133 9.65999 6.56533 11.32 6.36133C11.8937 6.31843 12.4703 6.3372 13.04 6.41733V6.41733ZM11.58 7.78666C10.9387 7.86666 10.248 8.13733 9.75999 8.49866C9.4158 8.77468 9.11275 9.09838 8.85999 9.45999C8.44332 10.0727 8.22587 10.7991 8.23732 11.54C8.23732 13.0133 9.01599 14.272 10.3307 14.92C10.9547 15.2267 11.2547 15.2947 12 15.2947C12.512 15.2947 12.6747 15.28 12.9333 15.208C14.364 14.8133 15.4053 13.7187 15.6987 12.3013C15.7827 11.7964 15.7827 11.281 15.6987 10.776C15.5735 10.215 15.3258 9.68853 14.9734 9.23443C14.6209 8.78033 14.1724 8.40978 13.66 8.14933C13.0108 7.84694 12.2932 7.72181 11.58 7.78666V7.78666ZM12.4333 10.504C12.6311 10.5922 12.8002 10.734 12.9215 10.9133C13.0429 11.0926 13.1116 11.3023 13.12 11.5187C13.12 11.972 12.912 12.3213 12.5147 12.54C12.3307 12.64 12.256 12.6573 12 12.6573C11.744 12.6573 11.6693 12.64 11.4853 12.54C11.3005 12.443 11.1461 12.2967 11.0392 12.1174C10.9324 11.938 10.8773 11.7326 10.8801 11.5238C10.8828 11.3151 10.9433 11.1112 11.0549 10.9347C11.1664 10.7582 11.3246 10.6161 11.512 10.524C11.748 10.4 12.1573 10.392 12.4333 10.504" fill="black"/>
</svg>
