<svg xmlns="http://www.w3.org/2000/svg" width="1085.824" height="686.179" viewBox="0 0 1085.824 686.179">
  <g id="yemen_map" data-name="yemen map" transform="translate(-31.7 -0.5)">
    <g id="عدن" transform="translate(224.428 651.716)">
      <path id="عدن-2" data-name="عدن" d="M182.8,537.349l7.148-11.1,4.6-2.68,9.318-3.446,21.316-3.574,18.763-5.106,8.68-.638-.638,1.787-.383,2.17-2.425,6.382-.255,1.021.511,4.212-.383,1.532-1.915.638-2.3-.383-2.3-1.021L241,525.862l.128-1.659,1.659-.638,2.042.255,1.915-.255.638-1.787L247,521.65l-1.532-2.042-.383-.893.255-.766h-1.276v1.021l-.893,1.4-.766.128-1.659-.638-2.3.128-1.021.383-1.276,2.3-1.659,1.276-1.915.383-1.4-1.532-1.276.766-.511.893.511,2.68,1.4-.893,3.191.383.383.383-.128,1.276-.638,1.149-1.532,1.149-1.659.766-1.4-.255-2.936-1.149-.893-.638-.638-.766-.255-.893-1.276-.511-2.553-.255-2.042.638-3.829,2.553-.766-1.532.511-1.021-.638-1.532-1.276-1.4-1.4-1.021-4.212-1.532-4.34-.128-3.829.766-3.063,1.532-5.489,4.6-5.872,6.382-.893,1.915-1.021.255Z" transform="translate(-182.8 -510.8)" fill="#464655" stroke="#fff" stroke-linecap="round" stroke-linejoin="round" stroke-width="1"/>
    </g>
    <g id="حضرموت" transform="translate(422.527 1)">
      <path id="حضرموت-2" data-name="حضرموت" d="M797.381,421.068,782.7,425.152,771.6,426.3l-9.7,3.957-2.808,1.659-7.659,6.637-1.532.894-4.212.766-6,3.191-6.637,4.723-1.532.128-1.915-.766-2.553.511-4.34,2.042-1.915.511-1.915.255-.638-2.17-.638-1.276-.893.128L715.18,448l-6.51.638-14.806,4.978-22.72,5.744-12.126,6.893-4.34,1.787-4.595.638-2.17,1.149-4.085,2.808-8.552,4.085-3.957,2.808-.893,3.446-1.021-.255-1.532-.766-2.042-.766-2.425.255-2.17,1.149L619.7,484l-5.106,7.4-1.915,3.829-.893,4.34.766.638v1.149l-.511,1.915-1.149.894-4.34,1.659-.893.766-.511,2.553-1.532.893-1.787.383-1.787.766-.638,1.659v2.425l-.383.638-1.4,1.276-1.149,2.936-1.659,1.149-3.957,1.659-6.127,7.658-1.915,1.149-.511.255-1.276.893-1.276.383-1.787-.128-.255-2.3-.766-2.042-2.808-5.233L573.5,521.9l-.255-1.787-.893-2.17-1.532-2.3-2.3-2.553-9.445-4.467-8.68-2.3-7.914.255-6.893-.638-7.531-3.7-5.106-5.233-1.4-2.808L519,490.76l-1.021-3.191-2.042-4.212-2.042-2.425-2.68-1.4-2.553-1.021-7.531-.128-10.594-1.659-8.041-2.808-7.786-5.233-7.276-7.148-11.488-8.169-.766-2.68,2.425-2.936,16.721-14.3,1.532-3.063v-3.191l-4.34-5.744-2.553-2.68v-2.68l.255-2.936,2.936-9.063.128-2.68,1.021-3.7,2.3-5.233,4.6-5.361,13.4-21.061-1.276-3.446L483,359.289,338,370.522l50.674-62.034,21.188-20.933-4.212-64.842,13.53.511,3.319-.383,3.063-1.276,24.38-14.3L453,203.056l11.743-32.549,1.787-3.319,25.4-31.91,16.21-20.423,9.318-11.743,8.041-10.084,2.3-1.659,30.889-15.828,37.271-19.274,19.4-9.956,9.573-3.574,13.275-1.915L770.066,22.061l16.466-2.3L803,17.338,918.13,1l.766,1.787L890.815,44.4,873.073,89.2l-6.254,32.421-9.7,30.762-12.637,28.336-13.4,19.912-41.356,34.336-7.914,9.445-8.3,5.616-18.125,7.531-4.34,2.68-2.425,2.042-2.17,2.808-1.787,4.212.128,2.425,1.149,2.3.893,3.829L738.794,309l-.255,3.957L740.2,315l1.4,1.532,2.3,1.276,1.149,2.808.638,3.7-3.957,10.977-1.787,3.063-1.659,1.915-.893,3.7v2.68l-1.021,3.063.128,2.936.383,2.553.128,1.915-1.021,2.3-.766,2.68-.893,4.212,1.021,3.7,1.787,2.425,3.191,1.021,2.936.255,4.34,1.276,1.021,1.021.638,2.042-.511,4.34-1.149,1.659-1.659,1.276-1.915,3.446-1.532,1.915-1.276,1.915-.255,1.787.128,2.042.638,1.787,1.532,1.787,6.51,2.3,5.106.128,7.914-.766,2.68-.638,2.3-.893,6.893-.383,6.893,1.787,5.616.893,2.3,1.149,1.915,2.68.893,2.042,1.149,2.042.766,2.68,1.149,1.915.766,1.915.894,1.532.128,2.042.255.638Z" transform="translate(-338 -1)" fill="#464655" stroke="#fff" stroke-linecap="round" stroke-linejoin="round" stroke-width="1"/>
    </g>
    <g id="المهرة" transform="translate(818.854 2.787)">
      <path id="المهرة-2" data-name="المهرة" d="M711.555,420.681l-.255-.638L711.172,418l-.893-1.532-.766-1.915-1.149-1.915-.766-2.68-1.149-2.042-.893-2.042-1.915-2.68-2.3-1.149-5.616-.894-6.893-1.787-6.893.383-2.3.893-2.68.638-7.914.766-5.106-.128-6.51-2.3-1.532-1.787-.638-1.787L655.137,394l.255-1.787,1.276-1.915,1.532-1.915,1.915-3.446,1.659-1.276,1.149-1.659.511-4.34-.638-2.042-1.021-1.021-4.34-1.276-2.936-.255-3.191-1.021-1.787-2.425-1.021-3.7.893-4.212.766-2.68,1.021-2.3-.128-1.915-.383-2.553-.128-2.936,1.021-3.063v-2.68l.893-3.7,1.659-1.915,1.787-3.063,3.957-10.977-.638-3.7-1.149-2.808-2.3-1.276-1.4-1.532-1.659-2.042.255-3.957,8.041-31.144-.893-3.829-1.149-2.3-.128-2.425,1.787-4.212,2.17-2.808,2.425-2.042,4.34-2.68,18.125-7.531,8.3-5.616,7.914-9.445,41.356-34.336,13.4-19.912L771.291,152l9.7-30.762,6.254-32.421,17.742-44.8L833.07,2.4l16.083,38.42,4.467,10.467,8.807,20.933,4.34,10.467,13.147,31.4,13.275,31.272,4.34,10.467,12.126,28.592-.893.128,1.532,1.021,3.829.255,1.787.638,1.149,1.4,16.721,38.292,12.892,29.1-2.17,1.149-4.85,1.276-3.829-.893-1.149,1.021-2.3.255-1.149.638-1.915,2.042-1.149.893-2.553.766-3.574,2.042-4.212.893-2.17.893-3.7,2.3-1.659.766L896,273l-6.637,3.191-11.615,8.169-10.467,8.552-2.68,2.936-1.276,2.17-1.915,3.7-3.319,3.957-.766,1.276-.511,1.276.255,2.425.511,1.276-.766,2.042-2.3,2.68-1.021,4.34-2.553,2.936-.383,1.915.766,2.042,1.4,2.425,1.021,2.553L852.6,337.2l1.659,1.659,3.319,1.659.128,1.659-.893,7.658.511,4.6,1.021,4.6,1.149,1.149.128,1.276-.511,1.021-.255,1.4-.766,1.4-.893.255-2.17.255-15.7,4.34-2.17,2.042-.893.255-2.553.383-8.169,3.191-3.957,2.553.128,2.425-.766.638.128,1.276-.383.128-1.915-1.021-.893-.766-.893-.255-2.042,1.4-5.233,1.149L801.542,388l-1.276,1.276-.511,1.532.638,2.042.894,1.149v.766l-2.17.766-10.977,1.021-1.915.638-1.787,1.021-1.532,1.021-2.425,2.936-2.042.128-.893.255-.255.766h-1.149l-5.233,2.3-1.4.893-2.68-.893-2.808,1.276-2.68,1.659-2.042.893-20.423,5.616-22.465,4.212-4.85,1.4Z" transform="translate(-648.5 -2.4)" fill="#464655" stroke="#fff" stroke-linecap="round" stroke-linejoin="round" stroke-width="1"/>
    </g>
    <g id="الجوف" transform="translate(201.197 170.763)">
      <path id="الجوف-2" data-name="الجوف" d="M453.58,185.95l4.212,64.842L436.6,271.725l-86.158,16.083-31.017,10.977-13.275,11.488-11.743,1.021-21.7-3.446L247.822,294.7l-34.591-8.169-6.765-4.212-8.807-.638-2.042.893-.893.893-5.744,1.276-2.553-2.936-3.319-5.872L182.6,273l-.128-3.319-1.021-2.808,2.3-7.02-.128-1.532-.638-1.021-.511-1.4.511-1.915.255-2.17-.383-2.425-1.4-2.553-.893-2.808-.893-3.957-1.532-3.063v-1.915l1.021-1.276.511-1.532-.638-1.787-1.532-1.659-5.872-4.467-1.659-.766L164.6,220.03l1.532-3.7,1.276-5.489,2.042-3.829,1.276-1.915,2.3-1.787,2.553-1.021.766-.638,1.532-.638,4.212-2.808L184,196.161l1.532-.255,1.021-.893,1.787-3.319,1.4-1.276,4.085-5.872,1.915-1.915,13.53-6.893,5.744-2.042,6.893-1.532,6.51-.128,6,.638,8.552-4.34,2.3-34.336,19.784.128,5.871,1.276,16.721,9.828,4.723,1.532,91.774,9.445,39.952-5.489,3.7,2.17,14.3,20.04,8.68,12.126,1.4.766,1.4.128Z" transform="translate(-164.6 -134)" fill="#464655" stroke="#fff" stroke-linecap="round" stroke-linejoin="round" stroke-width="1"/>
    </g>
    <g id="صعدة" transform="translate(90.149 160.679)">
      <path id="صعدة-2" data-name="صعدة" d="M269.317,136.184l-2.3,34.336-8.552,4.34-6-.638-6.51.128-6.893,1.532-5.744,2.042-13.53,6.893-1.915,1.915-4.085,5.872-1.4,1.276L210.6,197.2l-1.021.893-1.532.255-1.915,2.042-4.212,2.808-1.532.638-.766.638-2.553,1.021-2.3,1.787-1.276,1.915-2.042,3.829-1.276,5.489-1.532,3.7-7.276,2.17-4.34-.128-4.723-.893-10.467-4.34-7.276-1.915h-4.085L147.8,218l-1.4,1.021-2.936,1.532-2.042.893-13.275,3.191-11.488-1.021-7.786.511-2.17-.255-1.787-1.021-17.359-5.106-2.042-1.276-.638-2.553-.893-1.659-.255-1.4,1.532-2.3,2.553-1.659.511-1.149-.128-1.276-.766-1.276-1.021-.766-3.829-1.149-1.149-.893-1.276-3.957-2.17-4.212-.383-1.787.638-2.68,1.659-4.212.511-2.042v-2.3l-.638-2.425L79,174.987l-.383-1.787.511-2.17,2.17-4.212.638-2.3-.128-2.425.638-2.17,2.17-1.659,2.68-1.149,2.3-.511,2.425-1.149.255-2.17-1.021-2.425-2.042-1.532-5.872-1.915.255-.511,4.978-6.127,8.935-7.786,9.063-5.616,2.3-.893,2.3-.383,1.787.511,3.574.128,1.659.383,7.531,3.319,4.34,2.68,7.276,8.041,4.212,3.446,2.042.638h1.915l3.829-.383,4.085.383,1.787-.128,2.425-.638.638.255v1.149l-.255,2.17.638,1.4,1.915.511,2.425-.255,1.532-1.659,1.4-2.17,1.532-1.787,2.17-1.149,1.787.128,3.957,2.042,2.68.383,1.915-.893,1.659-1.915,1.4-2.68,1.532-1.149,2.17.255,4.34,1.276,1.915-.128,7.914-1.787,9.956-1.021,6.254.128,7.02,1.532,2.936-.128,6.51-2.553,2.17-.511,33.57.255Z" transform="translate(-77.6 -126.1)" fill="#464655" stroke="#fff" stroke-linecap="round" stroke-linejoin="round" stroke-width="1"/>
    </g>
    <g id="حجة" transform="translate(57.218 251.049)">
      <path id="حجة-2" data-name="حجة" d="M135.277,205.069l-.511,18.508,1.532,14.679-.255,1.787-.255,2.3.128,1.915.255,1.532v1.659l.638,1.149,3.063,2.17,1.149,1.787-.128,3.191.383,2.68.128,2.425,4.085,8.3-.128,1.532-.893,1.149-2.425,1.915-1.021,2.3,1.276,1.149,1.149-.255,3.957-4.6,1.021-.383,1.021.511,1.276,1.149,2.553,4.212,1.021,4.085.638,4.212-.383,2.042-.383,3.829.638,2.68.255,2.042,1.787,1.532.638,1.021-.511,3.829-.766,2.936-1.021,1.276-1.659.383-1.915-.511-1.659.128-1.276.894-.893.893-.511,1.149-.383,1.4v1.4l1.4,2.553-.128,1.532-2.042,3.957-2.808-.893L134,319.18l-2.17.128-2.17-.255-18.125,1.787-5.744,2.042-1.532-9.318.128-1.4.511-1.149.766-6.127-1.276-3.574V299.4l.893-1.532.638-1.787.638-2.68.255-3.446-1.276-2.936-2.68-2.042-10.594.894-3.957.893-1.532,1.149-2.17,1.149-4.467-.383L73.244,289.7,56.523,279.612l.893-14.806-.383-4.85-2.808-15.062-.383-8.041-.766-2.936v-1.4L51.8,230.6l4.978-1.787,3.574-1.532,2.68-1.787.893-1.787-.383-3.319.383-1.4,1.149-.511,3.957-.766,1.532-.511,4.467-2.68,2.17-1.659,1.276-1.787,2.68-7.02.511-2.042.128-2.3.511-1.532,1.276-.511,2.553.511,4.085,1.276,1.787-.383.638-2.17,2.042,1.276,17.359,5.106,1.787,1.021,2.17.255,7.786-.511,11.488,1.021Z" transform="translate(-51.8 -196.9)" fill="#464655" stroke="#fff" stroke-linecap="round" stroke-linejoin="round" stroke-width="1"/>
    </g>
    <g id="عمران" transform="translate(140.185 251.688)">
      <path id="عمران-2" data-name="عمران" d="M177.813,202.506l5.361,3.574,1.659.766,5.872,4.467,1.532,1.659.638,1.787-.511,1.532-1.021,1.276v1.915l1.532,3.063.893,3.957.893,2.808,1.4,2.553.383,2.425-.255,2.17-.511,1.915.511,1.4.638,1.021.128,1.532-2.3,7.02,1.021,2.808.128,3.319.511,2.936,3.319,5.872,2.553,2.936-5.616.383-6,2.3-6,3.191-1.021,2.425-.893,2.808.511,5.872.638,2.936.766,2.042-.128,2.3-.511,2.042-2.17,3.063-2.936,2.17-1.915,2.808-.128,4.85-1.149,4.467-6.254,4.978-2.936,1.4-3.319.511-3.957-.383-1.4,1.532.128,1.659-1.149,2.68-6.382-3.063-1.915-1.149-.893-1.276-1.4-.511L144.243,317l-1.915,1.4-4.6,1.787-5.361-.128-1.915.638-2.3.255L130.2,317l.128-1.532-1.4-2.553v-1.4l.383-1.4.511-1.149.893-.894,1.276-.893,1.659-.128,1.915.511,1.659-.383,1.021-1.276.766-2.936.511-3.829-.638-1.021-1.787-1.532-.255-2.042-.638-2.68.383-3.829.383-2.042-.638-4.212-1.021-4.085-2.553-4.212-1.276-1.149-1.021-.511-1.021.383-3.957,4.6-1.149.255-1.276-1.149,1.021-2.3,2.425-1.915.893-1.149.128-1.532-4.085-8.3-.128-2.425-.383-2.68.128-3.191-1.149-1.787-3.063-2.17-.638-1.149v-1.659l-.255-1.532-.128-1.915.255-2.3.255-1.787L116.8,223.439l.511-18.508,13.275-3.191,2.042-.893,2.936-1.532,1.4-1.021,2.68-.893h4.085l7.276,1.915,10.467,4.34,4.723.893,4.34.128,7.276-2.17Z" transform="translate(-116.8 -197.4)" fill="#464655" stroke="#fff" stroke-linecap="round" stroke-linejoin="round" stroke-width="1"/>
    </g>
    <g id="صنعاء" transform="translate(137.632 318.444)">
      <path id="صنعاء-2" data-name="صنعاء" d="M227,254.55l4.978,10.211,1.787,9.956v7.4l1.532,4.85,6.765,8.552,2.17,3.574-2.042,4.085-2.808,3.063-12.126,8.424-2.17,2.042.511,1.659,1.532.638,2.3.255,2.425.893,3.446,2.936,3.574,4.212,3.319,1.276,3.574-1.021,1.276-2.553,1.149-1.915,2.17-1.276,1.532.383,1.915.511,4.467,3.574,3.446,3.7,2.553,2.425,3.7.894,4.6.511,3.191,1.4,1.915,2.042,1.149,3.7v2.3l-.383,2.042.383,2.553-1.149,3.319-1.532,2.553-5.106,2.3-1.659,1.276-.511,1.532-1.4,3.063-2.3,2.425-1.276,2.425-.766,2.042-1.149,1.276-.255.893,1.4,1.4v2.042l-.511,1.659-.128,6.382-4.34,3.7-4.34,1.787-5.489.766-.128-3.7-1.021-2.425-4.085-5.744-1.915-3.957-1.532-7.148-2.936-4.34-2.3-1.532-2.68-.255-2.553.255-2.68-.255-2.17.255-2.425,1.659-1.787,2.68-2.3,2.808-2.17,1.149-4.212,1.659-2.808-.255-2.68-1.787-1.787-2.3-2.553-.383-.893,1.659-.511,2.042-1.4,1.915-3.063,1.021-7.914-1.659-2.425-2.042-2.042-2.3-2.808-1.021-1.787-1.276-2.808.128-3.319.638-3.574,1.276-5.616,4.085-2.425,1.4-2.042,1.276-1.915,1.149-3.574,3.319-2.3.638-3.957.383-4.85-.511-1.532,1.4-4.34-1.276-.383-1.149-5.361-.766-.766-3.191-1.659-2.425,1.659-2.553.638-.511V365.6l-2.425-2.3-2.042.255h-1.915l-2.808-.638-3.191-1.787L114.8,357.94l2.68-4.34,1.276-1.149,1.021-2.553-.383-5.233.766-2.808,1.787-2.3,6.382-3.957,1.149-1.149,6.893-1.4,3.829-3.957,7.276-5.233,2.17-1.021,4.085-2.808,1.787-1.915.511-4.6L157.3,308.8l1.149-2.68-.128-1.659,1.4-1.532,3.957.383,3.319-.511,2.936-1.4,6.254-4.978,1.149-4.467.128-4.85,1.915-2.808,2.936-2.17,2.17-3.063.511-2.042.128-2.3-.766-2.042-.638-2.936-.511-5.872.893-2.808,1.021-2.425,6-3.191,6-2.3,5.616-.383,5.744-1.276.893-.893,2.042-.893,8.807.638L227,254.55Zm-27.06,48.631-.766-1.021-1.787-1.149-2.17-2.3-3.319-1.4-1.4.128-2.425,1.021-1.276,1.4-1.276,1.915h-1.4l-.893.383-.766.894-1.915.638-.893,1.149-.128,2.808.128,1.149-1.021.128-.383.893-.766,1.021-1.276.255-.638.766-4.085,1.149-.128.894.511,1.276.893.766,1.787,1.021,1.4,1.659.128,1.149-1.532.511-.766.893-.511,2.17.383,1.787,3.574,2.425.383,1.021-.383,2.3.383.511h4.85l.893-.128-.128-1.532.383-.638,1.021-.128.893-.511.383-.894v-2.042l-.511-1.4-.638.128-.638-.511-.383-2.3-.766-1.4-.128-1.021.255-1.149-.128-.893.511-1.021,1.4-1.4,2.808-2.042.255-1.021-.511-2.425.638-1.021.766-1.021.638,1.021.638-1.021,3.191.255.383-.766v-1.149l.383-1.021,1.276-1.021,1.149.255-.383,1.659.766.511,1.659-.128.893-.638.638-.894-.128-.893Z" transform="translate(-114.8 -249.7)" fill="#464655" stroke="#fff" stroke-linecap="round" stroke-linejoin="round" stroke-width="1"/>
    </g>
    <g id="المحويت" transform="translate(111.21 371.288)">
      <path id="المحويت-2" data-name="المحويت" d="M163.026,297.354l-1.276,4.723-.511,4.6-1.787,1.915-4.085,2.808-2.17,1.021-7.276,5.233-3.829,3.957-6.893,1.4-1.149,1.149-6.382,3.957-1.787,2.3-.766,2.808.383,5.233-1.021,2.553-1.276,1.149-2.68,4.34-2.553-1.4-3.191-3.191-1.532-2.3-1.149-3.191-2.042-3.574-1.149-2.936-1.021-1.915-4.212-1.149-2.553-2.3-2.3-1.659-2.808-4.212-.255-2.936-.511-2.425.383-3.574-.128-3.063-.511-1.787-.128-2.3-.511-1.276-.255-4.467,5.744-2.042,18.125-1.787,2.17.255,2.17-.128,9.318,1.021,2.808.894,2.3-.255,1.915-.638,5.361.128,4.6-1.787,1.915-1.4,1.915.255,1.4.511.893,1.276,1.915,1.149,6.382,3.063Z" transform="translate(-94.1 -291.1)" fill="#464655" stroke="#fff" stroke-linecap="round" stroke-linejoin="round" stroke-width="1"/>
    </g>
    <g id="مأرب" transform="translate(247.914 308.488)">
      <path id="مأرب-2" data-name="مأرب" d="M375.813,303.934l-60.374,42.377-14.3,12.126-2.17,4.6-.766,2.3-2.425,4.467-.766,4.212v1.915l-.383,1.276-1.4.894.255,2.3-.766,2.808-.383,3.191-.255,5.744.893,3.063,1.276,1.4,2.17,1.4-.638,3.446-.766.893-1.532.766-1.021-.638-1.276-1.787-1.021-.255-.893,1.149-.128,1.532,1.787,3.319v1.915l-1.659.638-2.3-.383-2.68-.766-3.574.255-3.446,1.659-2.936,1.021-1.915.255-.894,1.021.511,1.149-.766,1.149-4.212-1.021-1.787.638-1.149,1.4L260.17,418.3h-3.319l-2.042-1.149-1.276-2.042-.893-2.3-.255-2.3-.893-2.425-.128-3.446-1.021-3.574-.893-5.489v-3.191l-.511-2.808-2.042-2.3-2.808-1.532L238.6,384.6l.128-6.382.511-1.659V374.52l-1.4-1.4.255-.893,1.149-1.276L240,368.9l1.276-2.425,2.3-2.425,1.4-3.063.511-1.532,1.659-1.276,5.106-2.3,1.532-2.553,1.149-3.319-.383-2.553.383-2.042v-2.3l-1.149-3.7-1.915-2.042-3.191-1.4-4.6-.511-3.7-.894-2.553-2.425-3.446-3.7-4.467-3.574L228,324.356l-1.532-.383-2.17,1.276-1.149,1.915-1.276,2.553-3.574,1.021-3.319-1.276-3.574-4.212-3.446-2.936-2.425-.893-2.3-.255-1.532-.638-.511-1.659,2.17-2.042L215.5,308.4l2.808-3.063,2.042-4.085-2.17-3.574-6.765-8.552-1.532-4.85v-7.4l-1.787-9.956-4.978-10.211,34.591,8.169,24.89,13.147,21.7,3.446,11.743-1.021,13.275-11.488,31.017-10.977L426.487,241.9l-50.674,62.034Z" transform="translate(-201.2 -241.9)" fill="#464655" stroke="#fff" stroke-linecap="round" stroke-linejoin="round" stroke-width="1"/>
    </g>
    <g id="أمانة_العاصمة" data-name="أمانة العاصمة" transform="translate(194.177 366.054)">
      <path id="أمانة_العاصمة-2" data-name="أمانة العاصمة" d="M187.692,292.872l.128.893-.638.894-.893.638-1.659.128-.766-.511.383-1.659L183.1,293l-1.276,1.021-.383,1.021v1.149l-.383.766-3.191-.255-.638,1.021-.638-1.021-.766,1.021-.638,1.021.511,2.425-.255,1.021-2.808,2.042-1.4,1.4-.511,1.021.128.893-.255,1.149.128,1.021.766,1.4.383,2.3.638.511.638-.128.511,1.4v2.042l-.383.893-.893.511-1.021.128-.383.638.128,1.532-.893.128h-4.85l-.383-.511.383-2.3-.383-1.021-3.574-2.425-.383-1.787.511-2.17.766-.893,1.532-.511-.128-1.149-1.4-1.659-1.787-1.021-.893-.766-.511-1.276.128-.893,4.085-1.149.638-.766,1.276-.255.766-1.021.383-.894,1.021-.128-.128-1.149.128-2.808.893-1.149,1.915-.638.766-.893.893-.383h1.4l1.276-1.915,1.276-1.4,2.425-1.021,1.4-.128,3.319,1.4,2.17,2.3,1.787,1.149.766,1.021Z" transform="translate(-159.1 -287)" fill="#464655" stroke="#fff" stroke-linecap="round" stroke-linejoin="round" stroke-width="1"/>
    </g>
    <g id="الحديدة" transform="translate(32.2 333.761)">
      <path id="الحديدة-2" data-name="الحديدة" d="M46.879,501.411l-.255-1.532.766-2.17,2.68-4.6,4.34-3.191,2.17-.766,1.276,1.021-.383,2.042-3.063,3.319-.766,2.3-1.021,1.021-5.744,2.553Zm10.339-27.826-.766.638H53.644l1.4-3.063-2.17-.766-2.553-1.4-2.17-1.915-.893-2.68.893-1.659,2.042-1.915,2.425-1.4,1.659-.511.766-.766,2.808,3.7.638,1.4v1.149l-1.4,3.957-.128,3.319ZM35.9,317.607l1.149.255,1.276-.383,1.4-.766.893.128v1.276L39.476,322.2l-.255,1.4.128.893-.255.894.128,1.149-2.042,3.063L35.9,330.754l-1.4-.128-1.149-.893L32.2,327.946v-2.425l1.021-2.553.383-5.489,1.149-1.915,2.3-2.17.893-1.659,2.3-1.149.766.255.511,1.021-2.68,1.659-.383.766.511.638-.383.638-.893.766-1.532.766-.255.511Zm75.308-12.636.255,4.467.511,1.276.128,2.3.511,1.787.128,3.063-.383,3.574.511,2.425.255,2.936,2.808,4.212,2.3,1.659,2.553,2.3L125,336.115l1.021,1.915,1.149,2.936,2.042,3.574,1.149,3.191,1.532,2.3,3.191,3.191,2.553,1.4,3.446,3.191,3.191,1.787,2.808.638h1.915l2.042-.255,2.425,2.3v1.149l-.638.511-1.659,2.553-1.4,1.021-1.532.255-3.191-1.276-1.149-.128-.766,1.532-3.063,3.191-1.915,1.659-1.915,2.808-1.659,4.6,1.4,7.914-.511,1.659-1.276,1.532-.255,1.915.383,3.446-.383,1.787.383,2.042,3.957,10.722.383,1.659,1.276,2.68.383,1.276v2.808l-.255,1.915-3.7,4.467-2.042.128-.638,1.4,3.446,14.551v3.574l1.4,3.574,1.787,1.532,2.3,1.532,3.191,1.021,5.744,3.574,2.042.766,1.659-.128,1.276-1.276,1.532-.893,1.276-1.021,1.659-.638.255,2.936.511,1.787-.638,2.936-3.957,6.382-1.659,1.021-.893-.638-1.659-.638-1.787.766-.383,1.4,1.4,1.915.893,1.276.128,1.659-1.149-.255-2.68.894-8.552,1.4-2.553.766-3.7,1.659-7.786,10.211-1.021,2.042-1.149,1.4-2.3.383-3.574,1.021-2.936,1.276-7.276,5.872-.383.128.128-2.3-.383-3.7-3.446-6.637-.511-1.021-1.021-8.807-.638-.893-6.765-7.276-2.3-5.744-2.17-4.723-2.3-3.319L87.6,448.822l-.893-3.7-1.021-3.191-1.915-5.489-2.936-9.828-.766-2.17-.511-3.319-1.276-3.063-.383-3.319-.255-1.021L77,413.21l-1.787-1.4-.511-.638.255-1.276.511-.511.766.255,1.021.766,1.021,2.17,1.276,4.85,1.532,1.4.128-3.191-.255-1.4-.638-1.276,1.532-4.34L80.7,405.041l-1.915-3.191L77.64,398.4l.255-.766.893-1.149.128-1.276-.511-.511-.511-1.276-1.4-.894-1.532-2.17-.766-3.574-.128-1.149-1.021-3.829-4.978-6.127-1.149-3.957-.128-2.17.128-1.149.766.128.511.893-.511,1.532v1.149l.766,2.042,1.276,2.17,1.659,1.915,1.915,1.276.128-1.532.638-3.574v-2.17l-1.149-3.829-.383-3.574-.638-1.276-.766-1.149-2.68-2.553-1.149-1.4-.638-1.787-.383-2.425.511-5.744-.511-1.915L65,344.794l-3.7-1.659-3.319-2.808-2.042-1.4-2.3-1.149-2.17-.766-2.3-.511H47.134l-1.4.893-.638,2.17-1.149.383-2.3-.894L39.6,337.264l-.128-2.425-.638-1.4,1.149-.128,3.446.766,1.787-.255,1.021-.766.638-1.149.383-1.4-.128-1.149-1.021-1.532-.255-1.4,2.68-4.978.766-1.149.638,1.4-.383,1.659-.638,1.659-.893,1.149,1.915.893,1.532.894,4.212,3.574.511.766.255,1.4-.255,2.042.255.638,1.4.638v-1.4l-.766-.766,1.532-1.659.638-2.425L59,322.585l-.893-3.7-1.659-3.063-.383-1.532v-1.149l.383-2.425-.383-2.425-.383-1.4-1.4-2.553-4.212-5.872.255-.893,1.149-1.4-1.915-2.3-.638-1.532-.255-1.787,1.021-3.829-.255-1.532-2.17-.766.766-1.659,1.021-.894L50.2,281.1l1.276-1.149.893-1.021.383-1.021.128-2.808.638-2.936,1.276-2.042,1.915-1.532,1.787-1.149,1.915-1.532L61.43,264l.511-2.3,16.721,10.084,6.893-1.021,4.467.383L92.191,270l1.532-1.149,3.957-.893,10.594-.894,2.68,2.042,1.276,2.936-.255,3.446-.638,2.68-.638,1.787-.893,1.532V283.4l1.276,3.574-.766,6.127-.511,1.149-.128,1.4,1.532,9.318Z" transform="translate(-32.2 -261.7)" fill="#464655" stroke="#fff" stroke-linecap="round" stroke-linejoin="round" stroke-width="1"/>
    </g>
    <g id="ريمة" transform="translate(133.93 438.427)">
      <path id="ريمة-2" data-name="ريمة" d="M129.132,343.828l1.659,2.425.766,3.191,5.361.766.383,1.149,4.34,1.276.128,1.915,1.149,3.7,2.425,3.319,6.765,7.531,2.042,3.319,1.149,2.808,1.659,2.3.893,1.915-.893,2.553-3.063,4.085-1.787,1.4-1.787,1.787-6.51,3.957-1.532,1.149-1.659.511-2.68.383-1.532-.128-2.3-.893-3.063.128-1.787.766-1.021,1.4-3.574,3.063-6.127,3.446-1.787.128-2.425.128,3.7-4.467.255-1.915v-2.808l-.383-1.276-1.276-2.68-.383-1.659-3.957-10.722-.383-2.042.383-1.787L111.9,370.5l.255-1.915,1.276-1.532.511-1.659-1.4-7.914,1.659-4.6,1.915-2.808,1.915-1.659,3.063-3.191.766-1.532,1.149.128L126.2,345.1l1.532-.255,1.4-1.021Z" transform="translate(-111.9 -343.7)" fill="#464655" stroke="#fff" stroke-linecap="round" stroke-linejoin="round" stroke-width="1"/>
    </g>
    <g id="ذمار" transform="translate(133.675 428.343)">
      <path id="ذمار-2" data-name="ذمار" d="M249.17,364.9l-7.786,9.445-2.553,10.467-1.915,15.062-2.553,5.106-3.446,3.319-3.829,1.915-2.425,5.616-2.042.893-3.063-1.276-5.872-2.042-4.723-3.063-2.425-1.021L203.6,408.3l-2.3-1.4-5.106-1.4-2.3-1.021-1.915-2.042-4.467-3.7-1.659-.638-1.276.383-1.149,1.787-.128,1.4-.766,1.787-1.149,1.787-4.723,1.915-2.68-.638-.766-1.532-1.4-5.489-1.532-.255-1.915.766-2.425,2.68-2.808,2.3-2.3,2.936h-2.425l-1.659.766-.766,1.021v1.787l.893,1.659.255,2.425L157.013,418l-2.68,5.106-2.425,1.276-2.808.638-1.659-.766-.383-1.915.383-2.3-.511-1.021-.893.128-.766,1.659-1.659,2.425-1.659,4.467-1.4,2.042-1.532,3.446-1.659.638-1.276,1.021-1.532.893-1.276,1.276-1.659.128-2.042-.766-5.744-3.574-3.191-1.021-2.3-1.532-1.787-1.532-1.4-3.574v-3.574L111.7,407.024l.638-1.4,2.042-.128,2.425-.128,1.787-.128,6.127-3.446,3.574-3.063,1.021-1.4,1.787-.766,3.063-.128,2.3.893,1.532.128,2.68-.383,1.659-.511,1.532-1.149,6.51-3.957,1.787-1.787,1.787-1.4,3.063-4.085.893-2.553-.893-1.915-1.659-2.3L154.2,374.6l-2.042-3.319-6.765-7.531-2.425-3.319-1.149-3.7-.128-1.915,1.532-1.4,4.85.511,3.957-.383,2.3-.638,3.574-3.319,1.915-1.149,2.042-1.276,2.425-1.4,5.616-4.085,3.574-1.276,3.319-.638,2.808-.128,1.787,1.276,2.808,1.021,2.042,2.3,2.425,2.042,7.914,1.659,3.063-1.021,1.4-1.915.511-2.042.893-1.659,2.553.383,1.787,2.3,2.68,1.787,2.808.255,4.212-1.659,2.17-1.149,2.3-2.808,1.787-2.68,2.425-1.659,2.17-.255,2.68.255,2.553-.255,2.68.255,2.3,1.532,2.936,4.34,1.532,7.148,1.915,3.957,4.085,5.744,1.021,2.425.128,3.7Z" transform="translate(-111.7 -335.8)" fill="#464655" stroke="#fff" stroke-linecap="round" stroke-linejoin="round" stroke-width="1"/>
    </g>
    <g id="شبوة" transform="translate(338.795 359.29)">
      <path id="شبوة-2" data-name="شبوة" d="M596.1,455.548l-10.977-.255-1.787.638-4.6,3.957-1.021.383-1.659.255-.893.893-1.915-2.3-3.574-.638h-7.914l.766,1.4-4.34.128-11.871,3.446.511-2.553-1.659-1.659-2.3-1.149-1.532-1.149-.638.766-2.808-1.276-9.19-2.3-1.532.893-5.489,1.659-1.787.255-1.4,1.021-5.233,6.254-4.723,2.553-15.828,5.361-2.17,1.532-8.424,8.935-13.147,11.743-3.957,2.425L457.48,499.2l-1.021-5.489-.766-2.68-.128-4.085-3.191-10.211-5.361-11.36,1.021-2.553,1.4-1.915,1.276-2.68-.511-3.446.128-4.723-1.4-4.467-3.7-2.425-14.168-.766-6.893-1.532-6.637-2.425-7.4-.893-7.786,1.021L392,441.379l-8.169,3.574-12,2.042-1.787-2.553-.638-2.936L365.834,435l-1.4-3.957L362,428.1l-3.063.255-3.191,1.659-9.063,3.319-3.063,2.3-3.957,1.915-4.6,1.532-9.318.766-2.3-2.17-.383-1.787-.893-1.787-.128-1.4-.383-1.276v-1.149L321.414,429l-2.042-1.4-4.34-1.787-4.723-.894-3.574-2.425-2.3-3.574-5.872-15.7-2.3-1.915-4.467-1.021-1.915-1.659.128-2.553.766-2.17,1.276-2.17.511-2.042-1.787-1.532L288.355,387H276.74l-2.17-1.4-1.276-1.4-.894-3.063.255-5.744.383-3.191.766-2.808-.255-2.3,1.4-.893.383-1.276v-1.915l.766-4.212,2.425-4.467.766-2.3,2.17-4.6,14.3-12.126,60.374-42.377,145-11.232,9.318,3.319,1.276,3.446-13.4,21.061-4.6,5.361-2.3,5.233-1.021,3.7-.128,2.68-2.936,9.063-.255,2.936v2.68l2.553,2.68,4.34,5.744V352.8l-1.532,3.063-16.721,14.3-2.425,2.936.766,2.68,11.488,8.169,7.276,7.148,7.786,5.233,8.041,2.808,10.594,1.659,7.531.128,2.553,1.021,2.68,1.4,2.042,2.425,2.042,4.212,1.021,3.191,2.553,3.446,1.4,2.808,5.106,5.233,7.531,3.7,6.893.638,7.914-.255,8.68,2.3,9.445,4.467,2.3,2.553,1.532,2.3.893,2.17.255,1.787.638,1.659,2.808,5.233.766,2.042.255,2.3Z" transform="translate(-272.4 -281.7)" fill="#464655" stroke="#fff" stroke-linecap="round" stroke-linejoin="round" stroke-width="1"/>
    </g>
    <g id="البيضاء" transform="translate(246.637 451.191)">
      <path id="البيضاء-2" data-name="البيضاء" d="M296.7,367.1h11.615l2.425,1.149,1.787,1.532-.511,2.042L310.737,374l-.766,2.17-.128,2.553,1.915,1.659,4.467,1.021,2.3,1.915,5.872,15.7,2.3,3.574,3.574,2.425,4.723.893,4.34,1.787,2.042,1.4.255,1.276v1.149l.383,1.276.128,1.4.894,1.787.383,1.787,2.3,2.17-1.532,8.935-2.808,3.957-1.659,4.978-3.829,3.446-17.614,13.019-4.212,2.553-3.191,1.4-2.808.638-2.17.255h-2.042l-3.7-1.915-1.532-2.936-3.191-1.021-14.3-1.4-1.149-.511.638-8.169-1.276-5.361-1.659-.893-2.3.383-5.361,3.446-2.3,2.042-3.191,1.659-1.659-.255-6-.128-.128-2.808-.511-2.553-2.68-3.191-7.658-7.276-2.808-3.574-1.787-3.191-2.3-2.936-3.319-1.276-4.34-.128-2.68-.383-2.3.894-1.659.255-1.4,1.149-1.787.638h-2.808l-2.936.511-2.042,1.276-4.467,1.659-3.574-2.17-1.149-.383-1.021-1.532.128-6-3.446-2.17,2.425-5.616,3.829-1.915,3.446-3.319,2.553-5.106,1.915-15.062,2.553-10.467,7.786-9.445,5.489-.766,4.34-1.787,4.34-3.7,5.489,1.149,2.808,1.532,2.042,2.3.511,2.808v3.191l.893,5.489,1.021,3.574.128,3.446.893,2.425.255,2.3.893,2.3,1.276,2.042,2.042,1.149h3.319l3.957-2.936,1.149-1.4,1.787-.638,4.212,1.021.766-1.149-.511-1.149.894-1.021,1.915-.255,2.936-1.021L281,377.186l3.574-.255,2.68.766,2.3.383,1.659-.638v-1.915l-1.787-3.319.128-1.532.893-1.149,1.021.255,1.276,1.787,1.021.638,1.532-.766.766-.894.638-3.446Z" transform="translate(-200.2 -353.7)" fill="#464655" stroke="#fff" stroke-linecap="round" stroke-linejoin="round" stroke-width="1"/>
    </g>
    <g id="إب" transform="translate(149.375 490.632)">
      <path id="إب-2" data-name="إب" d="M221.263,402.342l3.446,2.17-.128,6,1.021,1.532,1.149.383,3.574,2.17-1.149,3.319-1.532,1.276-2.042-.128-2.17.255-.893.893-.128,1.4-1.021,2.3-1.659,1.659-.766,2.3.638,2.17,1.915,1.787-1.021,1.915-1.915.511H216.54l-2.425.511-2.68,1.021-2.553,1.787-1.659,2.68-.255,1.915-.766,3.063-1.021.638-1.149-.128-1.276.766-1.532,4.34-1.659,1.021-.766,1.915.128.638-.638,2.68-1.021,1.532-1.4,1.659-3.829,2.68-2.553.255-2.17-.766-1.532-.766-2.042-.766-3.7-.128-7.658-2.425-2.553-1.532-5.233-.638-11.871-3.446-.766-1.4.511-1.276v-2.042l-1.532-.638-4.723,1.915-.893-1.149.128-1.915-.638-1.532-4.85.638-2.17,1.021-2.553-.766-2.3,1.149-6.127-.255L124,441.145l2.68-.893,1.149.255-.128-1.659-.893-1.276-1.4-1.915.383-1.4,1.787-.766,1.659.638.893.638,1.659-1.021,3.957-6.382.638-2.936-.511-1.787-.255-2.936,1.532-3.446,1.4-2.042,1.659-4.467,1.659-2.425.766-1.659.893-.128.511,1.021-.383,2.3.383,1.915,1.659.766,2.808-.638,2.425-1.276,2.68-5.106.128-2.425-.255-2.425L152.592,398v-1.787l.766-1.021,1.659-.766h2.425l2.3-2.936,2.808-2.3,2.425-2.68,1.915-.766,1.532.255,1.4,5.489.766,1.532,2.68.638,4.723-1.915,1.149-1.787.766-1.787.128-1.4,1.149-1.787,1.276-.383,1.659.638,4.467,3.7,1.915,2.042L192.8,392l5.106,1.4,2.3,1.4,2.936,1.021,2.425,1.021,4.723,3.063,5.872,2.042,3.063,1.276,2.042-.893Z" transform="translate(-124 -384.6)" fill="#464655" stroke="#fff" stroke-linecap="round" stroke-linejoin="round" stroke-width="1"/>
    </g>
    <g id="الضالع" transform="translate(223.662 514.246)">
      <path id="الضالع-2" data-name="الضالع" d="M261.848,430.415l-6.382,14.3-3.7,3.574-4.34,2.042-4.6,3.063-8.424,3.446-3.319.255-2.553.511-.128,7.786.383,2.553-.638,2.17-2.3.255-4.085-1.532-1.659,1.021L218.45,471.9l-7.02,2.936-3.7,2.553-2.808.511-4.212-3.191-1.4-1.659-4.085-1.532-.255-2.17-.511-1.276-3.191-1.659-2.3-.128-2.3.511-2.17-.638-1.532-1.659.128-2.17.893-2.425.383-2.553-.255-2.425-1.915-2.936.638-2.68-.128-.638.766-1.915,1.659-1.021,1.532-4.34,1.276-.766,1.149.128,1.021-.638.766-3.063.255-1.915,1.659-2.68,2.553-1.787,2.68-1.021,2.425-.511H202.5l1.915-.511,1.021-1.915-1.915-1.787-.638-2.17.766-2.3L205.3,418.8l1.021-2.3.128-1.4.893-.893,2.17-.255,2.042.128,1.532-1.276,1.149-3.319,4.467-1.659,2.042-1.276,2.936-.511h2.808l1.787-.638,1.4-1.149,1.659-.255,2.3-.893,2.68.383,4.34.128,3.319,1.276,2.3,2.936,1.787,3.191,2.808,3.574,7.658,7.276,2.68,3.191.511,2.553.128,2.808Z" transform="translate(-182.2 -403.1)" fill="#464655" stroke="#fff" stroke-linecap="round" stroke-linejoin="round" stroke-width="1"/>
    </g>
    <g id="تعز" transform="translate(102.275 547.177)">
      <path id="تعز-2" data-name="تعز" d="M109.948,562.158l-.128,1.4-1.276.766-.638-.255-1.787-1.915-1.276.255-.638-.255-.255-1.4,1.659-.766,2.3-.128,1.4.766.638,1.532Zm98.539-117.3,1.915,2.936.255,2.425-.383,2.553-.893,2.425-.128,2.17,1.532,1.659,2.17.638,2.3-.511,2.3.128,3.191,1.659.511,1.276.255,2.17-.893,2.3-1.4.638-.893,1.276-1.021,1.149-1.787.766h-1.4l-1.276.383-.383.766.128,1.4-.766.638-2.936.511-1.787.766L205.424,476l-.766,1.787.766,1.532,1.787.766,1.4.766,3.063.383,1.149,1.4.255,1.915-1.021,1.149-6.637.128-2.3.638-.638,1.4.893,2.042.128,1.787-.255,2.68.511,2.042-.383,2.425-2.425,1.915-5.361,1.276-4.34.128-4.34-.766-1.276,2.3-2.3,1.915.128,3.191-1.149.893-2.3.255-1.276.383-1.021,2.042-.511,2.3-1.149,1.021-2.425-.383-3.957-2.425-.766.638.383,5.233-.511,1.659-1.915-.128-2.808-1.276-1.915-1.659-3.829-2.3-1.915-.638-1.915-.893-2.042-.255-2.042.51-2.042.893-1.532,1.532-1.787.893-1.532.766-3.7.511-1.4,1.021v1.787l.893,1.276.383,1.659-.255,2.425-3.574,5.489-5.872,5.871-7.914,12.126-3.7,7.531-.511.638-1.4.766-2.17.255-2.425-.383-.511-1.021,1.915-8.424.128-4.085-1.021-3.7-2.042-3.319-3.063-2.936-.766-2.425-1.4-1.532-.383-.766-.128-2.042-.383-2.042-.638-1.915-1.021-1.659-3.574-4.085-.766-2.17-1.276-2.425-1.021-2.68-.383-.893L89.4,502.932,87.1,495.4l1.276-3.319.893-3.574.638-18.763,2.17-3.319.511-1.787.383-.638,1.149-.511-1.4-3.319.255-5.106.383-.128,7.276-5.872,2.936-1.276,3.574-1.021,2.3-.383,1.149-1.4,1.021-2.042,7.786-10.211,3.7-1.659,2.553-.766,8.552-1.4,2.808,5.361,6.127.255,2.3-1.149,2.553.766,2.17-1.021,4.85-.638.638,1.532-.128,1.915.893,1.149,4.723-1.915,1.532.638v2.042l-.511,1.276.766,1.4,11.871,3.446,5.233.638,2.553,1.532,7.658,2.425,3.7.128,2.042.766,1.532.766,2.17.766,2.553-.255,3.829-2.68,1.4-1.659,1.021-1.532Z" transform="translate(-87.1 -428.9)" fill="#464655" stroke="#fff" stroke-linecap="round" stroke-linejoin="round" stroke-width="1"/>
    </g>
    <g id="لحج" transform="translate(133.547 534.413)">
      <path id="لحج-2" data-name="لحج" d="M304.466,433.324l-3.829,1.021L299.871,436l-.383,3.319.383,2.17-.383,1.659-2.936,1.659-3.829.893-1.276,1.276-.766,1.659.383,1.659v1.787l-.255,1.532-1.915,1.532-3.957,2.425v1.4l1.532.766L291.7,460l1.787.766.511,1.021-1.021,1.4-5.744,6.51-2.808,4.34-.255,4.212.383,3.063,1.4,1.659,1.532.893,1.276,1.276.128,1.276-.893,2.3-4.978,3.446-6.765,18.763-3.319,24L272.3,536.2l-8.68.638-18.763,5.106-21.316,3.574-9.318,3.446-4.6,2.68-7.148,11.1-.255-1.149-.511-.128-2.425.894-2.936.766-6.637,3.191-2.3.255-2.042-.255h-2.042l-3.829,2.17h-2.3l-1.915-.638-1.276-1.532,1.4.128,2.553.511,1.4.128.893-.766v-1.4l-.766-.893-1.149.893-2.68-.383-3.319,1.4-6.127,3.319-2.936.766h-1.659l-2.68-.893-3.063,1.4-1.532.128-2.042-1.276-1.787-3.7L149,564.922l-2.042-.255-1.787-.766-2.808-1.915-1.659-.894-1.915-.638-2.17-.511-2.3-.128-1.4-.511-3.957-2.3-2.042-.766h-3.7l-.893-.383-1.659-1.149-1.915-.766-1.276.511-5.871,5.871,3.7-7.531,7.914-12.126,5.871-5.872,3.574-5.489.255-2.425-.383-1.659-.893-1.276v-1.787l1.4-1.021,3.7-.511,1.532-.766,1.787-.893,1.532-1.532,2.042-.893,2.042-.511,2.042.255,1.915.893,1.915.638,3.829,2.3,1.915,1.659,2.808,1.276,1.915.128.511-1.659-.383-5.233.766-.638,3.957,2.425,2.425.383,1.149-1.021.511-2.3,1.021-2.042,1.276-.383,2.3-.255,1.149-.893-.128-3.191,2.3-1.915,1.276-2.3,4.34.766,4.34-.128,5.361-1.276,2.425-1.915.383-2.425-.511-2.042.255-2.68-.128-1.787-.893-2.042.638-1.4,2.3-.638,6.637-.128,1.021-1.149-.255-1.915-1.149-1.4-3.063-.383-1.4-.766-1.787-.766-.766-1.532.766-1.787,1.659-1.021,1.787-.766,2.936-.511.766-.638-.128-1.4.383-.766,1.276-.383h1.4l1.787-.766,1.021-1.149.893-1.276,1.4-.638.893-2.3,4.085,1.532,1.4,1.659,4.212,3.191,2.808-.511,3.7-2.553,7.02-2.936,1.659-2.042,1.659-1.021L245.368,466l2.3-.255.638-2.17-.383-2.553.128-7.786,2.553-.511,3.319-.255,8.424-3.446,4.6-3.063,4.34-2.042,3.7-3.574,6.382-14.3,6,.128,1.659.255,3.191-1.659,2.3-2.042,5.361-3.446,2.3-.383,1.659.893,1.276,5.361-.638,8.169Z" transform="translate(-111.6 -418.9)" fill="#464655" stroke="#fff" stroke-linecap="round" stroke-linejoin="round" stroke-width="1"/>
    </g>
    <g id="أبين" transform="translate(294.886 505.694)">
      <path id="أبين-2" data-name="أبين" d="M466.989,467.5l-16.21,4.978-26.294,5.489-8.935,6.127-12.764,4.85L401,489.2l-2.042-.255-3.574-1.149h-2.425l-2.17.638-4.467,1.915-2.17.383H362.961l-4.6-.766-2.17-1.276-1.4-.383-1.021.766-2.808.893-8.807,1.4-17.614.766-1.787.511-3.319,1.4-1.532.255-4.34-.255-1.915.255-1.149.766-14.168,3.191-3.446,1.787-9.956,10.211-2.808,2.17-1.532,1.4-1.276,3.957-4.85,6.254-3.191,2.936-3.829,1.787L247.7,533.1l-4.085,2.17-3.7,3.191-1.4,1.787-.511.893,3.319-24,6.765-18.763,4.978-3.446.893-2.3-.128-1.276-1.276-1.276-1.532-.893-1.4-1.659-.383-3.063.255-4.212,2.808-4.34,5.744-6.51,1.021-1.4-.511-1.021-1.787-.766-5.233-.255L250,465.2v-1.4l3.957-2.425,1.915-1.532.255-1.532v-1.787l-.383-1.659.766-1.659,1.276-1.276,3.829-.893,2.936-1.659.383-1.659-.383-2.17.383-3.319.766-1.659,3.829-1.021,1.149.511,14.3,1.4,3.191,1.021,1.532,2.936,3.7,1.915h2.042l2.17-.255,2.808-.638,3.191-1.4,4.212-2.553,17.615-13.019,3.829-3.446,1.659-4.978,2.808-3.957,1.532-8.935,9.318-.766,4.6-1.532,3.957-1.915,3.063-2.3,9.063-3.319,3.191-1.659,3.063-.255,2.425,2.936,1.4,3.957,3.574,6.51.638,2.936,1.787,2.553,12-2.042,8.169-3.574,10.339-2.808,7.786-1.021,7.4.893,6.637,2.425,6.893,1.532,14.168.766,3.7,2.425,1.4,4.467-.128,4.723.511,3.446-1.276,2.68-1.4,1.915-1.021,2.553,5.361,11.36,3.191,10.211.128,4.085.766,2.68,1.021,5.489Z" transform="translate(-238 -396.4)" fill="#464655" stroke="#fff" stroke-linecap="round" stroke-linejoin="round" stroke-width="1"/>
    </g>
    <g id="سقطرى" transform="translate(826.385 547.177)">
      <path id="سقطرى-2" data-name="سقطرى" d="M927.424,591l.255.766-4.85-.383-1.532-.638,2.042-.766,1.915.128Zm-27.7-6.51,1.4.638h1.659l1.4,1.021.511,1.659-.128,1.532-1.532.383-1.532.255-3.063-1.149-2.042-1.787-2.17-.638.255-1.021,1.659-.511,1.276.128,1.149-.383,1.149-.128Zm-88.455-3.574,2.17.894,1.659-.128,3.063.511,4.467.128,3.063,1.4,5.616-1.4,1.532.383.638,1.021-1.4.511-1.021,1.149.766.638,1.021,1.787-2.936-.511-3.063.766-4.723-.893-4.6-.255-1.659-2.425H814.59l-2.17.638-1.149.128-.383-.383-1.4-2.17-.511.128-2.042-.894-2.553.638-1.021-.893-3.446-1.532-.511-1.4,1.532-.511,1.532-.255,2.553.128,3.063.638,3.191,2.17ZM954.74,529.349l3.319.383,4.978-.511,4.085,3.7,7.02,5.233,8.552,2.3,2.17-2.68,1.021-2.553,2.808-.511,1.915.255,1.787.766,3.446-.383,3.574.128,3.829-2.3,1.276-.383,2.553-1.659,1.021-1.276,2.808-.255,1.276,1.276,1.532,1.149,2.17,1.4,1.532-.383,1.276-.766.51.255,1.915,2.17h1.915l2.3.511,1.021,1.659,1.532.638,3.574,1.532,4.212.893,4.212,2.425,2.17.638,4.978,3.191,2.681-.383,1.915-1.149,1.149.128,1.4.766-1.276,1.276-3.063.893-2.17.638-2.042.383-1.021.893-.255,2.808-4.34,1.787-3.446.894-4.212,1.659-4.6-.383-3.829,1.4-.894.893-1.915,2.68-.894.638-2.68,1.149-3.063,2.425-1.4.893-3.063-.255-4.85.383-1.659-.255-1.787.383-2.3,2.042-3.957-1.276-3.063.766-4.467.638-12.381,2.425-4.6.511-6-.638-5.616-1.659-4.723-1.276-2.17-2.17-3.319-4.085-1.4-2.425-2.68-.893L940.7,555.9,930.1,549.133l-2.553-2.3-.255-.638.893-.638,2.808.766,2.042-.255,2.68-1.659.255-.893,1.149-3.063-.638-6.127,1.532-.638,1.659-.383,4.34-.638,2.17-3.191.894-1.021,2.042-.255,5.616,1.149Z" transform="translate(-799.4 -528.2)" fill="#464655" stroke="#fff" stroke-linecap="round" stroke-linejoin="round" stroke-width="1"/>
    </g>
  </g>
</svg>
