<svg xmlns="http://www.w3.org/2000/svg" width="229.989" height="145.745"><path d="M129.849 1.942c-.789.417-3.492 1.514-6.004 2.438-2.513.924-5.576 2.348-6.806 3.163-4.569 3.03-8.097 4.223-14.094 4.766-2.544.23-4.661.451-4.704.491-.044.04-.365 1.877-.714 4.082-.562 3.549-.823 4.294-2.277 6.5-.904 1.371-1.956 3.5-2.338 4.732-.9 2.899-2.072 3.965-13.81 12.573-13.055 9.573-15.025 10.639-20.266 10.965-2.789.174-3.281.095-5.082-.817-1.43-.725-2.205-1.424-2.74-2.472-.969-1.9-1.957-2.185-10.199-2.939-3.58-.328-7.065-.747-7.747-.931-1.568-.425-4.243.318-4.823 1.339-.232.408-.448 2.121-.482 3.807-.034 1.687-.085 3.285-.113 3.552-.079.742-2.264 1.933-5.129 2.794-3.155.948-3.733 1.785-3.455 5.003.104 1.202.001 2.494-.233 2.931-.23.43-1.64 1.587-3.133 2.57-1.493.984-2.647 1.994-2.564 2.244.19.57 1.789.926 4.42.985 3.252.073 5.359 1.602 4.204 3.052-.267.335-1.831 2.146-3.475 4.023-1.643 1.877-3.621 4.383-4.394 5.57-1.347 2.067-1.407 2.301-1.42 5.554l-.013 3.395 2.209 1.971c3.298 2.942 3.021 4.734-1.215 7.845l-2.528 1.856-3.322 9.359-3.322 9.36-1.373 10.008c-.756 5.504-1.374 10.222-1.374 10.483 0 .261.992-.374 2.204-1.411 3.707-3.171 5.317-3.838 15.129-6.266 9.837-2.435 12.633-3.556 14.904-5.977 2.977-3.174 5.615-6.918 6.274-8.905.463-1.397 1.135-2.447 2.074-3.24.763-.645 4.062-3.784 7.33-6.974 3.267-3.191 6.614-6.184 7.436-6.651.827-.47 4.513-1.528 8.242-2.364 3.71-.833 7.312-1.772 8.004-2.087.824-.376 2.469-.574 4.762-.574 2.897 0 3.938-.175 6.024-1.014 2.349-.945 3.218-1.049 12.679-1.521 10.478-.522 16.628-1.37 19.364-2.668 1.227-.582 1.6-.609 2.629-.188l2.731 1.119c1.316.54 3.351.629 14.375.63l12.841.001 2.773-1.253c3.799-1.715 5.474-1.888 8.684-.896 1.438.444 3.034.807 3.547.807.513 0 3.902-1.126 7.53-2.501 5.699-2.161 7.216-2.925 11.14-5.606l4.543-3.105 13.281-2.78c8.89-1.861 15.809-3.559 20.924-5.135 4.204-1.295 7.695-2.406 7.757-2.469.121-.121-.762-4.769-1.396-7.344-.207-.843-.381-2.249-.386-3.125-.015-2.525-2.818-10.851-5.759-17.106-1.854-3.942-2.628-6-2.464-6.557.131-.446.903-1.932 1.715-3.302l1.477-2.492-.17-4.78c-.219-6.179-.774-7.905-2.99-9.304-1.571-.992-2.048-1.073-8.528-1.45-7.594-.441-12.707-1.361-17.277-3.107-4.515-1.726-9.862-2.312-14.82-1.626-5.436.754-13.061 2.889-18.274 5.119-3.696 1.582-5.361 2.044-10.313 2.867-3.248.54-5.935.937-5.971.882a167.71 167.71 0 0 0-1.058-1.442c-.546-.738-1.116-2.009-1.267-2.825-.152-.816-1.039-2.864-1.972-4.55-.933-1.687-2.059-4.038-2.502-5.225-1.202-3.216-2.483-4.653-4.132-4.632-.738.009-1.988.358-2.778.775" fill="#464655" fill-rule="evenodd"/></svg>