<svg xmlns="http://www.w3.org/2000/svg" width="80.648" height="75.798"><path d="M50.843 1.469c-.535.211-1.346.449-1.801.529-.838.148-.912.184-1.782.876-.867.687-2.056 1.024-3.62 1.024-.815 0-2.005.115-2.918.281-1.347.246-1.664.358-2.524.893-.549.342-1.908.956-3.078 1.391-1.152.428-2.145.858-2.207.955-.062.097-.328.823-.593 1.613-.473 1.414-.494 1.448-1.377 2.201l-.896.765-1.124-.07a13.512 13.512 0 0 0-2.083.05c-1.202.151-1.567.46-1.672 1.415-.039.36-.309 1.199-.599 1.864-.414.95-.708 1.397-1.375 2.083-.682.702-.905 1.044-1.134 1.74-.345 1.049-.347 1.147-.05 2.18.21.728.34.91 1.21 1.69.633.569.974.975.973 1.161-.001.157-.259.74-.573 1.294-.543.957-.61 1.021-1.31 1.26-.442.151-1.409.297-2.417.365-.924.063-2.059.199-2.521.303-1.606.362-3.409 1.143-4.669 2.022-1.09.76-1.287.966-1.996 2.094-.677 1.074-.806 1.385-.917 2.207-.138 1.014-.702 3.439-.919 3.949-.072.167-.411.482-.755.7-.528.335-.716.385-1.202.318-.453-.062-.679-.016-1.05.213-.502.31-.486.278-1.5 3.156l-.516 1.466-.836.524c-.73.458-.875.62-1.144 1.283-.169.418-.294.943-.277 1.168.017.225-.103.966-.267 1.647l-.298 1.238.926 1.384.926 1.384.149 1.329c.189 1.683-.031 3.374-.673 5.19-.248.703-.488 1.687-.533 2.188l-.082.911.676.714c.577.611.813.755 1.619.99.935.273.952.273 2.05.022.866-.198 1.385-.236 2.384-.171 1.245.081 1.318.105 2.909.943.898.473 1.692.935 1.765 1.026.226.282.674 1.739.792 2.574l.112.796 1.949.73c1.929.723 1.956.739 2.621 1.539.587.707 4.159 3.61 4.693 3.815.105.04.722-.026 1.371-.148 1.135-.213 1.246-.267 2.989-1.476 1.666-1.155 2.087-1.37 5.298-2.712l3.487-1.457.795-.995c.558-.699 1.074-1.17 1.734-1.58.517-.322.981-.585 1.032-.585.051 0 .987.333 2.08.739 1.95.726 2.474.824 3.494.655.476-.079.502-.112.727-.944.209-.772.215-1 .059-2.182-.212-1.599-.131-9.081.1-9.312.229-.229 2.423-.627 4.357-.791l1.791-.151 4.099-1.673c4.033-1.646 4.139-1.699 6.519-3.273 1.732-1.144 2.993-1.86 4.436-2.515l2.016-.917 1.85-1.814 1.85-1.815 3.09-6.922 3.09-6.922v-1.296c0-.77-.109-1.825-.269-2.601l-.268-1.305-1.225-1.469c-.674-.809-2.996-3.161-5.161-5.227-4.432-4.232-6.096-6.177-7.587-8.869a27.486 27.486 0 0 0-1.974-2.976l-1.118-1.429-1.448-.575-1.448-.574-2.42-.103c-1.33-.056-2.812-.167-3.293-.246-1.233-.203-1.426-.184-2.519.248" fill="#464655" fill-rule="evenodd"/></svg>