<svg xmlns="http://www.w3.org/2000/svg" width="70.82" height="27.549"><path d="M68.459 1.138c-.162.022-1.755.144-3.541.272l-3.246.233-9.324 2.536-9.325 2.536L32.4 8.495c-10.399 1.742-10.655 1.792-12.122 2.333-.825.305-1.483.57-1.464.59.02.019.429-.049.909-.153.718-.154 1.284-.173 3.173-.106l2.299.082 2.127.771c1.705.618 2.288.889 2.935 1.363 1.138.833 2.067 1.956 2.489 3.007l.345.862-.243.5c-.231.476-.234.521-.048.879l.195.378 1.677-1.12c1.371-.915 1.882-1.185 2.796-1.478 1.111-.356 1.127-.357 2.451-.23 2.061.199 3.163.706 3.163 1.456 0 .241.538.898 1.024 1.25.535.388 2.762 1.273 3.73 1.483.667.145.699.14 1.475-.238 1.067-.519 2.016-1.255 2.329-1.807.314-.551.458-1.428.248-1.509-.079-.03-.725-.128-1.435-.217l-1.292-.162-.789.47c-1.101.655-1.179.597-1.499-1.12-.315-1.689-.313-1.782.045-2.393.321-.547 1.478-1.347 1.949-1.347.172 0 .497.25.928.714l.664.714.708-.139c.54-.106.892-.277 1.476-.717.648-.487.868-.755 1.416-1.725.84-1.485 1.166-1.669 3.129-1.766 1.241-.061 1.376-.045 2.169.258.465.178.923.294 1.017.258.094-.036.33-.32.526-.631.263-.419.355-.71.357-1.122.003-.675.176-.801 1.103-.801.454 0 .724.065.917.221.25.203.262.26.139.661-.101.33-.101.516.001.752.213.489 1.447 2.08 1.786 2.303.168.11.306.291.306.403.001.287-.598 1.942-.771 2.133-.246.27-2.119.462-3.235.332-.846-.098-1.075-.084-1.618.1-.611.208-.633.231-.65.668-.01.249-.023.506-.029.571-.007.064.274.352.625.64.87.713 2.527 1.423 3.864 1.655 1.059.183 1.091.182 1.825-.08.712-.255.753-.291.904-.798.139-.465.126-.794-.1-2.644-.215-1.763-.235-2.211-.12-2.711.076-.329.69-2.061 1.364-3.848.854-2.263 1.284-3.581 1.418-4.341.106-.6.27-1.276.364-1.501.095-.226.172-.438.172-.473 0-.065-.541-.058-1.063.013M13.255 13.405c-.402.151-1.74.866-2.973 1.587l-2.241 1.311-1.151 1.793-1.779 2.766c-.345.536-.607.974-.583.974.025 0 .814-.838 1.756-1.862 1.3-1.416 2.373-2.418 4.471-4.174 1.518-1.271 2.919-2.396 3.114-2.5.492-.263.251-.222-.614.105" fill="#464655" fill-rule="evenodd"/></svg>