<svg xmlns="http://www.w3.org/2000/svg" width="146.511" height="106.432"><path d="M37.149 2.897c-1.858 1.581-2.557 2.004-4.592 2.779a21.104 21.104 0 0 1-4.83 1.227l-2.431.313-3.821 4.62-3.822 4.621-1.259 5.263c-.98 4.096-1.471 6.919-2.214 12.736l-.955 7.474-1.336 2.66c-1.668 3.319-3.645 5.365-6.645 6.877l-1.948.981-1.039 2.407c-.572 1.323-1.039 2.477-1.038 2.562.001.086.716.604 1.589 1.151l1.587.995v3.151c0 2.817.054 3.218.506 3.793.279.354.622.644.763.644.141 0 1.085.503 2.097 1.117l1.84 1.117 1.854-.656c1.019-.36 2.457-1.013 3.196-1.45 1.495-.883 2.221-1.052 5.684-1.322 2.111-.164 2.509-.272 3.45-.935.584-.412 1.433-.825 1.886-.917.453-.092 1.372-.366 2.044-.609.949-.342 1.493-.395 2.442-.239.671.111 2.228.209 3.459.217 1.894.012 2.531.129 4.151.76 1.661.648 2.052.922 2.965 2.079.579.733 1.505 2.128 2.058 3.1 1.589 2.792 3.602 5.152 7.758 9.092 5.176 4.908 6.321 6.311 6.738 8.256.179.832.328 1.962.333 2.513l.009 1.001 3.479.222 3.48.221 1.596-.772c.878-.424 2.141-1.254 2.808-1.844 1.057-.934 4.925-3.55 6.34-4.288.269-.14.995-.33 1.614-.423.887-.133 1.333-.063 2.106.331.973.497.985.52 1.657 3.226.699 2.818.733 4.413.203 9.481-.125 1.195-.083 1.438.272 1.574.23.089 3.688.487 7.684.886 5.569.556 7.63.855 8.829 1.282 1.483.526 1.605.631 2.327 1.989.682 1.286.947 1.534 2.564 2.398 1.78.953 1.826.963 3.756.815 3.61-.276 6.18-1.181 9.999-3.52 3.09-1.893 18.905-13.621 21.296-15.793 1.978-1.797 2-1.828 2.779-4.194.579-1.756 1.153-2.902 2.183-4.354l1.397-1.97.746-4.256.745-4.257-1.198-1.229c-.658-.676-1.198-1.431-1.198-1.679 0-.247-.261-1.068-.58-1.823-.606-1.434-1.129-3.794-1.129-5.092 0-.586-.207-.92-.916-1.472-1.346-1.05-4.968-2.447-7.716-2.975-2.154-.413-2.604-.598-4.296-1.761-2.844-1.954-3.671-3.437-7.201-12.911-3.407-9.143-3.3-8.994-7.111-9.893-1.814-.428-2.486-.716-3.384-1.451-1.041-.854-1.12-.999-1.12-2.065 0-1.464.58-3.414 1.498-5.042 1.217-2.156 1.266-2.617.37-3.48-.423-.408-1.3-.969-1.949-1.246-1.074-.458-1.67-.503-6.638-.503-6.111 0-5.535-.191-5.869 1.943-.214 1.373-.884 2.287-2.068 2.821-.877.395-.966.395-1.649-.009-.397-.234-.907-.74-1.134-1.124-.601-1.017-1.275-1.321-1.597-.72-.442.826-.281 1.73.616 3.435.687 1.308.854 1.879.793 2.721-.068.942-.175 1.114-.931 1.489-.976.485-2.304.402-4.739-.294-2.072-.592-4.66-.357-6.491.589-1.658.857-5.172 2.091-5.955 2.091-.793 0-1.16.517-.985 1.39.11.551.006.89-.431 1.398l-.576.67-2.052-.524c-1.129-.288-2.318-.458-2.642-.376-.324.081-1.107.632-1.74 1.223-.632.592-1.911 1.631-2.842 2.31l-1.693 1.234-1.959-.019c-2.821-.028-3.797-.659-5.161-3.343-.635-1.248-1.076-2.503-1.184-3.364a16.314 16.314 0 0 0-.64-2.733c-.261-.76-.468-2.019-.468-2.85 0-.819-.226-2.258-.503-3.197-.709-2.407-1.441-7.004-1.446-9.083-.013-5.132-1.905-7.25-7.567-8.475l-2.667-.577-2.191 1.864" fill="#464655" fill-rule="evenodd"/></svg>