<svg xmlns="http://www.w3.org/2000/svg" width="130.556" height="240.711"><path d="M30.463 1.777c0 .279-.28 1.099-.622 1.821-.607 1.283-1.753 2.447-3.403 3.458-3.512 2.15-4.475 3.813-4.822 8.327-.178 2.326-.776 3.305-3.092 5.07-1.344 1.023-2.445 2.285-2.167 2.484.039.028.459.193.933.367 1.229.451 1.396 1.366.73 4.004-.75 2.97-.48 4.228 1.377 6.431.461.547.839 1.098.839 1.223 0 .126-.294.598-.653 1.05-.359.451-.652.901-.652.998 0 .097.875 1.387 1.945 2.866 3.586 4.956 4.294 6.647 4.167 9.953-.148 3.863-.155 3.822.928 5.953 1.404 2.765 1.809 4.755 1.981 9.749.158 4.575-.069 5.961-1.206 7.343-.554.674-.582.784-.296 1.191.369.527.405 1.298.089 1.889-.213.397-.271.402-1.034.084-1.337-.556-1.441-.758-1.383-2.699.028-.958-.052-1.934-.177-2.168-.466-.87-4.619-4.167-6.335-5.03-.949-.477-1.726-.995-1.726-1.15 0-.154.248-.617.551-1.028.771-1.044 1.669-4.277.992-3.57-.539.564-2.631 4.759-2.631 5.277 0 .327.266.985.59 1.461.771 1.133.8 2.62.079 4.057-.983 1.96-2.458 2.449-5.442 1.804-.969-.209-1.803-.34-1.852-.29-.05.049-.007.76.094 1.579.219 1.764.753 2.452 2.567 3.311 1.628.77 2.037.661 2.453-.653.239-.756.556-1.221 1.088-1.595.692-.486.901-.519 2.708-.427 2.145.11 3.813.597 6.309 1.845 1.703.851 2.287 1.255 4.788 3.313 1.107.91 2.415 1.732 3.591 2.256 1.454.647 1.994 1.018 2.525 1.735 1.164 1.57 1.35 2.635 1.051 6.018-.437 4.954.007 6.401 2.801 9.123 2.383 2.322 3.075 3.588 3.397 6.217.131 1.077.483 2.742.781 3.699.624 2.006.674 3.381.215 5.984-.179 1.017-.325 2.156-.326 2.53 0 .374-.147.803-.328.953-.269.223-.483.169-1.197-.303-.477-.316-.868-.537-.868-.491 0 .046.465.667 1.033 1.379 1.101 1.379 1.335 2.103 2.438 7.551.484 2.39 1.277 3.831 2.579 4.684.4.262.866.807 1.035 1.211.168.404.406.795.527.87.423.262.237 1.727-.323 2.552-.299.44-.544.935-.544 1.1 0 .689 1.116 3.503 1.94 4.89.488.821 1.179 2.355 1.535 3.41l.648 1.917-.754 2.166c-.682 1.962-.725 2.222-.455 2.75.466.911.628 2.337.463 4.089-.121 1.3-.22 1.606-.512 1.599-.545-.014-1.996-1.39-2.207-2.093l-.185-.618-.019.657c-.01.361.281 1.371.648 2.245.367.873.794 2.34.948 3.259.312 1.865 1.697 6.485 4.905 16.36 2.409 7.417 2.811 9.034 3.488 14.035l.471 3.481 1.171 1.741c1.304 1.939 2.592 4.607 4.396 9.109l1.209 3.018 3.182 3.401c4.624 4.945 4.217 4.157 4.787 9.277l.484 4.352 2.032 3.958 2.032 3.958.156 2.407c.086 1.324.198 2.406.249 2.406.052 0 1.581-1.204 3.4-2.676 2.512-2.034 3.697-2.841 4.937-3.362 1.799-.756 4.096-1.457 5.881-1.796 1.429-.271 1.802-.598 2.737-2.392.405-.778 2.426-3.618 4.491-6.311l3.755-4.895 1.632-.812c2.575-1.281 3.914-1.655 9.139-2.556 2.692-.465 5.324-.998 5.848-1.186.523-.188 1.184-.342 1.468-.342.805 0 .637-.586-.684-2.389-1.3-1.775-1.306-1.791-.945-2.825.187-.539.506-.829 1.326-1.209 1.001-.464 1.138-.477 1.875-.187.437.172 1.05.455 1.363.627.536.296.612.274 1.337-.387.423-.386 1.545-1.975 2.494-3.531 1.969-3.231 2.477-4.827 2.059-6.47a20.136 20.136 0 0 1-.37-1.972c-.122-.947-.178-1.03-.609-.899-.261.079-.671.315-.91.524-.239.21-.974.723-1.632 1.14-.658.418-1.379.965-1.603 1.217-.229.258-.8.516-1.311.593-1.264.19-2.565-.352-6.168-2.567-1.914-1.177-3.544-2.007-4.518-2.301-1.531-.463-3.199-1.451-4.837-2.866-.677-.585-1.067-1.217-1.668-2.708-.689-1.708-.784-2.172-.784-3.816 0-1.582-.267-2.994-1.729-9.147l-1.729-7.276.481-.874c.437-.796.574-.884 1.525-.983 1.015-.106 1.096-.17 2.76-2.176 1.641-1.979 1.721-2.126 1.862-3.435.234-2.187.03-3.505-.837-5.392-.437-.949-.895-2.127-1.019-2.618-.123-.49-1.118-3.28-2.21-6.201l-1.986-5.31-.028-4.601-.028-4.601.67-.839c1.205-1.51 1.234-1.837.514-5.844-.354-1.972-.66-3.807-.679-4.077-.058-.831 1.571-4.986 2.497-6.367.481-.718 1.991-2.371 3.354-3.674 1.594-1.523 2.671-2.747 3.016-3.427.66-1.303 1.083-1.353 3.466-.406 1.894.752 2.508.801 3.414.272.652-.38 3.005-3.553 3.005-4.052 0-.145-.438-.694-.975-1.22l-.975-.957-2.125.054c-1.272.032-2.654-.07-3.439-.255-1.82-.429-4.223-1.85-6.294-3.721-.962-.87-2.239-1.857-2.837-2.195-1.353-.762-4.441-3.736-5.538-5.333-.453-.659-1.079-1.909-1.393-2.78-.314-.871-1.021-2.364-1.572-3.318-.55-.955-1.293-2.494-1.65-3.421-.965-2.507-1.362-3.052-2.428-3.331-2.898-.76-3.224-.908-4.452-2.035a35.538 35.538 0 0 0-2.503-2.061c-.92-.673-1.633-1.487-2.654-3.03-1.373-2.076-1.399-2.143-1.622-4.177-.125-1.137-.317-2.379-.428-2.76-.12-.414-.124-1.29-.01-2.176.287-2.227.239-4.604-.121-5.944-.177-.658-.322-1.611-.324-2.117-.001-.506-.141-1.289-.31-1.741-.169-.451-.364-1.799-.432-2.996s-.485-4.437-.926-7.2c-.786-4.921-.795-5.046-.44-6.092.199-.588.528-2.402.73-4.03l.368-2.962-.585-1.608c-.771-2.118-.788-3.79-.053-5.051.746-1.279 1.426-3.832 1.633-6.131.165-1.824.139-2.053-.383-3.329-.471-1.152-.766-1.523-1.85-2.328-.955-.711-1.437-.934-1.861-.865-.314.051-2.579.249-5.032.44-5.181.404-7.99.958-9.248 1.823-.479.329-1.371.867-1.984 1.196-1.103.593-1.133.596-3.323.377-1.958-.197-2.61-.161-5.732.313l-3.523.535-8.051-4.847c-4.429-2.666-8.129-4.88-8.223-4.92-.094-.04-.171.156-.171.435M7.577 50.379c-.559.292-1.082.732-1.16.979-.078.247-.861 1.217-1.738 2.155-.878.939-1.747 1.998-1.93 2.353-.201.388-.416 1.721-.538 3.343-.139 1.837-.351 3.063-.664 3.847-.567 1.421-.615 3.416-.099 4.186 1.63 2.438 2.697 2.306 4.606-.571.833-1.255.887-1.438 1.005-3.378.078-1.291.366-2.896.776-4.33.358-1.254.651-2.402.651-2.551 0-.388-.377-.34-1.467.188-1.086.525-2.585.585-3.048.122-.479-.479-.04-1.079 1.37-1.875 1.132-.639 1.207-.731 1.079-1.317-.195-.885.172-1.432 1.55-2.314.981-.628 1.15-.821.938-1.076-.141-.171-.27-.307-.285-.301-.016.006-.486.249-1.046.54m28.143 57.982c0 .3.049.422.109.272a.831.831 0 0 0 0-.544c-.06-.149-.109-.027-.109.272m8.016 40.673c0 .11-.055.344-.123.52-.08.21.313.676 1.135 1.345.692.564 1.292.925 1.333.802.114-.343-.808-2.059-1.334-2.482-.509-.41-1.011-.502-1.011-.185m-20.77 48.959c-.068.111-.441.268-.828.35-1.692.356-4.933 2.775-5.721 4.269-.263.5-.257.717.045 1.632.192.58.703 1.43 1.137 1.889.916.969 3.308 2.428 4.774 2.911 1.572.519 1.636.645 1.013 1.991-.296.639-.539 1.206-.539 1.261 0 .054.464.069 1.031.033l1.031-.067-.062-2.502c-.058-2.395-.028-2.593.71-4.633.425-1.171.772-2.327.772-2.567 0-.627-.547-1.617-1.821-3.299-1.119-1.477-1.313-1.637-1.542-1.268m.63 30.904c-.486.216-1.779 1.053-2.874 1.859-1.866 1.373-2.071 1.605-3.251 3.664-1.693 2.953-2.432 4.933-1.842 4.933.48 0 4.789-2.083 5.309-2.566.325-.303.757-1.049.958-1.658.264-.797.808-1.584 1.942-2.806 1.706-1.839 2.117-2.877 1.397-3.529-.436-.395-.536-.388-1.639.103" fill="#464655" fill-rule="evenodd"/></svg>