<svg xmlns="http://www.w3.org/2000/svg" width="294.192" height="178.294"><path d="M81.664 1.594c-.104.337-.547 6.349-.984 13.361-.437 7.011-.93 14.472-1.095 16.58l-.299 3.832-4.226 2.122-4.225 2.122-6.366-.249c-8.721-.34-13.913.923-23.527 5.724-9.237 4.613-9.678 4.917-12.251 8.462-1.231 1.696-2.681 3.636-3.223 4.31-.542.674-1.475 1.981-2.072 2.905-.598.924-1.659 2.027-2.359 2.452-.7.424-2.354 1.585-3.677 2.58-1.323.994-3.993 2.593-5.934 3.553-5.519 2.729-6.816 4.885-9.771 16.24-.209.804.29 1.375 2.466 2.819 1.501.997 2.849 1.812 2.997 1.812.147 0 1.896 1.226 3.887 2.724 4.407 3.317 5.599 5.332 4.458 7.538-.928 1.795-.953 3.118-.09 4.84.366.728.929 2.407 1.253 3.731.324 1.324 1.153 3.747 1.842 5.385 1.036 2.461 1.199 3.435.943 5.617-.191 1.623-.082 3.273.283 4.281.511 1.414.434 2.15-.561 5.322-.999 3.186-1.078 3.939-.583 5.591.315 1.051.573 2.878.574 4.06.001 2.244 1.882 6.44 4.34 9.68 1.179 1.553 1.375 1.629 3.466 1.343 1.219-.167 3.216-.815 4.437-1.439 2.029-1.038 2.607-1.106 6.719-.797 4.18.315 4.734.487 7.803 2.425 3.126 1.974 4.23 2.304 20.681 6.185l17.379 4.1 12.401 6.569 12.402 6.57 11.204 1.726c10.778 1.661 11.41 1.705 16.61 1.163l5.405-.563 6.607-5.688 6.608-5.689 15.484-5.482 15.483-5.483 43.078-8.044 43.078-8.043 10.435-10.45 10.436-10.45-2.068-31.752-2.068-31.753-1.511-.918c-.937-.57-5.818-6.957-12.846-16.808-8.985-12.595-11.721-16.097-13.199-16.896l-1.864-1.007-18.387 2.591c-10.112 1.425-19.6 2.602-21.083 2.616-5.012.047-92.3-9.192-94.632-10.016-1.214-.429-5.957-2.964-10.542-5.633C104.543 1.288 103.384.981 90.909.981c-6.817 0-9.103.151-9.245.613" fill="#464655" fill-rule="evenodd"/></svg>