<svg xmlns="http://www.w3.org/2000/svg" width="299.171" height="419.281"><path d="m171.263 21.815-13.431 19.82-9.045 22.687-9.045 22.687-3.13 16.205c-2.821 14.609-3.608 17.728-7.998 31.662-4.188 13.297-5.752 17.439-11.188 29.631-6.023 13.506-6.642 14.651-13.133 24.281l-6.813 10.107L76.538 216.3c-16.827 13.985-21.579 18.203-24.183 21.466-4.741 5.942-9.93 9.408-20.942 13.989-4.799 1.996-9.942 4.321-11.429 5.165-3.562 2.023-6.35 4.871-7.588 7.753-1.08 2.514-1.035 3.633.328 8.089l.843 2.761-4.041 15.56c-2.223 8.559-4.041 16.481-4.041 17.606 0 2.388 1.368 4.592 3.551 5.721 1.554.804 2.29 2.154 2.972 5.454.351 1.695.107 2.854-1.628 7.728-1.123 3.154-2.898 7.055-3.946 8.669-1.224 1.885-2.005 3.758-2.183 5.236a55.334 55.334 0 0 1-.792 4.579c-.282 1.253-.368 3.721-.189 5.485.262 2.593.114 3.826-.776 6.447-1.457 4.295-1.519 7.21-.204 9.723 1.112 2.125.927 2.045 8.68 3.76 1.508.334 3.046.849 3.417 1.145 2.072 1.653 1.841 6.895-.417 9.473-.76.868-2.469 3.148-3.796 5.068-1.978 2.86-2.408 3.868-2.382 5.579.046 3.124 1.141 4.382 4.902 5.633 2.351.782 4.477 1.085 7.624 1.087 4.417.001 10.573-.782 12.04-1.531.44-.226 2.412-.553 4.382-.728 2.891-.256 4.573-.077 8.726.929 2.829.685 5.66 1.246 6.29 1.247 1.386 0 4.11 1.348 4.943 2.445 1.357 1.786 7.124 14.305 7.124 15.465 0 .879.144.897 2.191.281 1.206-.363 7.208-1.595 13.339-2.738 14.525-2.707 31.131-7.25 35.563-9.729 2.606-1.457 3.625-1.777 4.899-1.538 1.199.225 2.598-.128 5.495-1.388 2.138-.929 4.024-1.827 4.192-1.994.168-.168.785-.305 1.371-.305s1.838-.805 2.784-1.789c2.895-3.014 4.999-3.79 12.075-4.451 3.502-.328 6.478-.706 6.613-.841.135-.135-.098-1.068-.519-2.074-.667-1.596-.673-2.002-.052-3.204.863-1.669 9.06-6.341 12.022-6.853 1.097-.189 2.745-.774 3.663-1.298 1.65-.943 1.685-.942 3.31.062 1.456.9 1.676.925 1.947.219.167-.437.305-1.334.305-1.993 0-.835.573-1.578 1.889-2.449 2.161-1.431 9.478-4.457 12.072-4.993.96-.198 2.238-.814 2.841-1.367.985-.904 13.098-4.599 18.234-5.563 1.605-.301 1.908-.594 2.434-2.35.507-1.691.477-2.218-.19-3.348-1.3-2.2-2.069-8.761-1.559-13.304.535-4.768.418-5.591-.853-5.994-.532-.169-1.603-.842-2.38-1.496-1.365-1.149-1.394-1.27-.893-3.717.485-2.369.416-2.737-1.097-5.806-1.762-3.573-1.735-4.377.239-6.969.647-.849 1.489-2.584 1.872-3.856.382-1.271 1.275-3 1.983-3.842 1.162-1.381 1.258-1.811.987-4.401-.295-2.827-.266-2.914 1.9-5.584 1.21-1.492 3.017-4.18 4.016-5.973 2.582-4.637 9.402-10.721 21.739-19.393 6.594-4.636 10.097-6.2 19.233-8.589 5.143-1.344 8.285-2.464 10.221-3.641 1.539-.935 3.807-1.948 5.041-2.251 3.442-.846 9.054-3.48 10.72-5.033 1.807-1.683 5.432-3.094 7.479-2.91 3.115.28 5.135.033 7.086-.865l2.014-.927-4.464-9.973c-2.456-5.484-9.064-20.518-14.686-33.407-5.622-12.889-10.678-23.828-11.235-24.308-.559-.481-1.828-.876-2.828-.88-2.153-.008-4.368-1.057-4.161-1.969.139-.616-1.962-5.685-21.089-50.877a17522.799 17522.799 0 0 1-20.86-49.612 21491.65 21491.65 0 0 0-18.42-43.879 4620.996 4620.996 0 0 1-10.378-24.793c-2.58-6.232-4.813-11.337-4.962-11.344-.149-.007-6.315 8.907-13.703 19.808" fill="#464655" fill-rule="evenodd"/></svg>