<svg xmlns="http://www.w3.org/2000/svg" width="69.926" height="56.396"><path d="M56.148 1.695c-.729.532-1.35.834-3.263 1.586l-2.363.928-2.739-.074c-2.734-.074-2.74-.073-3.547.224-.795.293-2.064.519-3.096.552-.327.011-1.024-.145-1.851-.413-1.233-.4-1.655-.466-6.002-.939-3.579-.39-4.935-.495-5.783-.447-.609.034-1.565.005-2.124-.064-.918-.113-1.587-.069-6.876.453-3.222.318-7.249.713-8.947.877l-3.089.3-2.709.953-2.71.952.005.526c.016 1.674.22 3.595.441 4.15.149.375.265 1.022.313 1.748.041.634.202 1.606.356 2.159.241.868.281 1.276.291 2.972.007 1.081-.06 2.547-.149 3.258-.146 1.18-.142 1.373.048 2.214.115.508.289 1.683.386 2.612l.176 1.69 1.343 2.017c1.291 1.937 1.383 2.044 2.352 2.738a33.145 33.145 0 0 1 2.122 1.706l1.365 1.204c.141.123 1.152.47 2.305.788 1.129.313 2.1.597 2.157.633.218.134 1.215 2.135 1.759 3.531.312.801 1.034 2.276 1.604 3.277.716 1.259 1.209 2.306 1.598 3.394.77 2.15 1.61 3.387 3.69 5.435 1.265 1.245 1.739 1.629 2.546 2.062l.991.532 1.256-2.027c.93-1.501 1.414-2.163 1.864-2.549.538-.462.661-.657 1.065-1.702l.457-1.181-.192-2.598-.192-2.598.409-1.493c.406-1.48.418-1.503 1.367-2.717l.957-1.226 3.147-1.944c1.874-1.159 3.436-2.212 3.862-2.604l.714-.658 3.374-.682 3.373-.681 1.945-1.983c1.87-1.907 2.084-2.083 5.567-4.586 2.574-1.849 3.953-2.761 4.761-3.148 1.699-.814 5.015-3.153 5.934-4.185l.745-.836.26-2.292c.207-1.83.37-2.69.804-4.264.3-1.084.53-2.046.511-2.138-.018-.091-1.384-.814-3.035-1.605-3.897-1.867-4.801-2.413-5.371-3.24-.401-.581-.503-.655-1.219-.877a9.115 9.115 0 0 0-1.422-.31c-.635-.068-.65-.062-1.541.59" fill="#464655" fill-rule="evenodd"/></svg>