<svg xmlns="http://www.w3.org/2000/svg" width="86.392" height="126.854"><path d="M22.092 1.432c-.638.221-1.481.629-1.871.906-.841.595-3.648 2.089-4.922 2.619-.494.205-3.767 1.06-7.271 1.899-3.505.84-6.412 1.568-6.46 1.619-.048.051-.193 4.207-.322 9.235l-.233 9.144.758 7.155.759 7.155-.265 2.06c-.229 1.782-.242 2.264-.095 3.572.094.831.202 1.992.241 2.58.042.637.169 1.23.315 1.469.134.221.928.886 1.764 1.478 1.25.886 1.622 1.239 2.097 1.992l.578.915.082 2.514c.045 1.383.168 3.324.274 4.314l.193 1.8 1.974 4.016c1.896 3.856 1.975 4.052 1.975 4.914 0 .824-.047.96-.581 1.671-.32.426-1.091 1.163-1.715 1.638-.996.759-1.186.981-1.565 1.822l-.43.959.397.381c.655.627.926.444 3.108-2.089 2.508-2.911 2.966-3.143 4.386-2.213 1.092.715 1.637 1.365 2.889 3.444 1.276 2.118 1.312 2.203 1.858 4.391a56.08 56.08 0 0 1 .864 4.267c.29 1.915.295 2.105.089 3.24-.12.662-.293 1.982-.383 2.932-.153 1.601-.142 1.823.145 3.024.17.713.348 1.685.396 2.16.086.845.11.886 1.128 1.872 1.549 1.499 1.545 1.486 1.215 3.932-.409 3.02-.924 4.82-1.643 5.741-.547.7-.647.761-1.61.983-.939.216-1.091.217-1.79.009a6.837 6.837 0 0 0-1.611-.226c-.701 0-.951.072-1.449.418-1.054.732-1.53 1.346-1.905 2.453-.524 1.549-.479 1.982.374 3.562.711 1.32.724 1.368.632 2.245-.073.696-.269 1.227-.871 2.368-.427.809-.776 1.505-.776 1.548 0 .186.943.047 2.044-.303 1.162-.368 1.27-.377 3.821-.298l2.626.081 2.126-.829c2.464-.961 2.453-.955 3.494-1.744l.791-.601 1.008.088c.555.048 1.411.221 1.903.383.76.251.974.403 1.413 1.001.295.403.867.917 1.336 1.201.928.564 6.497 3.257 6.734 3.257.085 0 .328-.422.54-.938.283-.691.385-1.189.385-1.885 0-.918.02-.97.672-1.733.37-.433.775-.842.9-.909.129-.069 1.069-.036 2.172.076 1.728.176 2.12.172 3.528-.037 2.515-.373 3.797-1.046 7.349-3.856a231.902 231.902 0 0 0 3.065-2.451c.105-.098.42-1.045.701-2.105.465-1.76.518-2.161.601-4.592l.09-2.664 1.029-1.48c.89-1.283 1.228-1.632 2.519-2.606 1.253-.944 1.65-1.349 2.48-2.522 1.14-1.611 1.369-2.232 1.524-4.119.105-1.287.088-1.431-.289-2.447-.609-1.642-.983-3.666-1.277-6.915l-.266-2.949.618-1.871c.34-1.03.809-2.295 1.043-2.811l.425-.938 3.152-1.665c2.211-1.167 4.036-2.003 6.105-2.795l2.952-1.13 2.303-.174c1.267-.095 2.326-.181 2.353-.19.027-.009-.371-.486-.883-1.06-.663-.742-1.425-1.915-2.632-4.05-1.564-2.768-1.719-3.11-1.956-4.32-.141-.722-.296-2.123-.344-3.113-.075-1.561-.157-2.006-.615-3.345l-.528-1.545 1.141-3.422c1.282-3.846 1.371-4.499.744-5.482a7.199 7.199 0 0 1-.595-1.269c-.248-.715-.246-.771.049-2.015.683-2.884.553-4.226-.626-6.464-.837-1.589-1.31-3.016-2.008-6.048-.361-1.569-.628-2.342-1.205-3.489-.711-1.411-.742-1.522-.742-2.639 0-1.121.02-1.19.507-1.785.278-.34.609-.918.734-1.285.211-.622.209-.718-.039-1.412-.156-.438-.558-1.066-.974-1.521-.938-1.029-6.363-5.146-7.362-5.588-.432-.191-1.961-1.133-3.397-2.092l-2.61-1.744-3.472 1.024-3.473 1.025-2.182-.002c-1.881-.002-2.535-.069-4.751-.494-2.566-.492-2.579-.496-7.8-2.661-4.854-2.012-5.486-2.235-8.796-3.107l-3.567-.939-2.075.011c-1.882.01-2.182.048-3.236.413" fill="#464655" fill-rule="evenodd"/></svg>