<svg xmlns="http://www.w3.org/2000/svg" width="29.719" height="35.08"><path d="M20.283 1.062c-.521.055-.592.078-1.65.526l-1.105.468-.577.635c-.408.449-.769.922-1.232 1.617-.361.54-.707 1.018-.769 1.061-.091.064-.254.079-.842.079-.723 0-.732.002-1.091.167-.316.146-.409.223-.738.607l-.375.44-.944.311-.944.312-.348.447-.347.446-.035.46c-.051.681-.055 2.568-.006 3.057.043.427.043.427-.101.588-.132.147-.182.166-.583.215l-.439.055-.163.359c-.19.417-.955 1.461-1.128 1.54a5.763 5.763 0 0 1-.672.164l-.553.11-.302.365c-.35.423-.077.315-2.59 1.022l-1.635.46-.042.221c-.039.198-.021.273.173.745.207.502.232.538.588.844.232.2.712.514 1.281.838l.911.517.752.892c.413.49.765.914.782.942.016.028.067.369.111.758.113.982.143.94-.888 1.297l-.786.272-.296.334-.296.333-.231.98-.231.981.158.731c.086.403.166.74.176.75.01.01.765.523 1.677 1.141.913.618 1.708 1.172 1.768 1.231.06.059.21.38.334.715l.225.608-.183 1.108c-.154.932-.173 1.12-.117 1.187.059.071.31.079 2.326.077 1.243-.002 2.349-.019 2.458-.039.145-.027.196-.059.191-.122l-.041-.617-.033-.532.263-.441c.306-.51.345-.535 1.026-.619.393-.049.518-.089.795-.251.308-.18.337-.213.463-.519.129-.314.134-.362.135-1.229.001-.891-.001-.909-.159-1.36l-.16-.458-.254.012c-.232.01-.278-.008-.544-.212a6.952 6.952 0 0 1-.47-.396l-.181-.173-.188-1.164-.188-1.164-.284-.52c-.471-.862-.483-.891-.568-1.506l-.08-.585.128-.57c.121-.544.125-.594.066-1.062l-.061-.491.295-.605c.286-.588.314-.625.988-1.315.621-.637.839-.816 2.092-1.728 1.334-.969 1.402-1.026 1.452-1.221a68.5 68.5 0 0 0 .096-.367c.033-.126-.013-.426-.201-1.313-.134-.632-.244-1.214-.244-1.291 0-.259 1.369-2.289 1.649-2.445.275-.152.573-.033.754.303.053.098.108.178.122.178.015 0 .087-.101.161-.224.214-.353.203-.351 1.76-.229a65.68 65.68 0 0 0 1.501.107c.213-.001.294-.25.294-.903 0-.538.006-.57.231-1.168l.231-.615.73-.587c.402-.323.783-.6.847-.616.065-.017.429.039.81.124 1.017.226 1.05.278.818 1.256a7.9 7.9 0 0 0-.15.724c0 .051.072.137.161.191.152.093.198.095.826.046l.665-.053.355-.252c.229-.163.438-.367.588-.575.231-.319.232-.324.2-.619-.029-.265-.067-.343-.347-.721-.303-.409-.347-.445-1.188-.985l-.872-.561-1.083-1.142-1.083-1.141-1.55-.658c-.853-.361-1.585-.655-1.626-.653a44.29 44.29 0 0 0-.619.063" fill="#464655" fill-rule="evenodd"/></svg>