<svg xmlns="http://www.w3.org/2000/svg" width="138.47" height="102.347"><path d="M115.071 1.112c-1.362.112-2.972 1.33-4.292 3.246-1.945 2.823-3.023 3.953-4.465 4.681-4.539 2.292-6.881 2.62-9.13 1.28-1.358-.809-2.438-1.759-3.164-2.784-.329-.465-.752-.71-1.445-.837-.874-.159-1.019-.121-1.331.355-.192.294-.487 1.053-.654 1.688-.167.635-.642 1.624-1.055 2.199-.661.92-.961 1.114-2.506 1.622l-1.755.577-4.059-.868-4.06-.867-1.423-1.238c-.783-.681-1.772-1.663-2.198-2.183-.573-.699-1.121-1.062-2.107-1.396-.734-.249-1.733-.743-2.222-1.097-1.092-.79-2.393-.839-5.278-.197-3.363.749-4.813 1.409-7.752 3.532-1.512 1.092-4.173 2.85-5.914 3.907-1.858 1.129-3.929 2.618-5.014 3.607-2.084 1.898-2.78 2.188-6.129 2.556-1.423.157-2.812.15-4.411-.021-2.156-.231-2.379-.217-2.935.189-.788.574-.8 1.671-.047 4.096.686 2.206 1.859 3.83 6.345 8.778 3.204 3.534 5.11 6.223 5.908 8.335.24.634.892 1.822 1.45 2.638.558.817 1.194 1.907 1.413 2.424.384.902.382.991-.066 2.323-1.126 3.344-5.407 7.752-10.529 10.839-1.815 1.094-3.647 2.253-4.07 2.575-1.016.776-2.541 1.214-4.814 1.383-1.566.116-2.053.061-3.081-.348-1.423-.568-3.607-.645-4.748-.169-.418.175-1.531 1.086-2.473 2.025-2.237 2.231-2.758 2.611-6.42 4.683L7.555 70.39l-2.992.152c-2.798.141-3.006.184-3.226.666-.184.404.145 2.108 1.522 7.888 1.364 5.726 1.757 7.754 1.757 9.078 0 2.413.848 4.536 2.292 5.734 1.642 1.362 2.768 2.005 4.486 2.563.889.288 2.814 1.279 4.385 2.257 4.302 2.678 5.522 2.985 6.872 1.729.893-.832 2.705-2.065 3.845-2.618.867-.42 1.093-.7 1.771-2.187.428-.938 1.082-2.151 1.453-2.695.372-.545 1.052-2.011 1.511-3.258.46-1.248 1.203-2.769 1.651-3.38.448-.61.973-1.489 1.166-1.951.312-.745 1.04-1.286 1.733-1.286.539 0 .952 1.443.797 2.783-.325 2.799.347 3.493 2.824 2.921 2.583-.597 3.26-1.178 4.782-4.106l1.344-2.588-.131-2.021c-.089-1.379-.282-2.317-.609-2.957-.639-1.253-.629-2.778.024-3.607.682-.868 2.148-1.49 3.537-1.502 1.134-.01 1.172-.034 2.161-1.356.554-.74 1.581-1.802 2.281-2.361.701-.558 1.914-1.705 2.696-2.55 1.493-1.611 2.652-2.273 3.983-2.273 1.402 0 1.58.24 2.27 3.051.902 3.677 1.193 4.187 2.574 4.506 1.061.246 1.22.213 3.399-.707 2.257-.952 2.297-.982 3.037-2.322.412-.746.821-1.831.908-2.412.087-.58.462-1.497.834-2.037.783-1.139 1.74-1.447 3.099-.999.878.29 5.876 4.3 6.759 5.423.666.847 2.256 1.557 5.347 2.39 1.398.377 3.035.988 3.637 1.356.602.369 2.289 1.117 3.749 1.663a25.826 25.826 0 0 1 5.084 2.571c1.895 1.231 3.142 1.831 5.654 2.718 1.773.626 3.74 1.362 4.37 1.636 1.099.478 1.179.482 2.004.111.785-.355.956-.617 1.999-3.071l1.141-2.684 1.997-1.051c2.937-1.546 5.126-3.782 6.646-6.791l1.164-2.303.996-7.736c.834-6.482 1.201-8.569 2.265-12.88 1.188-4.81 1.329-5.216 2.169-6.231l3.822-4.624 2.922-3.537v-1.707c0-2.224-.525-3.408-3.14-7.082-2.783-3.911-3.793-6.152-4.679-10.384-.698-3.329-.742-3.446-2.149-5.559-1.019-1.532-1.759-2.373-2.547-2.894l-1.11-.734-3.861-.053c-2.124-.03-4.266-.02-4.759.02" fill="#464655" fill-rule="evenodd"/></svg>