<svg xmlns="http://www.w3.org/2000/svg" width="581.896" height="533.265"><path d="M433.997 21.839c-79.477 11.357-146.784 21.364-149.57 22.238-4.19 1.313-87.256 43.405-93.983 47.624-1.136.712-15.529 18.209-31.983 38.881l-29.916 37.585-6.538 17.939c-3.948 10.833-7.414 18.793-8.75 20.097-1.216 1.188-7.872 5.466-14.79 9.508l-12.579 7.349h-8.515c-7.329 0-8.515.227-8.515 1.63 0 .896.916 15.357 2.036 32.136l2.036 30.506-11.708 11.749c-9.529 9.562-59.72 69.339-58.904 70.154.126.126 30.969-2.187 68.541-5.141 37.571-2.953 70.711-5.21 73.645-5.014 6.588.439 11.056 2.487 11.451 5.248.301 2.101-8.848 17.434-14.95 25.057-1.708 2.134-3.751 6.062-4.541 8.729-5.663 19.126-5.647 18.797-1.173 24.023 3.554 4.152 4.32 7.881 2.182 10.615-.667.852-4.922 4.706-9.456 8.564-8.133 6.921-9.654 8.474-9.683 9.889-.008.396 3.149 3.072 7.016 5.947 3.867 2.874 8.122 6.415 9.456 7.868 6.509 7.093 15.577 10.951 27.64 11.758 11.475.768 14.475 2.355 17.968 9.507 4.508 9.227 7.897 13.444 13.103 16.305 4.008 2.202 6.029 2.65 12.086 2.679 4.001.018 9.456.617 12.123 1.331 6.836 1.829 14.745 6.043 16.175 8.619 1.895 3.414 5.775 12.62 6.335 15.034.793 3.41 2.79 2.635 9.288-3.605 11.09-10.65 12.329-12.078 12.329-14.209 0-1.484.873-2.425 2.91-3.135 1.6-.558 2.909-1.61 2.909-2.339 0-.73 1.476-2.03 3.279-2.89 2.899-1.382 3.286-2.013 3.333-5.439.039-2.804 1.148-5.609 4.012-10.144 4.324-6.847 7.772-9.094 11.715-7.636 1.9.703 2.541.497 3.341-1.077 1.239-2.436 17.115-11.344 22.327-12.527 2.133-.485 6.87-2.605 10.525-4.711 4.134-2.382 10.224-4.737 16.113-6.23 5.207-1.319 14.229-3.892 20.049-5.717 13.111-4.111 17.289-4.582 19.066-2.151 1.225 1.675 1.491 1.688 4.339.216 1.668-.863 4.538-1.569 6.378-1.569 2.213 0 5.045-1.143 8.363-3.377 2.76-1.857 6.758-3.898 8.884-4.535 2.126-.637 5.773-2.837 8.105-4.89 5.112-4.5 13.607-8.416 19.749-9.103 8.652-.969 21.478-4.569 21.478-6.029 0-.761-1.498-4.582-3.328-8.491-3.157-6.741-3.544-7.16-7.516-8.143a404.9 404.9 0 0 1-7.809-2.029c-2.731-.749-5.709-.602-12.108.597-9.313 1.745-16.637 1.529-21.125-.625-2.421-1.162-2.954-2.045-3.174-5.268-.222-3.244.368-4.701 3.637-8.983 6.044-7.918 5.196-11.134-3.355-12.732-6.613-1.235-8.292-4.615-6.481-13.05.59-2.745 1.331-8.264 1.647-12.264.412-5.2 1.203-8.242 2.777-10.668 2.57-3.964 5.434-11.976 5.434-15.203 0-1.237-1.527-3.939-3.394-6.006-1.867-2.066-3.386-4.577-3.375-5.579.01-1.002 1.754-8.369 3.875-16.37 4.061-15.319 4.511-18.799 2.835-21.932-1.576-2.944.569-8.072 4.94-11.814 2.074-1.775 7.825-4.869 12.78-6.874 11.159-4.517 17.903-8.866 22.74-14.662 2.049-2.457 13.181-12.332 24.736-21.945 20.356-16.934 21.222-17.801 27.808-27.83 13.3-20.256 25.428-52.584 31.693-84.484 2.99-15.224 4.21-19.129 12.214-39.119 8.833-22.059 8.985-22.343 22.781-42.852C579.14 4.722 581.423.622 579.067 1.08c-.311.06-65.592 9.402-145.07 20.759" fill="#464655" fill-rule="evenodd"/></svg>