<svg xmlns="http://www.w3.org/2000/svg" width="106.687" height="126.982"><path d="M41.427 2.055c-.266.952-.371 1.041-1.55 1.317-.882.207-1.039.185-2.953-.418-3.027-.953-4.492-1.23-5.055-.955-.563.276-.898 1.159-.916 2.417-.02 1.39-.553 3.255-2.02 7.07-1.495 3.89-2.165 4.972-3.869 6.254-1.676 1.26-5.481 3.503-6.495 3.829-.482.155-1.597.408-2.477.562-.88.155-1.938.405-2.35.556-.639.235-.768.368-.867.897-.064.341-.025 1.334.087 2.207.203 1.585.203 1.588-.32 2.625-.451.892-.721 1.167-1.916 1.951-1.568 1.029-3.937 2.108-7.134 3.248-1.193.426-2.17.843-2.17.926 0 .083.201.446.445.805.31.457.445.898.448 1.458.001.442.162 1.403.356 2.137.257.969.407 2.427.551 5.334.189 3.821.261 4.34 1.602 11.558 1.863 10.022 1.917 10.752 1.421 19.115-.209 3.52-.4 6.755-.423 7.187l-.043.787 2.934 1.777a6458.9 6458.9 0 0 0 8.146 4.92l5.213 3.142 3.322-.501c3.115-.47 3.462-.489 5.562-.31 2.545.218 2.717.17 4.873-1.35 1.505-1.062 3.912-1.56 9.869-2.042 2.493-.202 4.859-.409 5.257-.46.677-.087.822-.018 2.218 1.059 1.433 1.106 1.52 1.214 2.173 2.718.668 1.536.679 1.595.572 3.165-.18 2.669-1.009 5.842-1.94 7.431-.622 1.063-.582 1.807.223 4.089l.677 1.917-.402 3.185c-.221 1.752-.526 3.425-.678 3.719-.152.294-.278.879-.28 1.299-.004.881 1.242 8.698 1.419 8.902.065.074 1.261-.267 2.659-.759l2.541-.894 8.917-.879c8.874-.874 8.934-.877 12.562-.715 4.521.202 10.582.907 11.937 1.388l1.002.356.9-1.721c1.168-2.234 1.206-2.766.308-4.372-.645-1.153-.674-1.271-.596-2.476.233-3.591 3.037-5.897 6.091-5.009 1.285.373 2.213.155 2.822-.663.755-1.014 1.792-6.438 1.379-7.21-.105-.195-.629-.73-1.166-1.188-.765-.654-.996-.974-1.073-1.483a77.347 77.347 0 0 0-.468-2.499c-.4-1.999-.372-3.458.121-6.33.292-1.696.08-3.536-.839-7.29-.506-2.067-.687-2.509-1.711-4.178-1.608-2.624-2.751-3.735-3.573-3.474-.175.055-.91.8-1.634 1.654-2.404 2.839-2.794 3.204-3.548 3.332-.623.105-.775.049-1.511-.564-.935-.778-.944-.913-.176-2.585.351-.765.738-1.232 1.568-1.895 2.788-2.229 2.784-2.086.238-7.327l-2.023-4.166-.241-2.223a49.53 49.53 0 0 1-.252-4.179c-.015-2.565-.267-3.03-2.488-4.597-1.907-1.346-2.395-2.111-2.41-3.779a30.752 30.752 0 0 0-.164-2.47c-.112-1.026-.08-2.007.112-3.521l.266-2.098-.75-7.059-.749-7.059.225-9.209c.124-5.065.195-9.237.159-9.272-.037-.034-2.525-.279-5.53-.544-5.414-.479-5.496-.481-9.335-.22-4.473.305-5.701.208-7.063-.559-.558-.314-4.167-1.465-9.523-3.037-5.828-1.71-8.891-2.694-9.449-3.034l-.825-.503-.22.783" fill="#464655" fill-rule="evenodd"/></svg>