<svg xmlns="http://www.w3.org/2000/svg" width="107.325" height="79.627"><path d="M58.279 1.195c-.41.108-1.16 1.428-1.306 2.299-.166.997-.73 2.324-1.494 3.521l-.654 1.023-2.487 1.012-2.488 1.012-1.537-.348c-1.503-.34-1.547-.365-1.964-1.116-.235-.423-.662-1.705-.949-2.85-.9-3.593-.814-3.371-1.353-3.484-1.015-.212-2.128.399-3.527 1.936-.719.789-1.9 1.91-2.624 2.491-.725.581-1.801 1.694-2.39 2.473-.59.778-1.208 1.49-1.374 1.581-.166.092-.82.166-1.454.166-1.338 0-2.261.332-2.789 1.004-.526.668-.469 1.503.189 2.803.544 1.072.564 1.196.577 3.438l.013 2.325-1.427 2.681-1.426 2.681-1.252.688c-.765.42-1.883.832-2.873 1.06l-1.621.372-.97-.521c-.939-.505-.977-.555-1.207-1.595-.181-.821-.192-1.33-.046-2.171.292-1.677-.089-2.258-.659-1.004-.167.369-.685 1.235-1.15 1.923-.506.748-1.186 2.153-1.689 3.488-.463 1.23-1.158 2.706-1.546 3.279-.387.574-1.029 1.775-1.426 2.67-.707 1.594-.72 1.656-.602 3.071.067.794.24 1.854.386 2.356.245.841.237 1.033-.1 2.478-.327 1.403-.573 1.901-2.363 4.791-1.802 2.909-2.092 3.285-2.965 3.843l-.968.619-1.28-.647-1.28-.648-.752.298c-1.219.482-1.2.974.112 2.765 1.1 1.501 1.339 2.125 1.235 3.221-.057.597-.078.612-.774.562-.71-.051-2.829.463-2.733.663.027.057.553 1.078 1.168 2.269l1.119 2.165 1.475.115a46.98 46.98 0 0 0 2.956.116c1.301 0 1.614-.067 2.578-.553l1.097-.554 1.28.38 1.28.38 1.061-.487c.75-.344 1.743-.579 3.386-.801 1.279-.174 2.47-.319 2.645-.324.518-.013 1.078 1.479 1.042 2.777-.023.844.042 1.151.292 1.377.3.271.475.229 2.571-.62l2.25-.91 1.011.463 1.011.463v1.178c0 .648-.113 1.449-.251 1.78-.223.535-.217.657.06 1.112.289.474.725.63 6.077 2.173 4.769 1.375 6.228 1.722 8.441 2.007 2.554.329 2.732.379 3.956 1.106.86.511 2.431 1.135 4.781 1.9 3.238 1.055 3.666 1.151 5.735 1.282 2.354.15 2.273.126 5.993 1.766.875.385 1.338.472 2.508.467l1.435-.005 1.964-1.373c3.225-2.255 4.476-4.192 4.648-7.202.07-1.226.692-2.361 1.596-2.911.714-.435.855-.635 1.286-1.829l.811-2.236c.385-1.054 1.31-1.7 2.433-1.7.38 0 .822-.1.983-.223.307-.235.922-2.426 1.131-4.025.087-.674.372-1.346 1.004-2.373.736-1.195 1.11-1.594 2.258-2.405 2.07-1.463 5.586-2.599 8.05-2.602 1.643-.001 2.255-.247 2.618-1.053l.313-.694-.825-.761c-.676-.622-.895-.989-1.207-2.016l-.381-1.255.401-1.269c.314-.991.592-1.464 1.27-2.163.963-.992 1.691-2.427 1.873-3.693.089-.615.276-.983.716-1.41.589-.571.621-.578 2.711-.668 1.97-.085 2.157-.125 2.744-.586.484-.38.722-.782 1.028-1.732.22-.681.399-1.329.399-1.44 0-.244-3.111-2.118-3.786-2.282-.314-.076-.7-.451-1.13-1.098l-.653-.983.119-2.892.118-2.892-1.531-.932-1.53-.933-.986.436-.985.436-1.466-.627c-.806-.345-2.873-1.119-4.594-1.719-2.81-.981-3.368-1.248-5.467-2.615-2.311-1.506-3.483-2.078-6.3-3.074-.797-.282-1.964-.825-2.593-1.207-.796-.483-1.828-.877-3.381-1.291-3.783-1.007-4.666-1.448-6.621-3.31-2.251-2.143-4.948-4.292-5.704-4.546-.625-.211-.784-.221-1.304-.083" fill="#464655" fill-rule="evenodd"/></svg>