<svg xmlns="http://www.w3.org/2000/svg" width="194.504" height="152.766"><path d="M189.693 1.205c-.857.163-5.576 3.132-7.23 4.549-.598.513-1.76 1.318-2.581 1.79-1.452.833-1.602.852-5.349.664l-3.856-.194-.603 1.261c-.332.693-1.758 3.886-3.169 7.096-2.427 5.522-2.673 5.937-4.583 7.742-1.199 1.134-2.834 2.277-4.028 2.816-1.105.5-3.096 1.641-4.423 2.537-3.283 2.215-10.626 5.1-13.598 5.343-1.211.099-2.348.27-2.526.381-.199.122-.308 2.296-.282 5.602.043 5.276-.093 6.452-.802 6.938-.645.441-2.761.252-4.478-.401-.938-.356-1.874-.648-2.081-.648-.207 0-.996.65-1.753 1.445-1.053 1.104-2.147 1.767-4.649 2.817-1.799.754-4.23 2.004-5.401 2.777-1.517 1.002-2.588 1.459-3.728 1.592-1.477.171-1.722.093-3.219-1.029-.892-.668-2.205-1.769-2.918-2.448-1.249-1.188-3.205-2.236-4.172-2.236-.256 0-.613.423-.793.941-.181.519-.611 1.032-.955 1.141-.345.11-1.095.781-1.667 1.493-1.102 1.371-2.771 2.26-4.245 2.26-1.089 0-1.655.611-1.415 1.529.228.872-.8 1.564-2.8 1.883-2.159.344-4.486 1.617-4.73 2.587-.111.444-.123 1.014-.026 1.266.242.632 3.318 2.135 4.378 2.14 1.551.008 2.305.376 2.968 1.449.867 1.402.837 2.8-.077 3.651-.642.598-1.204.692-4.69.786-4.682.126-5.312.434-4.643 2.267.479 1.313.754 9.542.344 10.307-1.371 2.562-9.525 4.343-14.919 3.258-1.316-.265-1.506-.224-1.936.419-.263.392-1.029 1.277-1.702 1.967-1.073 1.098-1.225 1.446-1.225 2.813 0 1.298-.143 1.671-.854 2.231-.529.416-1.33.672-2.107.672-1.51 0-2.367.749-2.851 2.491-.189.68-.344 1.394-.345 1.585-.001.192-.355.681-.787 1.087-.671.63-.989.704-2.188.505-.772-.127-2.208-.725-3.193-1.329-.984-.604-1.886-1.098-2.005-1.098-.118 0-.137 1.277-.041 2.837.102 1.651.033 3.197-.164 3.7-.312.794-.45.848-1.736.683-1.536-.197-4.113-1.367-4.78-2.171-1.301-1.568-8.074-4.721-10.144-4.723-1.589-.002-3.739.848-4.95 1.957-1.424 1.304-3.964 2.468-5.984 2.743-.974.132-2.031.404-2.35.603-.694.433-.766 1.918-.12 2.455.605.502.937 2.555.656 4.053-.355 1.893-3.175 5.904-6.623 9.421-2.507 2.557-3.998 4.508-7.062 9.239-3.478 5.369-5.91 9.597-5.91 10.273 0 .133.839-.575 1.864-1.575 2.787-2.716 2.887-2.742 5.454-1.404 1.677.875 2.564 1.134 3.872 1.134 2.094 0 3.697.551 6.685 2.296 1.85 1.08 2.779 1.404 4.623 1.611 2.707.303 5.45 1.261 7.019 2.449 1.49 1.129 4.18 2.39 5.105 2.394 1.483.006 2.685.955 3.476 2.745.741 1.674 2.192 3.093 3.164 3.093.263 0 1.274-.364 2.246-.809 1.736-.795 1.796-.8 3.344-.272 2.226.758 4.612.211 8.577-1.966 4.787-2.627 6.286-3.182 7.928-2.936.885.133 1.482.079 1.621-.145.331-.536 1.19-.427 1.675.212.637.839.541 2.168-.203 2.842-.589.533-.858.555-2.656.221-2.161-.402-2.822-.285-1.414.251 1.592.605 3.339.389 5.161-.64 1.584-.894 1.975-.972 4.844-.972 3.077 0 3.171-.024 6.619-1.647 3.718-1.75 8.625-3.349 9.542-3.11.417.109 1.344-1.091 3.803-4.924l3.251-5.069 2.69-1.5c1.48-.825 4.733-2.237 7.229-3.136 4.108-1.481 5.507-1.795 14.75-3.309 8.613-1.41 11.708-2.08 19.774-4.277 8.41-2.292 10.072-2.644 13.778-2.923 2.317-.174 4.353-.449 4.524-.611.17-.162 1.073-5.774 2.007-12.472l1.698-12.177 3.334-9.297c2.084-5.812 3.579-9.508 3.989-9.859.361-.309 1.553-1.209 2.649-2.001 1.479-1.068 2.096-1.753 2.394-2.657l.402-1.217-2.187-1.974c-2.035-1.835-2.208-2.097-2.47-3.751-.155-.978-.188-2.795-.072-4.038.178-1.93.415-2.58 1.616-4.436.774-1.197 2.865-3.827 4.645-5.844 1.781-2.018 3.239-3.855 3.24-4.082.004-.622-1.326-1.007-4.294-1.245-3.455-.276-4.459-.764-4.447-2.159.008-.923.227-1.176 1.864-2.157 1.02-.612 2.338-1.475 2.929-1.918l1.074-.806-.079-2.621c-.113-3.723.818-5.053 4.133-5.908 3.319-.855 4.96-2.092 4.668-3.52-.246-1.202.061-4.866.499-5.962.484-1.209.683-1.36 2.44-1.853 1.558-.437 1.915-.664 1.921-1.223.005-.378.142-2.073.305-3.767.45-4.669-.766-9.243-2.401-9.032a25.6 25.6 0 0 0-1.102.188" fill="#464655" fill-rule="evenodd"/></svg>