<svg xmlns="http://www.w3.org/2000/svg" width="226.287" height="177.4"><path d="M189.515 7.743a66291.84 66291.84 0 0 1-41.297 7.743c-8.307 1.55-8.811 1.699-23.937 7.058l-15.451 5.475-6.554 5.696c-7.456 6.482-6.223 5.963-15.344 6.452-4.203.225-5.272.122-14.993-1.455-9.127-1.48-10.72-1.84-12.445-2.813-1.089-.614-6.647-3.569-12.351-6.568l-10.371-5.452-16.352-3.854c-8.993-2.12-16.437-3.768-16.543-3.662-.105.105.773 2.195 1.953 4.643 1.867 3.876 2.262 5.11 3.058 9.543.541 3.013.916 6.553.919 8.674.007 5.477.719 7.329 4.799 12.494 1.865 2.359 3.909 5.127 4.544 6.152l1.153 1.863-1.257 2.474c-1.625 3.2-3.645 5.078-10.56 9.818-5.719 3.92-7.355 5.189-7.355 5.707 0 .695 1.237 1.4 2.896 1.648.99.149 2.421.587 3.178.973 1.395.712 5.588 4.666 6.624 6.246.31.473 1.312 1.146 2.227 1.496 1.416.541 1.909.566 3.316.172 1.459-.408 1.757-.687 2.549-2.378.536-1.145 1.468-2.33 2.318-2.946 1.375-.996 1.482-1.014 3.295-.535 2.249.593 3.884 1.816 8.86 6.623 4.057 3.92 4.499 4.14 9.429 4.703 1.245.142 3.027.588 3.96.992 3.91 1.69 4.991 4.163 4.811 11.011-.102 3.892-.217 4.491-1.239 6.507-1.07 2.11-1.293 2.305-4.465 3.918l-3.338 1.697-1.221 2.64c-.672 1.452-1.611 2.979-2.086 3.394-.475.415-1.426 1.919-2.112 3.343-.687 1.424-1.539 2.911-1.895 3.304-.615.679-.604.762.22 1.639.754.803.829 1.137.568 2.542-.165.89-.315 3.043-.334 4.785l-.035 3.168 2.64.63c3.216.767 4.518 1.432 6.174 3.156 1.385 1.441 1.888 3.183 1.924 6.662.011 1.141.377 3.686.813 5.657.435 1.971.915 4.601 1.067 5.846.262 2.159.726 4.278 1.643 7.506.23.809.954 2.039 1.609 2.734 1.053 1.116 1.418 1.263 3.143 1.263 1.702 0 2.215-.199 4.009-1.554 1.132-.855 2.059-1.712 2.059-1.905 0-.193.598-.601 1.329-.907 1.162-.485 1.592-.487 3.395-.016 2.08.543 2.258.475 2.093-.8-.135-1.052.736-1.886 2.173-2.079.812-.109 2.874-.829 4.582-1.6 2.855-1.289 3.309-1.386 5.61-1.202 1.377.111 3.182.348 4.012.528 3.095.67 3.478-.062 1.811-3.459-.992-2.025-1.001-2.106-.383-3.403.805-1.688 1.546-1.677 3.124.046 1.219 1.331 1.288 1.355 2.184.769.621-.407 1.009-1.111 1.184-2.145.249-1.474.19-1.6-1.435-3.03-1.333-1.173-1.793-1.9-2.153-3.402-.529-2.207-.233-8.024.575-11.293.282-1.141.424-2.518.314-3.06-.144-.716.053-1.237.718-1.902.74-.74.96-1.441 1.146-3.662.231-2.759.513-3.507 4.876-12.932 1.102-2.382 1.542-2.832 8.555-8.751 6.029-5.089 12.716-9.973 36.244-26.474 15.869-11.129 29.382-20.633 30.03-21.121.835-.629 46.107-55.634 50.036-60.793.264-.347.123-.462-.536-.434-.492.021-15.66 2.809-33.707 6.197" fill="#464655" fill-rule="evenodd"/></svg>