<svg xmlns="http://www.w3.org/2000/svg" width="192.717" height="99.539"><path d="M32.35 1.307c-4.897 1.182-18.034 11.018-22.877 17.13-1.182 1.491-2.146 2.829-2.142 2.972.005.143 1.139.629 2.521 1.079 3.131 1.019 4.512 2.011 5.284 3.796.906 2.093.548 3.763-.967 4.519-.638.319-1.865.752-2.726.962-1.532.376-4.033 1.541-5.049 2.354-.711.569-1.359 2.698-1.146 3.764.223 1.114-.387 3.169-1.729 5.827-1.763 3.492-1.771 3.708-.301 7.842.935 2.628.722 4.908-.822 8.833-1.519 3.856-1.53 4.983-.081 7.869.62 1.237 1.384 3.043 1.696 4.015.767 2.385 1.201 2.797 3.765 3.575 2.496.759 3.787 2.032 3.787 3.736 0 1.494-.248 1.891-1.945 3.11-.859.617-1.773 1.532-2.033 2.033-.425.823-.412 1.045.134 2.263.332.743.698 1.85.812 2.459.147.783.504 1.281 1.219 1.698.555.324 4.623 1.643 9.04 2.932 4.416 1.288 8.825 2.701 9.796 3.139 1.727.778 1.89.791 7.227.594 3.853-.142 6.877-.06 10.271.279l4.811.481 6.738-1.616c6.457-1.548 9.496-2.666 12.066-4.44 1.3-.896 3.839-1.614 5.714-1.614 2.546 0 9.114 1.893 14.843 4.278 8.144 3.39 11.857 3.822 17.616 2.046l3.324-1.024.727-1.792c.4-.986.978-2.938 1.285-4.337.656-2.995 2.72-7.143 4.4-8.843.646-.654 2.421-1.797 3.944-2.542 3.475-1.697 6.39-3.553 8.05-5.123.707-.668 1.719-1.353 2.249-1.521.704-.223 1.249-.816 2.028-2.206.585-1.046 1.538-2.407 2.118-3.025.579-.619 1.869-2.301 2.866-3.738.997-1.438 2.314-3.053 2.926-3.591 1.448-1.271 13.664-7.413 17.271-8.683 4.924-1.734 9.588-2.619 13.741-2.608 2.032.006 4.752.147 6.042.315l2.346.304 4.158-2.083c4.035-2.022 4.158-2.114 4.171-3.125.007-.573.497-8.052 1.089-16.62.592-8.567 1.008-15.65.924-15.738-.084-.089-7.909-.161-17.39-.161h-17.237l-3.212 1.32c-4.359 1.791-5.463 1.894-9.953.923-2.859-.618-4.608-.796-7.788-.791-4.943.008-11.452.676-15.205 1.56-5.581 1.316-6.351 1.357-9.312.497-4.134-1.202-4.029-1.244-6.498 2.585-2.155 3.344-4.489 3.874-8.532 1.936-1.291-.618-2.732-1.124-3.203-1.123-1.27.002-2.823 1.086-3.995 2.79a35 35 0 0 1-2.119 2.731c-.997 1.128-1.215 1.223-2.79 1.223-3.174 0-3.841-.655-3.71-3.645l.068-1.556-1.377.232c-2.216.374-12.519.422-13.82.064-1.722-.473-5.064-3.348-9.213-7.924-4.105-4.528-5.697-5.657-11.759-8.341-3.289-1.457-4.279-1.747-6.746-1.978-1.59-.148-3.179-.338-3.533-.42-.353-.083-1.189-.018-1.857.143" fill="#464655" fill-rule="evenodd"/></svg>