<svg xmlns="http://www.w3.org/2000/svg" width="165.019" height="140.001"><path d="M96.261 1.394a5.045 5.045 0 0 0-1.251.819c-.744.699-5.793 1.814-9.338 2.061-3.251.227-6.672 1.4-11.455 3.929-3.164 1.673-3.17 1.68-4.211 4.723-.59 1.726-.6 1.909-.261 5.226.194 1.891.559 4.119.812 4.951.638 2.092.789 4.212.409 5.722-.436 1.729-2.417 4.427-4.094 5.574-.758.519-1.819 1.61-2.359 2.425-.932 1.409-.981 1.599-.985 3.85a17.285 17.285 0 0 1-.621 4.612l-.617 2.243-3.16 2.53c-1.739 1.392-3.778 2.843-4.531 3.226-1.804.915-4.668 1.382-6.977 1.138-1.628-.172-1.897-.13-2.448.381-.416.385-.621.896-.625 1.557-.003.541-.244 1.507-.534 2.147-.813 1.79-1.858 6.023-2.08 8.424-.172 1.854-.317 2.295-1.022 3.097-.945 1.077-4.444 3.594-6.259 4.503-2.296 1.151-7.546 5.043-10.039 7.441l-2.475 2.383-3.298.658c-2.543.508-3.487.82-4.125 1.367-.455.39-2.112 1.503-3.682 2.473-3.145 1.943-4.556 3.362-5.028 5.055-.311 1.113-.349 5.066-.059 6.018.209.685-.957 3.719-1.553 4.038-.264.141-1.101 1.235-1.861 2.432l-1.38 2.175 1.417 1.385c2.905 2.841 6.124 4.112 9.657 3.813l1.972-.166 1.289 1.308c.987 1.003 1.288 1.511 1.288 2.179 0 .478-.165.969-.366 1.09-.201.121-.689.703-1.084 1.293l-.72 1.073.77 1.127c.424.62.924 1.778 1.113 2.573.38 1.605.203 1.506 3.576 1.994 1.128.163 2.07.322 2.094.354.024.031.177.315.341.631.203.392.874.73 2.11 1.065 1.757.475 1.83.475 2.382-.024.508-.46 1.061-.515 5.147-.515 5.502 0 6.114-.171 8.565-2.395.983-.893 3.149-2.44 4.813-3.439a99.422 99.422 0 0 0 5.849-3.857c3.91-2.825 6.206-3.706 10.92-4.191 2.113-.217 2.231-.198 3.3.529.609.415 1.665.947 2.346 1.184.857.298 1.916 1.096 3.446 2.595l2.208 2.164 3.568.75c4.152.872 4.313.881 5.938.327 1.342-.457 1.968-1.253 2.725-3.466.239-.7.636-1.58.882-1.955.421-.642.536-.67 1.91-.455 1.436.225 1.549.304 2.939 2.045.247.309 1.023.955 1.725 1.436 1.918 1.314 3.487 1.276 6.838-.166 2.832-1.219 3.845-2.103 6.111-5.334.647-.923 1.778-2.09 2.513-2.595l1.337-.916h9.93l1.352.867c.967.621 1.802 1.541 2.93 3.232 1.48 2.217 1.623 2.581 2.312 5.87.861 4.108 1.824 6.22 4.644 10.187 2.438 3.429 3.249 5.239 3.249 7.248v1.535l.894-.154a60.72 60.72 0 0 1 2.269-.326c2.521-.316 5.591-1.735 7.88-3.644l2.105-1.755.157-3.486c.087-1.917.236-4.083.332-4.814.156-1.192.097-1.41-.57-2.106-.842-.879-.777-1.586.254-2.753.334-.378.957-1.533 1.385-2.566.461-1.115 1.304-2.457 2.074-3.3 1.314-1.441 2.394-3.313 3.013-5.222.42-1.298 1.632-2.213 4.807-3.627 2.06-.918 2.461-1.214 3.135-2.314 1.291-2.107 1.483-2.971 1.599-7.174.171-6.258-.655-8.249-4.111-9.907-1.11-.533-2.258-.823-3.789-.958-2.966-.263-5.935-1.06-6.818-1.831-.4-.349-2.088-2.006-3.752-3.682-3.84-3.867-5.718-5.279-7.717-5.801-1.523-.398-1.579-.392-2.583.273-.724.479-1.36 1.319-2.159 2.855l-1.132 2.176-2.023.504-2.023.504-1.729-.661c-1.499-.573-1.961-.937-3.457-2.724-3.264-3.899-6.345-6.051-8.665-6.051-.449 0-1.313-.198-1.92-.441-.931-.373-1.15-.619-1.41-1.582l-.307-1.14 1.336-1.177c.734-.647 4.041-3.057 7.348-5.354 6.556-4.554 7.915-5.833 9.453-8.9l.981-1.955-1.001-1.621c-.55-.891-2.533-3.567-4.407-5.946-3.13-3.975-3.465-4.514-4.128-6.641-.622-1.993-.722-2.808-.723-5.85-.001-2.814-.192-4.602-.938-8.761l-.937-5.226-2.461-5.088-2.46-5.088-3.083-1.895c-1.776-1.092-3.57-1.984-4.233-2.105-2.112-.385-7.99-.55-8.715-.244M79.283 48.277c1.062.431 2.237 1.2 3.089 2.02.756.729 1.791 1.61 2.3 1.958 1.128.772 1.827 2.253 1.421 3.011-.539 1.007-1.685 1.666-2.899 1.666-1.346 0-1.911-.498-1.718-1.512.086-.447.008-.689-.222-.689-.601 0-1.495 1.401-1.495 2.341 0 1.273-.547 1.618-2.217 1.396-1.233-.164-1.448-.114-1.918.446-.454.541-.57.572-.815.218-.247-.357-.342-.339-.705.137-.3.393-.369.864-.241 1.651.099.605.181 1.162.183 1.237.024 1.108-.224 1.449-1.979 2.725-1.055.767-2.093 1.675-2.307 2.016-.649 1.037-.813 3.372-.306 4.353.242.467.528 1.366.635 1.997.149.876.331 1.168.769 1.231.78.113 1.2 1.153 1.2 2.968 0 1.283-.11 1.616-.727 2.188-.401.371-.958.674-1.238.674-.4 0-.51.209-.51.97 0 .787-.132 1.019-.705 1.237-.904.344-5.353.343-5.896-.001-.294-.187-.412-.752-.412-1.973 0-1.875.186-1.632-3.05-3.976-.751-.544-.801-.697-.799-2.475.002-2.14.534-3.182 1.869-3.662.63-.227.723-.367.505-.768-.34-.628-1.544-1.713-2.851-2.569-1.149-.752-1.674-1.743-1.54-2.904.082-.711.26-.827 2.056-1.336 1.081-.307 2.195-.761 2.475-1.01.28-.249.757-.499 1.06-.554.302-.056.849-.563 1.215-1.129.365-.565.799-1.028.962-1.029.176-.002.331-.76.378-1.854.09-2.07.538-2.987 1.653-3.382.408-.144.928-.388 1.155-.542 1.685-1.14 2.144-1.37 2.75-1.38.517-.009.949-.388 1.742-1.53.579-.834 1.384-1.651 1.787-1.815 3.088-1.252 3.122-1.254 5.346-.35" fill="#464655" fill-rule="evenodd"/></svg>