<svg xmlns="http://www.w3.org/2000/svg" width="324.699" height="218.501"><path d="M203.749 2.999c-12.204.971-43.375 3.374-69.269 5.34-25.895 1.966-47.934 3.777-48.976 4.023-2.713.642-59.293 40.525-68.382 48.202-6.609 5.583-7.45 6.495-8.737 9.471a211.68 211.68 0 0 1-2.718 5.999c-.711 1.488-1.457 4.045-1.656 5.682-.2 1.637-.66 3.342-1.023 3.788-.899 1.105-2.132 11.148-1.767 14.389.231 2.043.669 2.956 1.981 4.128 1.631 1.458 1.882 1.506 7.765 1.508 5.127.002 6.358.172 7.857 1.086.977.595 1.908 1.425 2.068 1.843.16.417-.335 2.083-1.1 3.702-.766 1.618-1.392 3.461-1.392 4.095 0 1.387 1.724 2.591 4.411 3.082 2.964.541 4.352 2.523 7.198 10.272 4.152 11.306 5.54 13.024 11.537 14.279 3.628.759 8.08 3 8.432 4.245.149.527.429 1.932.621 3.123.433 2.676 1.865 5.669 3.072 6.417.627.388 2.492.391 6.014.009 5.07-.55 7.724-1.547 14.996-5.635 3.081-1.732 11.476-4.956 13.643-5.239 1.703-.222 2.214-.028 3.365 1.281.747.849 1.365 1.787 1.374 2.084.01.298 1.235 2.977 2.723 5.953 1.488 2.977 2.714 5.777 2.723 6.224.01.446.376 1.286.815 1.866.78 1.031.919 1.034 6.532.131 3.713-.597 7.202-1.567 9.894-2.751 4.843-2.129 12.68-4.327 18.46-5.177 5.02-.738 9.29-.196 16.4 2.081 5.468 1.752 12.172 2.755 18.457 2.763 3 .003 4.193.27 6.031 1.347 2.887 1.691 3.523 3.376 3.779 10 .189 4.905.126 5.249-1.514 8.232l-1.711 3.113 1.804 3.944c4.481 9.797 5.831 14.085 7.417 23.561.74 4.426 1.109 5.547 1.823 5.547 1.485 0 6.096-1.718 8.275-3.082 2.918-1.828 12.679-10.65 19.33-17.472l5.683-5.828 7.846-2.578c10.523-3.458 12.122-4.336 16.148-8.865 1.879-2.115 3.772-3.845 4.206-3.845.434 0 2.696-.63 5.025-1.399l4.236-1.4 5.081 1.433c2.794.788 5.567 1.487 6.162 1.553 2.645.294 6.765 3.197 6.765 4.768 0 1.243-.128 1.251 5.384-.366 2.515-.738 5.237-1.342 6.049-1.342.813 0 1.87-.392 2.35-.872 1.308-1.308 11.985-.884 13.009.517.607.829 1.006.885 2.822.396 1.163-.313 2.708-1.204 3.432-1.98 2.304-2.466 3.84-2.931 9.679-2.931 4.351 0 5.439-.155 5.439-.772 0-.425-.836-2.377-1.858-4.337-1.022-1.96-2.231-4.846-2.686-6.413-1.261-4.337-4.027-7.179-9.384-9.642-7.26-3.339-9.383-3.82-18.813-4.268-8.337-.397-8.809-.482-12.717-2.293-5.942-2.754-11.098-8.662-14.36-16.456-2.136-5.101-3.111-6.35-6.175-7.906-2.362-1.2-3.658-1.488-6.691-1.488-5.36 0-14.03-1.488-18.8-3.227-4.995-1.821-10.29-5.39-15.667-10.561-2.232-2.147-6.419-5.552-9.304-7.567-6.242-4.36-7.19-5.949-5.058-8.483.726-.863 5.046-4.762 9.6-8.665 4.554-3.902 8.575-7.612 8.937-8.243 1.407-2.456.854-4.835-1.999-8.604-1.482-1.958-2.943-3.713-3.247-3.901-1.127-.696-.582-6.481 1.071-11.371.893-2.642 1.623-5.509 1.623-6.37 0-2.684 3.086-9.479 5.661-12.468 1.332-1.545 5.353-7.423 8.936-13.062 7.956-12.522 7.954-12.462.66-15.103-2.174-.787-4.731-1.397-5.682-1.356-.95.042-11.712.871-23.915 1.841" fill="#464655" fill-rule="evenodd"/></svg>