<svg xmlns="http://www.w3.org/2000/svg" width="255.772" height="64.565"><path d="M148.987 1.152c-.469.095-1.488 1.105-2.266 2.245-1.311 1.923-1.573 2.093-3.623 2.351-1.216.154-2.844.476-3.618.716l-1.407.437.285 2.896c.38 3.846-.564 6.868-2.508 8.035-1.889 1.135-3.322 1.4-4.988.922-1.935-.555-2.171-.134-.631 1.122 2.227 1.817 16.387 10.794 17.443 11.059.618.155 2.088 1.693 3.776 3.949 1.52 2.032 3.122 4.004 3.561 4.382.438.378 3.291 1.41 6.339 2.292 7.441 2.155 11.678 2.223 21.101.339 13.608-2.719 14.092-2.783 16.034-2.097 1.702.6 1.787.586 2.853-.48 1.169-1.168.77-1.114 9.509-1.305 3.171-.069 3.595-.185 5.115-1.397.912-.727 2.521-1.762 3.577-2.299 1.092-.555 2.494-1.777 3.255-2.836 1.652-2.301 4.579-3.439 8.467-3.291 2.1.081 3.509-.241 7.886-1.802 5.182-1.847 5.332-1.936 5.459-3.23.175-1.792 1.036-2.421 4.559-3.329 1.641-.423 3.463-1.015 4.049-1.315.974-.499.997-.573.272-.856-.479-.187-1.264-.032-1.984.393-1.992 1.177-3.932.894-6.865-1.002-1.451-.937-2.888-1.705-3.193-1.705-.305 0-1.533-.577-2.73-1.282-1.197-.706-3.075-1.475-4.175-1.71-3.05-.652-7.449-2.611-8.318-3.704-.597-.75-1.208-.977-2.634-.977-1.58 0-2.014-.202-2.919-1.359-.799-1.02-1.205-1.248-1.63-.914-1.435 1.127-2.482.927-5.049-.962-1.404-1.034-2.935-1.88-3.401-1.88-.466 0-1.709.657-2.761 1.46-1.052.804-2.349 1.599-2.881 1.768-.532.168-1.655.74-2.495 1.271-1.304.822-2.15.971-5.755 1.011-2.325.026-5.375-.005-6.779-.067-2.47-.111-2.571-.073-3.197 1.198-.355.722-1.143 1.938-1.751 2.701l-1.106 1.389-4.436-1.181c-4.708-1.253-7.325-2.825-13.267-7.97l-2.437-2.109-2.679.281c-2.374.25-4.598-.003-10.565-1.202-.351-.071-1.023-.051-1.492.044M1.936 51.126c-.373.603-.538.452 2.054 1.871 1.416.775 2.407 1.05 3.129.869 1.491-.374 4.256.642 5.052 1.858.619.945.856 1.004 2.97.74 2.137-.267 2.366-.207 3.286.861.85.989 1.491 1.21 4.602 1.586 3.688.446 4.639.481 8.198.302 1.973-.099 2.007-.123 1.283-.923-.713-.788-.695-.864.452-1.85 1.678-1.444.639-1.731-3.02-.834-2.53.62-3.063.632-4.369.102-1.318-.535-7.291-1.276-9.587-1.189-1.2.046-3.102-.752-5.254-2.205-1.522-1.027-2.424-1.284-5.162-1.472-2.335-.16-3.412-.076-3.634.284m96.217 6.3c-.997.094-1.812.353-1.812.573 0 .221.196.402.436.402s1.413.672 2.606 1.492c2.206 1.518 5.092 2.044 5.712 1.042.435-.705-.161-2.468-.98-2.898-1.016-.534-3.783-.818-5.962-.611m26.429 5.532c.411.107 1.082.107 1.492 0 .411-.107.075-.195-.746-.195-.82 0-1.156.088-.746.195" fill="#464655" fill-rule="evenodd"/></svg>