<svg xmlns="http://www.w3.org/2000/svg" width="135.406" height="136.427"><path d="M42.991 1.811c-3.948.664-6.521 1.388-8.688 2.444-1.143.557-1.543 1-5.034 5.566-2.085 2.728-4.052 5.464-4.371 6.079-1.017 1.963-1.636 2.575-2.777 2.745-1.493.223-5.112 1.298-6.593 1.959-.756.337-2.798 1.8-4.965 3.556l-3.68 2.983-.124 2.282c-.115 2.136-.083 2.38.508 3.794.811 1.939.806 2.333-.032 2.625-.531.185-.729.452-.991 1.336-.181.608-.801 1.842-1.378 2.743l-1.049 1.636-.336 9.402c-.357 9.98-.401 10.339-1.72 14.165l-.706 2.049 1.103 3.593 1.103 3.592 3.064 3.897c2.607 3.315 3.201 4.225 3.985 6.094 2.22 5.297 2.6 6.007 4.194 7.838.865.993 1.826 2.183 2.135 2.645.894 1.332 1.649 3.703 1.799 5.653.13 1.687.192 1.853 1.073 2.886.594.695 1.042 1.511 1.227 2.235.246.959.535 1.362 1.83 2.549 2.036 1.866 3.576 4.408 4.276 7.056.695 2.633.551 4.876-.652 10.148-.497 2.173-.845 4.1-.776 4.281.182.474.846.629 2.615.613 2.528-.024 2.769-.262 5.183-5.086 1.389-2.777 3.278-5.981 5.872-9.961 3.6-5.524 4.006-6.053 6.927-9.027 2.304-2.346 3.529-3.814 4.757-5.702 1.654-2.543 1.654-2.543 1.677-4.175.02-1.434-.053-1.742-.598-2.531-.792-1.148-.854-2.59-.139-3.257.761-.708 1.771-1.089 3.355-1.265 1.728-.193 4.641-1.54 5.868-2.715 1.905-1.825 5.692-2.563 7.766-1.513.361.183 1.217.525 1.9.76 1.537.529 4.431 2.208 5.983 3.472 1.398 1.14 2.698 1.828 4.021 2.131 1.497.343 1.602.083 1.415-3.503l-.154-2.951.627-.493c.553-.436.683-.457 1.1-.184 2.184 1.43 3.725 2.231 4.614 2.399.909.171 1.116.136 1.542-.261.271-.253.563-.88.648-1.394.086-.514.441-1.5.788-2.191.538-1.07.765-1.297 1.522-1.523.49-.147 1.214-.267 1.609-.267s1.025-.158 1.399-.352c.673-.348.68-.37.619-2.006-.061-1.631-.051-1.664.7-2.3.418-.355.949-.779 1.178-.942.229-.164.63-.722.891-1.242.885-1.759.804-1.73 3.419-1.236 2.853.538 5.684.412 9.163-.41 1.969-.466 2.591-.721 3.546-1.458 1.052-.812 1.17-.995 1.289-1.999.072-.608.038-1.445-.076-1.859-.113-.414-.186-1.819-.161-3.122.038-2.008-.03-2.532-.442-3.435-.462-1.011-.469-1.112-.13-1.975.334-.85.458-.94 1.871-1.361 1.186-.353 2.17-.45 4.557-.45 2.736 0 3.084-.045 3.444-.443.486-.537.335-1.707-.329-2.551-.348-.443-.729-.59-1.848-.717-.915-.103-2.052-.466-3.24-1.033-1.586-.757-1.883-.993-2.236-1.775-.393-.871-.393-.936.016-1.942.317-.779.679-1.196 1.439-1.658 1.278-.775 2.593-1.325 3.611-1.51 2.38-.433 2.482-.495 2.486-1.526.002-.523.08-1.071.174-1.218.244-.385 1.307-.748 2.188-.748 1.374 0 2.707-.763 3.713-2.124.517-.7 1.167-1.315 1.47-1.391 1.032-.259 1.601-2.865 1.001-4.586-.199-.572-.57-.881-1.799-1.5-1.671-.841-2.983-.987-4.899-.545-1.503.346-3.153-.221-4.317-1.484-.915-.992-.923-1.016-.779-2.303.08-.715.341-1.808.579-2.428.267-.695.478-1.954.549-3.273.112-2.084.095-2.177-.582-3.328-.383-.652-.77-1.178-.861-1.17-.09.009-.63.593-1.199 1.298-.603.747-1.857 1.845-3.004 2.629-1.846 1.264-2.061 1.353-3.478 1.432-1.579.089-1.67.063-5.427-1.517-1.36-.572-1.967-.698-3.363-.698-1.44 0-2.321-.194-5.675-1.251-2.239-.706-4.533-1.585-5.259-2.016-1.109-.658-1.66-.811-3.95-1.097-3.482-.434-14.184-3.501-14.794-4.239-.559-.676-.718-1.49-.421-2.144.14-.307.255-.948.255-1.425 0-1.343-.656-1.382-3.561-.215l-2.37.953-.654-.771c-.56-.661-.637-.908-.537-1.729.124-1.014-.219-2.089-.665-2.089-1.21 0-4.242.606-5.24 1.048-1.216.537-1.242.539-2.456.156-1.212-.382-1.239-.38-2.294.143-.975.483-1.319.524-3.977.476-1.601-.029-3.137-.14-3.414-.245-.338-.128-.926-1.016-1.782-2.69-.703-1.374-1.401-2.49-1.551-2.48-.15.011-2 .309-4.11.664m-24.41 130.56c-.538.235-.686.421-.599.753.096.365.251.419.9.314.706-.115.892-.021 1.87.942.979.965 1.136 1.043 1.59.8.435-.233.488-.399.379-1.206-.175-1.31-.97-1.959-2.366-1.935-.583.01-1.381.159-1.774.332" fill="#464655" fill-rule="evenodd"/></svg>