<svg xmlns="http://www.w3.org/2000/svg" width="1085.824" height="686.179"><path d="M818.892 22.717 675.925 43.236l-47.713 24.077-47.713 24.077-30.104 37.593c-27.374 34.182-30.638 39.025-35.988 53.386-8.578 23.026-9.16 23.823-23.678 32.391-10.936 6.454-14.885 7.834-22.419 7.834h-9.144l1.088 11.311c.599 6.22 1.634 21.161 2.3 33.201l1.211 21.891-7.693 6.159c-4.232 3.388-20.309 21.54-35.728 40.338-21.09 25.713-26.976 33.933-23.764 33.191 2.349-.543 34.928-3.266 72.399-6.051 71.115-5.286 77.552-5.11 77.552 2.121 0 1.591-4.166 9.093-9.257 16.673-5.735 8.536-10.291 17.85-11.971 24.472-2.619 10.318-2.576 10.876 1.215 16.005 5.054 6.835 3.904 9.891-7.055 18.759-4.92 3.981-8.986 8.15-9.036 9.263-.133 3 22.204 21.044 29.176 23.569 3.313 1.2 9.024 2.243 12.692 2.319 11.153.23 15.474 2.932 20.475 12.801 5.856 11.556 13.22 16.276 25.407 16.285 14.308.011 24.214 5.942 29.923 17.917l4.655 9.767 9.37-8.937c5.153-4.915 9.369-9.691 9.369-10.614 0-1.977 8.924-9.936 11.14-9.936.841 0 1.528-1.669 1.528-3.709 0-8.224 10.176-21.16 15.145-19.253 1.437.551 3.953-.48 5.593-2.291 1.639-1.812 8.027-5.476 14.195-8.143 6.168-2.668 14.065-6.322 17.549-8.121 12.407-6.406 54.291-17.318 54.291-14.144 0 1.025 2.084 1.231 4.977.492a541.64 541.64 0 0 1 7.691-1.909c3.749-.882 17.246-8.114 27.833-14.915 4.954-3.182 12.502-6.167 17.192-6.8 9.212-1.241 20.124-4.262 20.124-5.57 0-.46-1.629-4.031-3.62-7.934-4.797-9.402-13.492-12.029-30.191-9.121-18.632 3.244-27.144-3.328-18.846-14.552 4.925-6.661 5.007-12.519.176-12.519-5.097 0-11.447-6.774-9.885-10.545.689-1.665 1.597-7.362 2.017-12.661.42-5.298 2.362-12.615 4.316-16.26 4.236-7.904 4.574-15.343.837-18.444-3.576-2.968-3.43-6.546.969-23.776 2.323-9.1 3.252-16.723 2.514-20.652-1.004-5.355-.415-6.927 4.202-11.213 2.953-2.741 9.729-6.613 15.056-8.604 6.242-2.332 13.897-7.512 21.524-14.566 6.51-6.02 19.386-17.288 28.614-25.038 9.505-7.983 19.746-18.536 23.626-24.343 12.8-19.158 26.278-55.15 31.71-84.677 4.059-22.064 17.531-54.814 30.801-74.875C972.716-1.498 971.066 1.78 966.139 2.003c-2.354.107-68.615 9.428-147.247 20.714m138.984 1.298c-15.081 21.873-29.072 54.496-33.941 79.138-6.583 33.321-18.48 65.406-31.98 86.249-5.173 7.988-13.272 16.099-28.578 28.622-11.747 9.612-23.095 19.824-25.216 22.693-2.295 3.105-10.023 8.146-19.083 12.451-16.346 7.766-21.525 12.843-19.861 19.47.571 2.275-.826 11.868-3.104 21.318-4.006 16.617-4.034 17.301-.861 20.807 4.266 4.714 4.149 10.68-.398 20.351-2.081 4.424-4.213 13.927-4.907 21.865l-1.226 14.039 5.544 1.109c9.322 1.864 10.421 5.052 4.713 13.676-7.803 11.792-1.946 16.739 16.295 13.764 9.172-1.497 21.148-.448 26.415 2.313 1.588.832 4.245 5.067 5.903 9.409l3.016 7.896 15.812-3.164c16.579-3.317 51.359-13.879 52.912-16.068 1.934-2.727 9.063-5.437 14.302-5.437 3.938 0 5.219-.71 4.528-2.509-1.3-3.388 8.561-10.194 15.471-10.678 3.028-.212 5.507-1.317 5.509-2.455.004-2.15 17.187-9.66 29.981-13.102l7.355-1.98-.818-11.314c-.524-7.243-1.805-12.035-3.56-13.318-1.508-1.103-2.2-2.882-1.538-3.954.662-1.072.314-3.904-.775-6.293-1.605-3.521-1.266-5.613 1.787-11.049 2.071-3.687 3.766-7.865 3.766-9.284 0-10.731 27.919-33.93 46.839-38.92 8.785-2.317 9.668-2.683 23.378-9.69 5.276-2.696 10.359-4.428 11.296-3.849.938.579 2.864.398 4.281-.402 3.619-2.044-23.97-65.616-29.815-68.699-2.984-1.574-13.084-23.8-40.707-89.58-20.206-48.118-37.408-88.572-38.227-89.898-1.049-1.699-5.328 3.16-14.508 16.473M79.231 168.249c-11.566 8.282-13.667 11.847-8.585 14.567 4.852 2.597 4.465 6.946-.796 8.946-5.97 2.27-6.426 3.363-8.322 19.99-1.729 15.16-.056 23.51 4.71 23.51 3.903 0 4.853 3.673 1.818 7.027-4.318 4.771-.44 8.393 12.911 12.057 13.954 3.83 36.187 2.907 46.053-1.911 6.514-3.181 6.953-3.165 18.225.642 18.651 6.3 22.975 5.382 26.569-5.641 1.645-5.045 4.052-7.76 9.216-10.395 3.845-1.961 9.68-6.944 12.967-11.073 7.663-9.628 24.337-17.848 36.203-17.85 4.681-.001 10.488-.902 12.904-2.003 4.046-1.844 4.459-3.232 5.241-17.645.555-10.235.161-16.126-1.141-17.04-1.094-.769-9.318-.999-18.276-.511-23.354 1.27-51.568 2.892-58.036 3.336-3.055.21-6.951 1.776-8.657 3.481-2.329 2.325-4.173 2.692-7.388 1.47-3.323-1.264-4.997-.842-7.458 1.877-3.722 4.114-7.756 4.549-9.123.984-.62-1.616-3.365-2.408-7.635-2.202-5.385.259-8.058-.949-13.905-6.284-8.629-7.872-17.217-12.517-23.142-12.517-2.375 0-8.834 3.233-14.353 7.185m171.67 10.46c-.617 3.732-1.131 11.04-1.142 16.24-.018 8.631-.485 9.696-5.359 12.216-2.936 1.519-9.248 2.762-14.025 2.762-11.418.002-29.063 8.355-34.022 16.105-1.991 3.112-7.821 8.457-12.957 11.878-6.999 4.663-9.661 7.697-10.633 12.12-1.029 4.687-.598 6.364 2.099 8.155 8.872 5.894 9.923 7.341 10.652 14.666.419 4.213 1.518 9.083 2.442 10.824.924 1.74 1.335 8.247.913 14.461-.527 7.766.076 12.926 1.928 16.508 2.602 5.031 2.948 5.143 10.054 3.246 6.084-1.624 8.37-1.432 13.194 1.106 3.209 1.689 12.967 4.707 21.684 6.708 8.717 2 22.396 6.928 30.398 10.952 12.023 6.045 17.038 7.507 28.885 8.42 14.326 1.105 14.341 1.102 22.083-5.162 11.802-9.548 35.118-16.7 81.945-25.138l41.624-7.501 10.605-10.436 10.606-10.436-2.095-31.078c-1.463-21.724-2.872-32.008-4.679-34.167-1.422-1.698-7.484-9.807-13.47-18.018-6.579-9.025-12.144-14.917-14.069-14.895-1.752.019-11.219 1.173-21.038 2.564-16.845 2.387-20.523 2.246-65.15-2.498-45.575-4.844-47.645-5.234-56.877-10.708-8.027-4.76-11.437-5.681-21.028-5.681h-11.446l-1.122 6.787M56.622 255.127c-3.233 10.358-5.074 12.86-11.582 15.731-4.166 1.838-7.036 4.349-7.036 6.156 0 1.678-2.406 4.048-5.347 5.266-4.394 1.82-5.21 3.068-4.577 7.006 3.948 24.589 4.708 32.044 3.772 37.033-1.006 5.36-.477 6.157 7.131 10.752 8.402 5.075 18.5 6.477 21.933 3.044 1.055-1.055 5.901-1.666 10.767-1.357l8.849.562-.588 17.81c-.579 17.563-.533 17.792 3.338 16.563 2.158-.685 11.381-1.385 20.494-1.555 15.139-.283 16.585-.619 16.754-3.896.367-7.134.784-7.868 4.792-8.437 4.238-.602 4.344-1.367 2.338-16.866-.386-2.986-.777-6.65-.869-8.143-.358-5.823-2.959-7.752-7.026-5.212-4.591 2.867-7.162.945-3.936-2.942 1.808-2.178 1.866-3.838.258-7.368-1.141-2.505-2.075-6.285-2.075-8.4 0-2.114-1.254-5.229-2.786-6.921-2.152-2.378-2.815-7.86-2.919-24.121l-.134-21.044h-9.42c-5.181 0-13.844-1.314-19.25-2.92-13.304-3.953-21.793-4.228-22.881-.741m71.867-1.719c-1.493.991-6.175 2.704-10.406 3.806l-7.691 2.004v20.375c0 15.903.596 20.87 2.715 22.628 1.493 1.239 2.714 4.151 2.714 6.47 0 2.32.973 6.353 2.162 8.961 1.715 3.765 1.662 5.557-.257 8.682-2.378 3.874-2.357 3.884 1.317.618 3.651-3.245 3.804-3.212 6.87 1.468 1.725 2.632 3.252 8.212 3.394 12.398.141 4.186.906 8.662 1.7 9.946 2.39 3.868-.393 11.177-4.255 11.177-4.397 0-5.602 1.941-4.298 6.925 1.118 4.278 5.855 5.126 11.565 2.07 2.619-1.401 4.656-1.094 8.218 1.24 4.462 2.923 4.836 2.924 6.463.015.951-1.698 2.483-2.62 3.407-2.05.923.571 4.516-.309 7.984-1.955 4.795-2.275 6.578-4.439 7.439-9.025.622-3.317 2.672-7.426 4.556-9.131 2.855-2.583 3.239-4.68 2.308-12.596-1.014-8.629-.723-9.751 3.183-12.279 2.364-1.53 6.516-3.327 9.227-3.993 4.79-1.178 4.853-1.357 2.237-6.415-1.767-3.418-2.465-8.789-2.033-15.651.362-5.746-.102-12.484-1.03-14.972-.929-2.488-2.251-7.762-2.938-11.72-1.68-9.672-9.893-15.488-19.963-14.138-4.684.629-10.418-.331-17.251-2.888-11.513-4.307-13.481-4.531-17.337-1.97m265.122 64.248c-46.887 9.135-65.572 15.078-75.442 23.995l-7.018 6.341-15.915-1.031c-13.896-.901-17.458-1.879-28.072-7.714-10.524-5.785-44.13-16.352-46.013-14.469-.363.362.203 2.272 1.258 4.243 1.055 1.972 2.47 8.353 3.144 14.181.793 6.854 2.724 12.573 5.468 16.196 2.332 3.08 4.241 6.929 4.241 8.554 0 1.624-4.143 6.228-9.206 10.231-7.764 6.137-8.686 7.468-5.882 8.494 1.829.669 5.73 3.201 8.671 5.626l5.346 4.411 3.087-3.814c4.054-5.005 5.753-4.822 12.851 1.385 3.269 2.859 8.598 5.776 11.841 6.481 3.243.706 6.779 2.931 7.857 4.946 3.049 5.697.381 15.771-4.803 18.133-2.434 1.109-4.426 2.776-4.426 3.703 0 .928-1.475 3.562-3.278 5.854-3.786 4.812-3.33 17.215.632 17.215 4.585 0 7.554 5.235 8.753 15.437 1.869 15.907 6.343 21.227 12.058 14.341 1.277-1.539 3.412-2.378 4.746-1.867 1.334.512 2.425.272 2.425-.533 0-2.154 13.755-6.322 16.094-4.876 1.272.786 2.003-.522 2.003-3.587 0-3.545.72-4.548 2.714-3.783 3.265 1.253 3.316.835.616-5.091-1.621-3.557-1.551-6.981.304-15.016 5.032-21.784 6.782-23.621 53.714-56.39 28.869-20.157 29.627-20.859 51.68-47.862 25.291-30.969 26.042-32.017 22.735-31.711-1.303.121-20.285 3.71-42.183 7.977m-193.253 1.975c-.618.618-4.967 1.841-9.665 2.719-12.648 2.363-15.761 5.933-14.363 16.472.959 7.234.561 9.071-2.54 11.726-2.023 1.732-3.678 5.041-3.678 7.354 0 5.475-7.488 12.866-14.446 14.258-4.711.942-5.651 2.1-6.619 8.153-1.004 6.277-2.449 7.905-13.105 14.766-6.587 4.241-14.42 9.053-17.406 10.694-3.763 2.067-5.771 4.824-6.542 8.983-.612 3.3-1.667 7.295-2.345 8.878-1.482 3.463 1.815 6.502 7.982 7.355 3.534.489 4.542 1.701 4.607 5.535.11 6.477.885 7.05 10.791 7.976 7.484.699 9.65-.029 19.343-6.501 12.258-8.186 16.989-8.92 23.663-3.669 5.674 4.462 11.915 4.65 15.032.452 1.977-2.663 2.941-2.807 6.056-.905 5.483 3.347 8.754 2.784 13.141-2.262 2.909-3.346 5.73-4.524 10.828-4.524 6.832 0 6.954.128 13.699 14.334l6.805 14.334 5.958-2.516c5.43-2.293 5.921-3.145 5.54-9.606-.453-7.674 3.151-14.985 10.435-21.167 8.114-6.886 6.942-17.398-2.195-19.691-2.634-.661-7.958-3.749-11.832-6.861l-7.042-5.66-3.67 3.939c-4.67 5.013-6.294 4.948-10.978-.44-2.094-2.408-5.753-4.866-8.132-5.463-6.267-1.573-5.42-3.51 4.724-10.797 4.976-3.576 9.048-7.778 9.048-9.339 0-1.562-2.036-5.508-4.524-8.77-2.488-3.263-4.524-8.354-4.524-11.314 0-9.627-5.174-23.553-9.9-26.65-4.469-2.928-12.05-3.889-14.146-1.793M27.712 338.876c-5.092 5.641-9.615 15.502-9.615 20.962 0 2.519 1.52 7.891 3.379 11.938 5.61 12.217 8.261 26.944 6.011 33.397-1.738 4.984-1.513 5.841 2.019 7.7 5.298 2.789 6.627 5.056 6.66 11.361.016 2.907 1.421 6.825 3.122 8.706 2.132 2.355 3.225 7.086 3.513 15.211.23 6.485 1.484 13.075 2.787 14.645 2.641 3.181 3.274 6.901 4.083 24.015.908 19.187 12.284 53.314 19.87 59.611 1.566 1.299 2.881 4.502 2.923 7.117.042 2.616 1.52 7.464 3.284 10.774 2.767 5.189 3.522 5.641 5.479 3.283 1.248-1.504 4.453-3.22 7.121-3.813 2.821-.627 6.582-3.734 8.984-7.421 4.147-6.368 7.836-8.654 17.199-10.662 3.466-.743 4.882-2.057 4.525-4.197-.33-1.978.664-3.121 2.723-3.131 3.661-.018 6.641-3.851 6.682-8.596.023-2.574-.577-2.807-3.139-1.218-2.479 1.537-4.964.956-11.446-2.677-7.966-4.465-8.361-5.085-10.444-16.388-2.016-10.943-1.915-11.997 1.475-15.387l3.638-3.639-3.608-9.643c-5.078-13.572-3.736-32.696 2.748-39.18 2.474-2.475 6.263-4.522 8.421-4.549 2.157-.028 4.265-1.069 4.684-2.313.461-1.369-.86-2.262-3.349-2.262-6.655 0-16.028-7.514-20.712-16.606-2.397-4.654-6.014-8.988-8.036-9.629-7.299-2.317-9.419-10.528-10.003-38.75l-.546-26.405-7.854.353c-4.32.195-11.241.884-15.379 1.532-6.168.965-8.968.332-15.528-3.513l-8.003-4.69-3.668 4.064m426.139 26.705-62.821 5.205-32.189 22.761c-17.704 12.519-34.333 24.659-36.953 26.978-5.867 5.193-9.683 13.344-12.574 26.862-2.713 12.689-1.042 15.465 9.788 16.253 7.223.526 7.532.792 7.128 6.155-.328 4.356.528 6.037 3.838 7.546 2.761 1.258 5.443 5.23 7.623 11.293 2.889 8.034 4.511 9.904 11.509 13.266 5.602 2.691 8.463 5.326 9.161 8.437 1.338 5.969 7.052 6.678 16.759 2.081 18.291-8.664 20.701-9.282 23.397-6.001 1.362 1.659 3.864 6.086 5.56 9.839 3.478 7.694 4.081 7.719 23.309.942 6.995-2.465 13.028-3.342 19.002-2.761 9.325.907 30.228 4.466 35.384 6.024 4.015 1.214 6.032 11.784 3.243 16.996-1.736 3.245-1.446 5.559 1.58 12.593 2.04 4.741 4.248 11.996 4.908 16.123.902 5.643 2.025 7.504 4.528 7.504 3.122 0 17.06-11.211 25.789-20.745 2.145-2.342 8.692-5.992 14.549-8.11 5.858-2.118 12.144-5.751 13.97-8.072 1.826-2.322 5.895-4.737 9.041-5.366 6.34-1.268 18.714 1.794 21.677 5.364 1.536 1.851 3.384 1.776 9.48-.387 4.969-1.763 10.459-2.293 15.972-1.544 5.263.716 8.852.413 9.608-.811.664-1.074 4.009-1.952 7.434-1.952s6.227-.34 6.227-.755-1.614-4.52-3.587-9.122c-2.855-6.661-5.162-9.083-11.311-11.874-4.248-1.928-11.632-3.524-16.409-3.545-4.778-.022-11.047-1.261-13.932-2.753-5.674-2.934-13.363-12.173-15.211-18.277-1.491-4.924-8.354-7.965-17.975-7.965-4.222 0-10.495-1.445-13.94-3.21-5.263-2.696-23.484-16.439-29.79-22.469-1.183-1.13 2.268-5.393 9.953-12.295l11.763-10.565-4.072-5.517c-2.239-3.035-4.071-6.851-4.071-8.48 0-6.983 6.264-23.587 11.51-30.511 7.81-10.306 13.043-20.541 11.362-22.222-2.871-2.871-29.156-1.972-90.217 3.087m-266.044.987c5.888 4.124 4.983 7.697-2.296 9.063-3.475.651-5.927 1.818-5.449 2.591.478.773-.347 2.415-1.833 3.649-1.76 1.46-2.542 4.822-2.242 9.638.364 5.854-.211 7.534-2.755 8.058-4.453.917-10.51-6.816-8.411-10.738 1.121-2.094.796-3.31-1.076-4.029-3.847-1.476-3.303-4.177 1.073-5.321 2.064-.54 4.195-2.671 4.735-4.735.54-2.065 1.576-3.754 2.303-3.754.727 0 3.2-1.629 5.495-3.62 5.019-4.352 5.351-4.378 10.456-.802m-10.913 3.308c-2.735 2.181-4.972 4.923-4.972 6.095 0 1.172-1.681 3.03-3.736 4.13-2.988 1.599-3.306 2.518-1.588 4.588 1.555 1.874 1.605 3.242.182 4.957-1.469 1.771-1.047 3.154 1.673 5.483 4.598 3.937 7.435 2.302 5.991-3.452-1.35-5.377 3.799-17.068 7.516-17.068 1.447 0 2.63-.901 2.63-2.003s1.264-1.518 2.809-.926c3.607 1.385 1.624-1.937-2.462-4.124-2.208-1.182-4.47-.529-8.043 2.32m-43.058 2.98c-1.448.898-11.997 1.538-23.444 1.423-11.446-.116-22.736.402-25.087 1.151-3.991 1.272-4.224 2.082-3.496 12.146.718 9.932 1.378 11.331 8.348 17.701 4.162 3.805 7.567 7.717 7.567 8.693s1.716 3.956 3.814 6.623c3.595 4.57 3.955 4.662 6.276 1.601 1.355-1.786 2.489-5.431 2.521-8.1.053-4.543 7.756-12.339 12.19-12.339.891 0 6.67-3.674 12.841-8.165 8.068-5.87 11.22-9.32 11.22-12.277 0-5.074-8.797-10.909-12.75-8.457M2.579 393.508c-1.377 5.484.754 9.8 3.049 6.178 2.128-3.359 2.016-10.599-.164-10.599-.977 0-2.275 1.99-2.885 4.421m13.708 7.966c0 2.694-1.119 3.9-3.619 3.9-3.596 0-4.708 1.928-2.429 4.207.655.655 2.28.288 3.61-.817 1.331-1.104 4.052-1.58 6.048-1.058 4.73 1.237 4.736-2.579.01-6.856-3.513-3.179-3.62-3.161-3.62.624m195.908 30.939c-2.869 4.649-10.83 6.711-15.251 3.95-2.721-1.699-3.596-1.573-4.445.64-1.513 3.942-10.986 3.445-16.464-.864-6.609-5.199-10.868-4.532-23.115 3.62-5.972 3.975-12.69 7.23-14.93 7.233-5.772.008-5.076 3.89 2.274 12.688 8.099 9.693 9.58 15.292 5.299 20.024-5.531 6.111-15.152 11.178-19.211 10.117-2.423-.634-5.906.609-9.6 3.427-3.188 2.432-7.552 4.421-9.698 4.421-4.505 0-4.464-.364-1.432 12.668 2.017 8.671 3.219 10.462 9.324 13.901 8.548 4.813 11.997 3.464 17.193-6.722 3.707-7.266 7.208-9.435 7.208-4.464 0 1.493.786 2.714 1.746 2.714 2.66 0 5.816-6.977 4.738-10.474-.644-2.089 1.412-5.069 6.309-9.145 7.25-6.035 12.543-6.562 12.543-1.249 0 4.43 5.312 3.2 7.568-1.753 2.468-5.417 3.328-5.528 8.928-1.152 3.871 3.025 28.732 14.725 31.288 14.725.566 0 3.809-3.032 7.205-6.739 5.1-5.564 6.546-9.035 8.303-19.928 1.514-9.387 3.464-14.778 6.762-18.698l4.635-5.507-4.929-10.306c-2.711-5.668-5.551-11.527-6.31-13.02-2.23-4.382-13.253-4.456-15.938-.107m-102.893 10.853c-6.008 7.321-7.191 24.336-2.555 36.728 2.047 5.469 3.209 11.276 2.584 12.905-1.519 3.959-.727 3.762 6.591-1.643 4.138-3.056 7.598-4.262 10.292-3.588 5.029 1.258 17.778-6.393 19.455-11.675 1.222-3.851-3.796-13.788-9.247-18.312-1.584-1.315-3.596-4.271-4.469-6.57-.874-2.298-3.64-4.958-6.146-5.911-2.506-.953-4.557-2.472-4.557-3.376 0-.904-1.832-1.992-4.071-2.419-2.788-.531-5.272.686-7.877 3.861m141.428 10.831c-.567.919-3.455 2.203-6.416 2.853-7.56 1.661-12.188 9.174-14.477 23.503-2.256 14.121-4.029 18.147-9.21 20.92-3.001 1.606-3.467 3.057-2.483 7.733 1.914 9.091 3.283 9.572 17.104 6.012 14.455-3.724 18.37-3.02 22.962 4.129 5.66 8.813 16.727 20.046 19.748 20.046 1.591 0 5.372-1.766 8.403-3.924 5.336-3.8 5.588-3.817 7.971-.559 1.353 1.851 2.46 5.652 2.46 8.448 0 4.69.538 5.083 6.962 5.083 4.38 0 8.52 1.352 11.164 3.644 2.658 2.306 5.586 3.256 7.968 2.587 6.838-1.921 28.848-18.073 32.039-23.512 5.96-10.16 2.971-25.331-5.38-27.311-7.13-1.69-10.659-5.538-13.827-15.077-1.938-5.834-4.318-9.241-7.452-10.67-3.924-1.787-4.43-2.897-3.418-7.503 1.162-5.292 1.037-5.404-6.002-5.404-4.851 0-7.542.92-8.275 2.829-.597 1.556-1.96 2.289-3.029 1.628-1.174-.726-1.717.125-1.37 2.147.442 2.583-.462 3.274-3.951 3.021-5.486-.397-14.478 2.829-14.478 5.194 0 .941-1.513 1.231-3.364.644-1.942-.616-4.33.097-5.65 1.688-3.072 3.701-8.564 3.488-10.646-.412-.929-1.741-2.28-8.053-3.001-14.025-.721-5.972-2.125-11.876-3.119-13.12-2.104-2.632-9.724-3.034-11.233-.592m-75.188 37.891c0 2.947-5.439 7.491-8.967 7.491-1.866 0-3.732-1.732-4.331-4.02l-1.051-4.02-5.14 4.925c-2.827 2.709-6.088 4.925-7.247 4.925-1.158 0-1.637 1.223-1.063 2.718 2.814 7.333-6.427 17.873-10.248 11.69-1.769-2.863-7.196 7.055-7.196 13.15 0 5.269-5.04 12.709-7.557 11.154-1.201-.743-1.439.226-.659 2.684.752 2.368.437 3.846-.818 3.846-1.121 0-1.477.908-.791 2.018.765 1.238 4.649 1.69 10.06 1.17 4.847-.465 8.813-.152 8.813.697 0 .85 1.629 1.545 3.62 1.545s3.619 1.096 3.619 2.435c0 2.36 18.068 8.492 33.047 11.215 7.445 1.353 12.196-1.098 12.196-6.292 0-1.681 1.432-4.635 3.181-6.565 1.75-1.929 4.58-5.688 6.29-8.353 1.709-2.665 4.96-5.108 7.224-5.429 2.734-.388 3.941-1.634 3.595-3.709-.67-4.004 4.696-12.258 7.968-12.258 3.355 0 3.204-3.465-.208-4.774-1.493-.573-2.714-2.991-2.714-5.373 0-3.168-1.002-4.33-3.734-4.33-4.101 0-25.035-9.487-32.913-14.915-2.737-1.886-4.976-2.617-4.976-1.625m207.065 19.313c-4.896 2.521-11.629 5.178-14.961 5.905-4.925 1.075-6.5 2.608-8.424 8.205-2.984 8.68-6.365 12.417-19.902 21.99-13.659 9.661-18.966 11.056-24.748 6.508-2.604-2.048-7.973-3.661-13.272-3.987-8.174-.502-8.984-.183-9.93 3.913-.567 2.453-2.836 5.263-5.043 6.246-2.207.982-4.013 3.336-4.013 5.23 0 1.893-1.425 4.525-3.167 5.847-2.956 2.244-2.916 2.408.603 2.461 6.192.095 6.34 1.998.69 8.852-6.111 7.414-6.592 10.376-2.432 14.974 2.724 3.009 2.612 3.623-1.568 8.591-4.104 4.877-8.751 19.068-11.187 34.162-.924 5.728-.837 5.822 3.078 3.304 2.217-1.425 8.916-3.84 14.888-5.366 7.51-1.92 11.974-4.235 14.478-7.508 12.858-16.81 21.176-24.099 29.526-25.871 25.486-5.408 47.379-8.306 55.53-7.351 5.659.664 27.905.298 39.114-.643 6.471-.544 14.027-2.862 20.812-6.386 5.859-3.043 18.796-7.437 28.75-9.765 21.436-5.014 21.563-5.239 14.491-25.728-3.457-10.018-4.244-14.568-2.941-17.004 1.901-3.551 1.542-12.333-.591-14.482-1.38-1.389-21.946-5.443-35.458-6.989-5.525-.633-11.744.231-19.002 2.638-5.935 1.968-13.391 4.126-16.57 4.795-5.572 1.172-5.92.888-9.723-7.954-4.581-10.647-6.403-11.086-19.028-4.587m-144.631 4.881c-5.627 1.907-11.79 4.619-17.521 7.712-3.543 1.912-5.886 6.85-5.96 12.56-.031 2.392-1.866 3.97-5.811 4.999-3.434.895-6.254 3.036-6.97 5.294-.662 2.085-2.546 5.36-4.187 7.278-1.894 2.213-2.991 6.768-3.005 12.474-.018 7.598.505 8.988 3.38 8.988 1.872 0 6.185 2.443 9.586 5.429 7.297 6.407 8.703 6.561 16.507 1.803 3.259-1.987 7.534-3.613 9.501-3.613 2.88 0 3.576-1.232 3.576-6.334 0-5.349.632-6.34 4.071-6.376 2.24-.023 8.133-2.263 13.097-4.977 7.045-3.852 9.94-6.863 13.197-13.73 4.792-10.099 4.739-10.243-9.238-25.136-8.254-8.796-10.749-9.582-20.223-6.371M18.347 534.467c-1.53 1.843-.941 3.336 2.493 6.322l4.496 3.909v-6.322c0-6.653-3.218-8.453-6.989-3.909m268.428 3.074c-2.951 1.946-7.494 3.543-10.096 3.549-3.893.01-5.253 1.375-7.678 7.704-3.217 8.398-13.993 16.681-24.411 18.765-5.052 1.01-5.709 1.844-5.709 7.249 0 4.69-.761 6.108-3.279 6.108-1.804 0-6.651 1.629-10.771 3.619-9.151 4.421-10.956 4.479-15.363.49-3.278-2.966-3.55-2.966-5.209 0-.964 1.721-2.933 3.13-4.376 3.13-1.444 0-2.625.719-2.625 1.598 0 .88-1.629 2.025-3.619 2.545-1.991.521-3.62 1.743-3.62 2.715 0 .972 1.629 2.194 3.62 2.715 5.676 1.484 4.549 6.714-1.447 6.714-4.719 0-5.015.431-4.329 6.305.64 5.482.104 6.545-4.101 8.143-2.66 1.012-6.896 1.839-9.413 1.839-3.053 0-4.89 1.204-5.522 3.62-.52 1.99-1.986 3.619-3.256 3.619-1.271 0-2.814 1.314-3.431 2.92-.71 1.852-2.436 2.576-4.718 1.979-2.661-.696-3.597-.043-3.597 2.509 0 4.422-1.896 4.345-9.942-.402-6.393-3.772-6.68-3.785-13.707-.616-5.443 2.454-6.929 4.015-6.152 6.463.661 2.085-1.118 5.665-5.03 10.117-3.329 3.79-7.436 9.094-9.126 11.787l-3.074 4.897 6.343 1.19c3.489.654 6.79 1.912 7.335 2.794.546.883 2.21 1.605 3.699 1.605 3.998 0 18.796 7.064 18.796 8.973 0 2.514 11.123 1.722 16.904-1.205 3.304-1.672 7.534-2.197 11.841-1.47 8.094 1.368 22.458-4.147 25.472-9.78 2.942-5.496 10.692-8.836 29.446-12.688 37.41-7.686 35.508-6.843 36.672-16.248 1.77-14.298 8.596-34.651 12.282-36.623 3.126-1.673 3.172-2.09.546-4.991-4.1-4.531-3.543-9.94 1.66-16.123 5.469-6.5 5.597-7.569.905-7.569-4.214 0-4.891-4.554-.905-6.084 1.493-.573 2.715-2.716 2.715-4.763 0-2.303 1.723-4.376 4.524-5.441 3.104-1.18 4.524-3.093 4.524-6.095 0-2.407 1.222-4.844 2.715-5.417 2.87-1.102 3.609-7.804 1.266-11.491-1.041-1.638-2.748-1.298-6.759 1.345m654.866 11.303c-.52.842-2.939 2.288-5.376 3.215-2.437.926-4.297 2.708-4.134 3.96.65 4.986-.299 6.978-3.973 8.337-3.457 1.279-2.87 2.038 5.882 7.608 5.347 3.403 11.173 7.988 12.945 10.188 4.017 4.987 15.964 7.559 26.34 5.672 4.316-.785 12.46-1.867 18.097-2.404 15.549-1.481 22.788-3.885 25.858-8.586.621-.951 5.042-2.46 9.824-3.354 4.782-.893 10.14-3.176 11.907-5.072 3.101-3.329 3.013-3.539-2.586-6.137-16.367-7.594-23.018-10.31-25.243-10.31-1.348 0-3.342-.891-4.43-1.979-1.431-1.431-3.242-1.15-6.548 1.017-2.514 1.647-7.843 3.039-11.844 3.094-4.701.065-7.64 1.054-8.308 2.796-1.354 3.526-9.023 1.688-16.413-3.934-5.525-4.204-20.241-6.954-21.998-4.111m-835.247.982c-1.702.676-5.158 4.028-7.681 7.449-2.523 3.42-8.049 7.962-12.281 10.092-8.711 4.386-9.366 6.199-12.365 34.227-1.892 17.676-2.608 15.402 11.272 35.802 1.835 2.697 3.337 6 3.337 7.34 0 1.339 2.099 5.241 4.665 8.669 3.782 5.053 4.509 7.689 3.841 13.924-1.132 10.574 1.785 9.763 10.054-2.796 3.739-5.678 8.751-12.976 11.138-16.217 2.388-3.242 3.999-7.313 3.581-9.049-.543-2.25 1.234-4.063 6.194-6.322 8.679-3.952 8.893-3.947 17.107.456l6.759 3.623v-3.745c0-2.924.795-3.493 3.629-2.593 2.411.765 3.993.199 4.718-1.688.599-1.562 2.03-2.839 3.181-2.839 1.15 0 2.925-1.833 3.944-4.072 1.019-2.24 3.015-3.811 4.436-3.491 1.42.32 5.317.068 8.659-.559 5.736-1.076 6.044-1.514 5.495-7.82-.533-6.111-.158-6.729 4.395-7.252 5.814-.67 6.556-3.117 1.357-4.476-5.822-1.523-4.107-5.445 4.725-10.807 9.06-5.5 9.546-8.975 1.46-10.432-4.704-.848-5.218-1.589-4.712-6.787.615-6.311-.622-7.053-5.538-3.321-2.679 2.034-5.982 1.61-21.716-2.791-10.206-2.854-19.452-6.39-20.546-7.857-1.093-1.467-2.499-2.157-3.123-1.533-.624.624-2.254.205-3.623-.93-1.368-1.136-5.895-1.932-10.06-1.769-4.164.163-8.52-.652-9.68-1.812-2.296-2.296-7.74-2.566-12.622-.624m-86.166 14.892c-4.329 4.032-5.264 7.544-1.64 6.153 2.558-.982 7.402-8.001 6.289-9.114-.39-.39-2.482.942-4.649 2.961m778.757 33.795c1.991.489 4.552 1.644 5.69 2.567 2.9 2.349 19.856 4.146 21.023 2.228.528-.869-3.624-1.812-9.228-2.095-5.604-.283-10.975-1.301-11.936-2.262-.962-.961-3.418-1.653-5.458-1.538-3.635.206-3.637.228-.091 1.1m93.2 6.64c0 1.717 5.418 2.582 6.383 1.02.588-.952-.607-1.731-2.656-1.731-2.05 0-3.727.32-3.727.711m-645.16 49.195c-4.977 1.392-14.342 3.511-20.812 4.709-6.469 1.198-10.134 2.498-8.143 2.889 1.99.392 4.598 1.967 5.794 3.501 1.213 1.555 3.457 2.297 5.072 1.677 1.593-.611 4.694.067 6.891 1.506 2.684 1.759 4.879 2.058 6.691.912 2.287-1.445 2.216-1.709-.47-1.733-1.742-.015-3.167-1.336-3.167-2.935 0-1.776 1.006-2.523 2.583-1.918 1.42.545 3.586-.219 4.814-1.698 1.227-1.479 3.323-2.271 4.656-1.759 1.334.512 2.425.093 2.425-.929 0-1.023.814-1.357 1.81-.742 2.916 1.803 2.08 6.004-1.358 6.826-2.983.714-2.978.84.078 2.166 4.105 1.782 4.227 1.619 5.756-7.634 1.446-8.752 1.418-8.763-12.62-4.838" fill="#464655" fill-rule="evenodd"/></svg>